NeutonCursive-Regular.ufo
<glyph name="exclam" format="1">
  <advance width="341"/>
  <unicode hex="0021"/>
  <outline>
    <contour>
      <point x="59" y="1257" type="curve"/>
      <point x="90" y="1279"/>
      <point x="126" y="1290"/>
      <point x="167" y="1290" type="curve" smooth="yes"/>
      <point x="208" y="1290"/>
      <point x="242" y="1278"/>
      <point x="268" y="1254" type="curve" smooth="yes"/>
      <point x="294" y="1230"/>
      <point x="310" y="1196"/>
      <point x="318" y="1152" type="curve"/>
      <point x="322" y="1136"/>
      <point x="324" y="1114"/>
      <point x="323" y="1085" type="curve" smooth="yes"/>
      <point x="321" y="1000"/>
      <point x="304" y="872"/>
      <point x="269" y="699" type="curve"/>
      <point x="194" y="338" type="line"/>
      <point x="123" y="325" type="line"/>
      <point x="135" y="495" type="line" smooth="yes"/>
      <point x="140" y="561"/>
      <point x="142" y="666"/>
      <point x="142" y="811" type="curve" smooth="yes"/>
      <point x="142" y="874" type="line"/>
      <point x="137" y="1022"/>
      <point x="110" y="1150"/>
    </contour>
    <contour>
      <point x="188" y="206" type="curve" smooth="yes"/>
      <point x="200" y="200"/>
      <point x="210" y="192"/>
      <point x="220" y="178" type="curve" smooth="yes"/>
      <point x="230" y="164"/>
      <point x="235" y="154"/>
      <point x="238" y="143" type="curve" smooth="yes"/>
      <point x="241" y="132"/>
      <point x="242" y="125"/>
      <point x="242" y="120" type="curve" smooth="yes"/>
      <point x="242" y="115"/>
      <point x="240" y="100"/>
      <point x="234" y="73" type="curve" smooth="yes"/>
      <point x="228" y="46"/>
      <point x="214" y="22"/>
      <point x="191" y="-1" type="curve" smooth="yes"/>
      <point x="168" y="-24"/>
      <point x="141" y="-35"/>
      <point x="111" y="-35" type="curve"/>
      <point x="84" y="-33"/>
      <point x="64" y="-24"/>
      <point x="48" y="-8" type="curve" smooth="yes"/>
      <point x="32" y="8"/>
      <point x="24" y="24"/>
      <point x="21" y="42" type="curve" smooth="yes"/>
      <point x="18" y="60"/>
      <point x="17" y="68"/>
      <point x="17" y="71" type="curve" smooth="yes"/>
      <point x="17" y="74"/>
      <point x="19" y="86"/>
      <point x="24" y="108" type="curve" smooth="yes"/>
      <point x="29" y="130"/>
      <point x="41" y="153"/>
      <point x="64" y="176" type="curve" smooth="yes"/>
      <point x="87" y="199"/>
      <point x="110" y="211"/>
      <point x="134" y="212" type="curve" smooth="yes"/>
      <point x="158" y="213"/>
      <point x="176" y="212"/>
    </contour>
  </outline>
</glyph>
<glyph name="quotedbl" format="1">
  <advance width="442"/>
  <unicode hex="0022"/>
  <outline>
    <contour>
      <point x="28" y="1308" type="line"/>
      <point x="34" y="1310"/>
      <point x="52" y="1311"/>
      <point x="86" y="1310" type="curve" smooth="yes"/>
      <point x="120" y="1309"/>
      <point x="162" y="1304"/>
      <point x="211" y="1292" type="curve"/>
      <point x="126" y="906" type="line"/>
      <point x="103" y="898"/>
      <point x="78" y="894"/>
      <point x="51" y="895" type="curve" smooth="yes"/>
      <point x="30" y="895" type="line"/>
    </contour>
    <contour>
      <point x="237" y="1308" type="line"/>
      <point x="243" y="1310"/>
      <point x="262" y="1311"/>
      <point x="296" y="1310" type="curve" smooth="yes"/>
      <point x="330" y="1309"/>
      <point x="371" y="1304"/>
      <point x="420" y="1292" type="curve"/>
      <point x="335" y="906" type="line"/>
      <point x="312" y="898"/>
      <point x="287" y="894"/>
      <point x="260" y="895" type="curve" smooth="yes"/>
      <point x="240" y="895" type="line"/>
    </contour>
  </outline>
</glyph>
<glyph name="numbersign" format="1">
  <advance width="895"/>
  <unicode hex="0023"/>
  <outline>
    <contour>
      <point x="284" y="355" type="line"/>
      <point x="233" y="174" type="line"/>
      <point x="128" y="167" type="line"/>
      <point x="183" y="355" type="line"/>
      <point x="17" y="355" type="line"/>
      <point x="58" y="455" type="line"/>
      <point x="216" y="455" type="line"/>
      <point x="279" y="662" type="line"/>
      <point x="121" y="662" type="line"/>
      <point x="160" y="760" type="line"/>
      <point x="312" y="760" type="line"/>
      <point x="369" y="931" type="line"/>
      <point x="470" y="941" type="line"/>
      <point x="413" y="760" type="line"/>
      <point x="613" y="760" type="line"/>
      <point x="667" y="931" type="line"/>
      <point x="770" y="940" type="line"/>
      <point x="713" y="760" type="line"/>
      <point x="878" y="760" type="line"/>
      <point x="839" y="662" type="line"/>
      <point x="681" y="662" type="line"/>
      <point x="619" y="455" type="line"/>
      <point x="775" y="455" type="line"/>
      <point x="736" y="355" type="line"/>
      <point x="584" y="355" type="line"/>
      <point x="533" y="174" type="line"/>
      <point x="428" y="167" type="line"/>
      <point x="484" y="355" type="line"/>
    </contour>
    <contour>
      <point x="317" y="455" type="line"/>
      <point x="516" y="455" type="line"/>
      <point x="581" y="662" type="line"/>
      <point x="380" y="662" type="line"/>
    </contour>
  </outline>
</glyph>
<glyph name="dollar" format="1">
  <advance width="877"/>
  <unicode hex="0024"/>
  <outline>
    <contour>
      <point x="545" y="1184" type="line"/>
      <point x="541" y="1184" type="line" smooth="yes"/>
      <point x="496" y="1184"/>
      <point x="456" y="1168"/>
      <point x="418" y="1138" type="curve" smooth="yes"/>
      <point x="380" y="1108"/>
      <point x="360" y="1067"/>
      <point x="356" y="1016" type="curve"/>
      <point x="356" y="1003" type="line" smooth="yes"/>
      <point x="356" y="945"/>
      <point x="376" y="894"/>
      <point x="416" y="850" type="curve"/>
      <point x="432" y="833"/>
      <point x="453" y="813"/>
      <point x="479" y="788" type="curve"/>
    </contour>
    <contour>
      <point x="425" y="80" type="line"/>
      <point x="466" y="83"/>
      <point x="504" y="94"/>
      <point x="537" y="116" type="curve" smooth="yes"/>
      <point x="591" y="151"/>
      <point x="618" y="200"/>
      <point x="618" y="262" type="curve" smooth="yes"/>
      <point x="618" y="324"/>
      <point x="596" y="378"/>
      <point x="553" y="423" type="curve"/>
      <point x="539" y="440"/>
      <point x="519" y="458"/>
      <point x="493" y="479" type="curve"/>
    </contour>
    <contour>
      <point x="242" y="401" type="curve"/>
      <point x="222" y="346"/>
      <point x="212" y="297"/>
      <point x="214" y="256" type="curve" smooth="yes"/>
      <point x="214" y="193"/>
      <point x="246.154" y="146"/>
      <point x="309" y="113" type="curve"/>
      <point x="323" y="104"/>
      <point x="340" y="96"/>
      <point x="362" y="88" type="curve"/>
      <point x="436" y="525" type="line"/>
      <point x="355" y="591"/>
      <point x="292" y="650"/>
      <point x="249" y="702" type="curve"/>
      <point x="193" y="773"/>
      <point x="165" y="841"/>
      <point x="165" y="906" type="curve" smooth="yes"/>
      <point x="165" y="928" type="line"/>
      <point x="169" y="966"/>
      <point x="180" y="1004"/>
      <point x="200" y="1043" type="curve"/>
      <point x="234" y="1108"/>
      <point x="280" y="1161"/>
      <point x="339" y="1200" type="curve" smooth="yes"/>
      <point x="398" y="1239"/>
      <point x="460" y="1263"/>
      <point x="527" y="1273" type="curve"/>
      <point x="552" y="1417" type="line"/>
      <point x="685" y="1426" type="line"/>
      <point x="660" y="1271" type="line"/>
      <point x="741" y="1256"/>
      <point x="808" y="1225"/>
      <point x="862" y="1178" type="curve"/>
      <point x="797" y="832" type="line"/>
      <point x="709" y="851" type="line"/>
      <point x="702" y="1101" type="line"/>
      <point x="679" y="1134"/>
      <point x="648" y="1157"/>
      <point x="609" y="1171" type="curve"/>
      <point x="536" y="741" type="line"/>
      <point x="623" y="668"/>
      <point x="677" y="621"/>
      <point x="700" y="600" type="curve" smooth="yes"/>
      <point x="769" y="532"/>
      <point x="808" y="457"/>
      <point x="819" y="376" type="curve" smooth="yes"/>
      <point x="821" y="371"/>
      <point x="821" y="362"/>
      <point x="820" y="346" type="curve" smooth="yes"/>
      <point x="820" y="261"/>
      <point x="789" y="185"/>
      <point x="726" y="120" type="curve"/>
      <point x="675" y="66"/>
      <point x="610" y="26"/>
      <point x="531" y="0" type="curve" smooth="yes"/>
      <point x="502" y="-10"/>
      <point x="472" y="-15"/>
      <point x="441" y="-19" type="curve"/>
      <point x="418" y="-157" type="line"/>
      <point x="289" y="-167" type="line"/>
      <point x="314" y="-19" type="line"/>
      <point x="241" y="-11"/>
      <point x="177" y="12"/>
      <point x="120" y="49" type="curve" smooth="yes"/>
      <point x="90" y="70"/>
      <point x="66" y="94"/>
      <point x="48" y="123" type="curve" smooth="yes"/>
      <point x="30" y="152"/>
      <point x="20" y="180"/>
      <point x="17" y="207" type="curve"/>
      <point x="15" y="211"/>
      <point x="15" y="218"/>
      <point x="15" y="232" type="curve" smooth="yes"/>
      <point x="15" y="246"/>
      <point x="17" y="264"/>
      <point x="23" y="286" type="curve"/>
      <point x="41" y="339"/>
      <point x="75" y="375"/>
      <point x="127" y="395" type="curve"/>
      <point x="150" y="406"/>
      <point x="174" y="411"/>
      <point x="200" y="411" type="curve" smooth="yes"/>
      <point x="215.167" y="411"/>
      <point x="229.75" y="408"/>
    </contour>
  </outline>
</glyph>
<glyph name="percent" format="1">
  <advance width="1063"/>
  <unicode hex="0025"/>
  <outline>
    <contour>
      <point x="859" y="962" type="line"/>
      <point x="995" y="971" type="line"/>
      <point x="186" y="-23" type="line"/>
      <point x="44" y="-31" type="line"/>
    </contour>
    <contour>
      <point x="504" y="770" type="curve" smooth="yes"/>
      <point x="504" y="768"/>
      <point x="504" y="754"/>
      <point x="502" y="727" type="curve"/>
      <point x="492" y="649"/>
      <point x="463" y="587"/>
      <point x="413" y="541" type="curve" smooth="yes"/>
      <point x="363" y="495"/>
      <point x="302" y="471"/>
      <point x="231" y="471" type="curve" smooth="yes"/>
      <point x="160" y="471"/>
      <point x="106" y="491"/>
      <point x="71" y="530" type="curve" smooth="yes"/>
      <point x="36" y="569"/>
      <point x="18" y="621"/>
      <point x="18" y="686" type="curve" smooth="yes"/>
      <point x="18" y="769"/>
      <point x="46" y="838"/>
      <point x="102" y="893" type="curve" smooth="yes"/>
      <point x="158" y="948"/>
      <point x="221" y="975"/>
      <point x="293" y="975" type="curve" smooth="yes"/>
      <point x="365" y="975"/>
      <point x="419" y="957"/>
      <point x="453" y="920" type="curve" smooth="yes"/>
      <point x="487" y="883"/>
      <point x="504" y="833"/>
    </contour>
    <contour>
      <point x="274" y="883" type="curve" smooth="yes"/>
      <point x="181" y="883"/>
      <point x="135" y="821"/>
      <point x="136" y="699" type="curve" smooth="yes"/>
      <point x="136" y="608"/>
      <point x="173" y="563"/>
      <point x="247" y="562" type="curve" smooth="yes"/>
      <point x="329" y="562"/>
      <point x="375" y="619"/>
      <point x="387" y="733" type="curve" smooth="yes"/>
      <point x="389" y="745"/>
      <point x="389" y="752"/>
      <point x="389" y="754" type="curve" smooth="yes"/>
      <point x="389" y="794"/>
      <point x="380" y="825"/>
      <point x="359" y="848" type="curve" smooth="yes"/>
      <point x="338" y="871"/>
      <point x="310" y="883"/>
    </contour>
    <contour>
      <point x="1046" y="274" type="curve" smooth="yes"/>
      <point x="1046" y="270"/>
      <point x="1045" y="257"/>
      <point x="1042" y="233" type="curve"/>
      <point x="1033" y="156"/>
      <point x="1004" y="94"/>
      <point x="953" y="47" type="curve" smooth="yes"/>
      <point x="902" y="0"/>
      <point x="841" y="-24"/>
      <point x="770" y="-24" type="curve" smooth="yes"/>
      <point x="699" y="-24"/>
      <point x="646" y="-3"/>
      <point x="611" y="37" type="curve" smooth="yes"/>
      <point x="576" y="77"/>
      <point x="558" y="128"/>
      <point x="558" y="191" type="curve" smooth="yes"/>
      <point x="558" y="272"/>
      <point x="587" y="339"/>
      <point x="646" y="394" type="curve" smooth="yes"/>
      <point x="705" y="449"/>
      <point x="770" y="476"/>
      <point x="840" y="476" type="curve" smooth="yes"/>
      <point x="910" y="476"/>
      <point x="962" y="458"/>
      <point x="996" y="421" type="curve" smooth="yes"/>
      <point x="1030" y="384"/>
      <point x="1046" y="335"/>
    </contour>
    <contour>
      <point x="676" y="202" type="curve" smooth="yes"/>
      <point x="676" y="113"/>
      <point x="713" y="68"/>
      <point x="788" y="68" type="curve" smooth="yes"/>
      <point x="869" y="68"/>
      <point x="915" y="119"/>
      <point x="927" y="220" type="curve" smooth="yes"/>
      <point x="929" y="226"/>
      <point x="929" y="236"/>
      <point x="929" y="254" type="curve" smooth="yes"/>
      <point x="929" y="295"/>
      <point x="919" y="327"/>
      <point x="898" y="350" type="curve" smooth="yes"/>
      <point x="877" y="373"/>
      <point x="850" y="385"/>
      <point x="814" y="385" type="curve" smooth="yes"/>
      <point x="735" y="385"/>
      <point x="690" y="337"/>
      <point x="678" y="240" type="curve" smooth="yes"/>
      <point x="676" y="234"/>
      <point x="676" y="222"/>
    </contour>
  </outline>
</glyph>
<glyph name="ampersand" format="1">
  <advance width="1130"/>
  <unicode hex="0026"/>
  <outline>
    <contour>
      <point x="237" y="872" type="curve" smooth="yes"/>
      <point x="237" y="1050.9"/>
      <point x="403.162" y="1220"/>
      <point x="613" y="1220" type="curve" smooth="yes"/>
      <point x="763.836" y="1220"/>
      <point x="871" y="1126.06"/>
      <point x="871" y="985" type="curve" smooth="yes"/>
      <point x="871" y="793"/>
      <point x="672" y="673"/>
      <point x="517" y="627" type="curve"/>
      <point x="535.489" y="601.527"/>
      <point x="487" y="695"/>
      <point x="487" y="695" type="curve"/>
      <point x="600" y="725"/>
      <point x="688" y="849"/>
      <point x="688" y="933" type="curve" smooth="yes"/>
      <point x="688" y="1062.33"/>
      <point x="623.982" y="1127"/>
      <point x="544" y="1127" type="curve" smooth="yes"/>
      <point x="462.474" y="1127"/>
      <point x="410" y="1046.18"/>
      <point x="410" y="971" type="curve" smooth="yes"/>
      <point x="410" y="842.781"/>
      <point x="447" y="778"/>
      <point x="528" y="645" type="curve" smooth="yes"/>
      <point x="835.457" y="141" type="line" smooth="yes"/>
      <point x="874.243" y="69.1885"/>
      <point x="913" y="0"/>
      <point x="913" y="-79" type="curve" smooth="yes"/>
      <point x="913" y="-272.492"/>
      <point x="656.194" y="-363"/>
      <point x="494" y="-301" type="curve"/>
      <point x="487" y="-265" type="line"/>
      <point x="604.073" y="-243.917"/>
      <point x="722" y="-212.549"/>
      <point x="722" y="-112" type="curve" smooth="yes"/>
      <point x="722" y="-56"/>
      <point x="708.668" y="-35.1377"/>
      <point x="658.289" y="61" type="curve" smooth="yes"/>
      <point x="342.611" y="585" type="line" smooth="yes"/>
      <point x="269" y="707"/>
      <point x="237" y="798.101"/>
    </contour>
    <contour>
      <point x="763" y="617" type="curve"/>
      <point x="799.659" y="671.037"/>
      <point x="848.37" y="701"/>
      <point x="919" y="701" type="curve" smooth="yes"/>
      <point x="1029.66" y="701"/>
      <point x="1112" y="586.288"/>
      <point x="1112" y="460" type="curve" smooth="yes"/>
      <point x="1112" y="113.594"/>
      <point x="691.191" y="-52"/>
      <point x="380" y="-52" type="curve" smooth="yes"/>
      <point x="192.972" y="-52"/>
      <point x="17" y="29.7617"/>
      <point x="17" y="270" type="curve" smooth="yes"/>
      <point x="17" y="436"/>
      <point x="180" y="560"/>
      <point x="354.461" y="643.428" type="curve"/>
      <point x="354.668" y="635.17"/>
      <point x="396" y="572"/>
      <point x="396" y="572" type="curve"/>
      <point x="254" y="488.655"/>
      <point x="229" y="408.621"/>
      <point x="229" y="309" type="curve" smooth="yes"/>
      <point x="229" y="151.666"/>
      <point x="357.636" y="72"/>
      <point x="512" y="72" type="curve" smooth="yes"/>
      <point x="707.265" y="72"/>
      <point x="928" y="158.641"/>
      <point x="928" y="400" type="curve" smooth="yes"/>
      <point x="928" y="488.279"/>
      <point x="873.268" y="578.565"/>
    </contour>
  </outline>
</glyph>
<glyph name="quotesingle" format="1">
  <advance width="233"/>
  <unicode hex="0027"/>
  <outline>
    <contour>
      <point x="28" y="1308" type="line"/>
      <point x="34" y="1310"/>
      <point x="52" y="1311"/>
      <point x="86" y="1310" type="curve" smooth="yes"/>
      <point x="120" y="1309"/>
      <point x="162" y="1304"/>
      <point x="211" y="1292" type="curve"/>
      <point x="126" y="906" type="line"/>
      <point x="103" y="898"/>
      <point x="78" y="894"/>
      <point x="51" y="895" type="curve" smooth="yes"/>
      <point x="30" y="895" type="line"/>
    </contour>
  </outline>
</glyph>
<glyph name="parenleft" format="1">
  <advance width="526"/>
  <unicode hex="0028"/>
  <outline>
    <contour>
      <point x="260" y="-378" type="line"/>
      <point x="99" y="-195"/>
      <point x="18" y="27"/>
      <point x="17" y="287" type="curve" smooth="yes"/>
      <point x="17" y="338"/>
      <point x="21" y="402"/>
      <point x="30" y="477" type="curve" smooth="yes"/>
      <point x="39" y="552"/>
      <point x="58" y="635"/>
      <point x="88" y="724" type="curve" smooth="yes"/>
      <point x="118" y="813"/>
      <point x="150" y="885"/>
      <point x="182" y="940" type="curve" smooth="yes"/>
      <point x="214" y="995"/>
      <point x="252" y="1047"/>
      <point x="295" y="1098" type="curve" smooth="yes"/>
      <point x="338" y="1149"/>
      <point x="373" y="1187"/>
      <point x="402" y="1212" type="curve" smooth="yes"/>
      <point x="431" y="1237"/>
      <point x="452" y="1254"/>
      <point x="467" y="1266" type="curve"/>
      <point x="509" y="1199" type="line"/>
      <point x="348" y="1020"/>
      <point x="248" y="774"/>
      <point x="209" y="460" type="curve" smooth="yes"/>
      <point x="201" y="401"/>
      <point x="198" y="341"/>
      <point x="197" y="282" type="curve"/>
      <point x="199" y="72"/>
      <point x="246" y="-129"/>
      <point x="337" y="-320" type="curve"/>
    </contour>
  </outline>
</glyph>
<glyph name="parenright" format="1">
  <advance width="544"/>
  <unicode hex="0029"/>
  <outline>
    <contour>
      <point x="17" y="-320" type="line"/>
      <point x="240" y="-16"/>
      <point x="351" y="319"/>
      <point x="352" y="685" type="curve" smooth="yes"/>
      <point x="352" y="886"/>
      <point x="308" y="1057"/>
      <point x="220" y="1199" type="curve"/>
      <point x="278" y="1266" type="line"/>
      <point x="444" y="1111"/>
      <point x="527" y="897"/>
      <point x="526" y="621" type="curve" smooth="yes"/>
      <point x="526" y="467"/>
      <point x="500" y="317"/>
      <point x="449" y="170" type="curve" smooth="yes"/>
      <point x="418" y="84"/>
      <point x="387" y="12"/>
      <point x="355" y="-45" type="curve" smooth="yes"/>
      <point x="323" y="-102"/>
      <point x="288" y="-152"/>
      <point x="251" y="-197" type="curve" smooth="yes"/>
      <point x="214" y="-242"/>
      <point x="186" y="-276"/>
      <point x="166" y="-298" type="curve" smooth="yes"/>
      <point x="142" y="-325"/>
      <point x="113" y="-351"/>
      <point x="79" y="-378" type="curve"/>
    </contour>
  </outline>
</glyph>
<glyph name="asterisk" format="1">
  <advance width="751"/>
  <unicode hex="002A"/>
  <outline>
    <contour>
      <point x="304" y="1292" type="line"/>
      <point x="440" y="1279" type="line"/>
      <point x="414" y="988" type="line"/>
      <point x="703" y="1119" type="line"/>
      <point x="732" y="989" type="line"/>
      <point x="447" y="921" type="line"/>
      <point x="666" y="692" type="line"/>
      <point x="548" y="623" type="line"/>
      <point x="395" y="870" type="line"/>
      <point x="240" y="593" type="line"/>
      <point x="138" y="685" type="line"/>
      <point x="331" y="904" type="line"/>
      <point x="19" y="964" type="line"/>
      <point x="74" y="1091" type="line"/>
      <point x="341" y="977" type="line"/>
    </contour>
  </outline>
</glyph>
<glyph name="plus" format="1">
  <advance width="608"/>
  <unicode hex="002B"/>
  <outline>
    <contour>
      <point x="353" y="413" type="line"/>
      <point x="325" y="174" type="line"/>
      <point x="216" y="186" type="line"/>
      <point x="244" y="413" type="line"/>
      <point x="20" y="413" type="line"/>
      <point x="45" y="514" type="line"/>
      <point x="254" y="514" type="line"/>
      <point x="284" y="747" type="line"/>
      <point x="390" y="734" type="line"/>
      <point x="365" y="514" type="line"/>
      <point x="588" y="514" type="line"/>
      <point x="562" y="413" type="line"/>
    </contour>
  </outline>
</glyph>
<glyph name="comma" format="1">
  <advance width="378"/>
  <unicode hex="002C"/>
  <outline>
    <contour>
      <point x="212" y="227" type="curve" smooth="yes"/>
      <point x="227" y="227" type="line"/>
      <point x="279" y="221"/>
      <point x="316" y="188"/>
      <point x="338" y="127" type="curve" smooth="yes"/>
      <point x="348" y="103"/>
      <point x="352" y="80"/>
      <point x="353" y="57" type="curve" smooth="yes"/>
      <point x="353" y="-44"/>
      <point x="303" y="-132"/>
      <point x="204" y="-209" type="curve"/>
      <point x="160" y="-245"/>
      <point x="110" y="-276"/>
      <point x="55" y="-303" type="curve"/>
      <point x="23" y="-251" type="line"/>
      <point x="82" y="-220"/>
      <point x="124" y="-187"/>
      <point x="149" y="-149" type="curve" smooth="yes"/>
      <point x="174" y="-111"/>
      <point x="186" y="-74"/>
      <point x="186" y="-39" type="curve" smooth="yes"/>
      <point x="186" y="-37"/>
      <point x="184" y="-26"/>
      <point x="180" y="-4" type="curve" smooth="yes"/>
      <point x="176" y="18"/>
      <point x="165" y="42"/>
      <point x="145" y="64" type="curve" smooth="yes"/>
      <point x="125" y="86"/>
      <point x="103" y="103"/>
      <point x="78" y="116" type="curve"/>
      <point x="88" y="152"/>
      <point x="105" y="179"/>
      <point x="132" y="198" type="curve" smooth="yes"/>
      <point x="159" y="217"/>
      <point x="185" y="227"/>
    </contour>
  </outline>
</glyph>
<glyph name="hyphen" format="1">
  <advance width="460"/>
  <unicode hex="002D"/>
  <outline>
    <contour>
      <point x="35" y="489" type="line"/>
      <point x="435" y="507" type="line"/>
      <point x="423" y="408" type="line"/>
      <point x="24" y="390" type="line"/>
    </contour>
  </outline>
</glyph>
<glyph name="period" format="1">
  <advance width="274"/>
  <unicode hex="002E"/>
  <outline>
    <contour>
      <point x="195" y="206" type="curve" smooth="yes"/>
      <point x="207" y="200"/>
      <point x="217" y="192"/>
      <point x="227" y="178" type="curve" smooth="yes"/>
      <point x="237" y="164"/>
      <point x="242" y="154"/>
      <point x="245" y="143" type="curve" smooth="yes"/>
      <point x="248" y="132"/>
      <point x="249" y="125"/>
      <point x="249" y="120" type="curve" smooth="yes"/>
      <point x="249" y="115"/>
      <point x="247" y="100"/>
      <point x="241" y="73" type="curve" smooth="yes"/>
      <point x="235" y="46"/>
      <point x="221" y="22"/>
      <point x="198" y="-1" type="curve" smooth="yes"/>
      <point x="175" y="-24"/>
      <point x="148" y="-35"/>
      <point x="118" y="-35" type="curve"/>
      <point x="91" y="-33"/>
      <point x="71" y="-24"/>
      <point x="55" y="-8" type="curve" smooth="yes"/>
      <point x="39" y="8"/>
      <point x="31" y="24"/>
      <point x="28" y="42" type="curve" smooth="yes"/>
      <point x="25" y="60"/>
      <point x="24" y="68"/>
      <point x="24" y="71" type="curve" smooth="yes"/>
      <point x="24" y="74"/>
      <point x="26" y="86"/>
      <point x="31" y="108" type="curve" smooth="yes"/>
      <point x="36" y="130"/>
      <point x="48" y="153"/>
      <point x="71" y="176" type="curve" smooth="yes"/>
      <point x="94" y="199"/>
      <point x="117" y="211"/>
      <point x="141" y="212" type="curve" smooth="yes"/>
      <point x="165" y="213"/>
      <point x="183" y="212"/>
    </contour>
  </outline>
</glyph>
<glyph name="slash" format="1">
  <advance width="634"/>
  <unicode hex="002F"/>
  <outline>
    <contour>
      <point x="483" y="1245" type="line"/>
      <point x="617" y="1252" type="line"/>
      <point x="148" y="-357" type="line"/>
      <point x="17" y="-367" type="line"/>
    </contour>
  </outline>
</glyph>
<glyph name="zero" format="1">
  <advance width="873"/>
  <unicode hex="0030"/>
  <outline>
    <contour>
      <point x="498" y="1158" type="line"/>
      <point x="563" y="1154"/>
      <point x="620" y="1133"/>
      <point x="669" y="1092" type="curve" smooth="yes"/>
      <point x="718" y="1051"/>
      <point x="759" y="997"/>
      <point x="790" y="931" type="curve" smooth="yes"/>
      <point x="833" y="840"/>
      <point x="855" y="736"/>
      <point x="855" y="618" type="curve" smooth="yes"/>
      <point x="855" y="611"/>
      <point x="854" y="586"/>
      <point x="851" y="543" type="curve"/>
      <point x="839" y="402"/>
      <point x="800" y="282"/>
      <point x="731" y="181" type="curve" smooth="yes"/>
      <point x="693" y="126"/>
      <point x="649" y="81"/>
      <point x="600" y="45" type="curve" smooth="yes"/>
      <point x="551" y="9"/>
      <point x="507" y="-11"/>
      <point x="467" y="-16" type="curve" smooth="yes"/>
      <point x="427" y="-21"/>
      <point x="407" y="-23"/>
      <point x="403" y="-23" type="curve" smooth="yes"/>
      <point x="340" y="-23"/>
      <point x="280" y="-5"/>
      <point x="224" y="30" type="curve" smooth="yes"/>
      <point x="168" y="65"/>
      <point x="122" y="119"/>
      <point x="87" y="191" type="curve" smooth="yes"/>
      <point x="52" y="263"/>
      <point x="31" y="345"/>
      <point x="23" y="437" type="curve"/>
      <point x="19" y="466"/>
      <point x="18" y="503"/>
      <point x="18" y="548" type="curve" smooth="yes"/>
      <point x="18" y="593"/>
      <point x="24" y="644"/>
      <point x="38" y="702" type="curve" smooth="yes"/>
      <point x="65" y="818"/>
      <point x="116" y="921"/>
      <point x="193" y="1011" type="curve"/>
      <point x="238" y="1063"/>
      <point x="284" y="1100"/>
      <point x="330" y="1123" type="curve" smooth="yes"/>
      <point x="376" y="1146"/>
      <point x="426" y="1158"/>
      <point x="481" y="1158" type="curve" smooth="yes"/>
    </contour>
    <contour>
      <point x="207" y="864" type="curve"/>
      <point x="187" y="801"/>
      <point x="177" y="731"/>
      <point x="178" y="653" type="curve" smooth="yes"/>
      <point x="178" y="509"/>
      <point x="210" y="375"/>
      <point x="273" y="251" type="curve"/>
      <point x="325" y="151"/>
      <point x="392" y="101"/>
      <point x="473" y="101" type="curve" smooth="yes"/>
      <point x="535" y="101"/>
      <point x="582" y="125"/>
      <point x="615" y="173" type="curve" smooth="yes"/>
      <point x="636" y="204"/>
      <point x="655" y="252"/>
      <point x="672" y="317" type="curve" smooth="yes"/>
      <point x="689" y="382"/>
      <point x="696" y="448"/>
      <point x="696" y="517" type="curve" smooth="yes"/>
      <point x="696" y="624"/>
      <point x="673" y="728"/>
      <point x="629" y="829" type="curve" smooth="yes"/>
      <point x="585" y="930"/>
      <point x="530" y="995"/>
      <point x="463" y="1022" type="curve"/>
      <point x="439" y="1031"/>
      <point x="422" y="1035"/>
      <point x="411" y="1036" type="curve" smooth="yes"/>
      <point x="400" y="1037"/>
      <point x="385" y="1035"/>
      <point x="365" y="1032" type="curve"/>
      <point x="287" y="1015"/>
      <point x="234" y="959"/>
    </contour>
  </outline>
</glyph>
<glyph name="one" format="1">
  <advance width="551"/>
  <unicode hex="0031"/>
  <outline>
    <contour>
      <point x="214" y="-14" type="line"/>
      <point x="262" y="261"/>
      <point x="291" y="438"/>
      <point x="302" y="516" type="curve" smooth="yes"/>
      <point x="313" y="594"/>
      <point x="320" y="658"/>
      <point x="328" y="707" type="curve" smooth="yes"/>
      <point x="336" y="756"/>
      <point x="342" y="806"/>
      <point x="349" y="857" type="curve" smooth="yes"/>
      <point x="356" y="908"/>
      <point x="363" y="968"/>
      <point x="373" y="1036" type="curve"/>
      <point x="364" y="1032" type="line"/>
      <point x="338" y="959"/>
      <point x="310" y="907"/>
      <point x="281" y="879" type="curve" smooth="yes"/>
      <point x="252" y="851"/>
      <point x="225" y="834"/>
      <point x="200" y="826" type="curve" smooth="yes"/>
      <point x="175" y="818"/>
      <point x="154" y="815"/>
      <point x="137" y="815" type="curve" smooth="yes"/>
      <point x="120" y="815"/>
      <point x="102" y="820"/>
      <point x="81" y="830" type="curve" smooth="yes"/>
      <point x="39" y="850"/>
      <point x="18" y="885"/>
      <point x="17" y="935" type="curve" smooth="yes"/>
      <point x="17" y="937"/>
      <point x="18" y="944"/>
      <point x="21" y="959" type="curve"/>
      <point x="125" y="966"/>
      <point x="219" y="997"/>
      <point x="304" y="1053" type="curve"/>
      <point x="342" y="1078"/>
      <point x="376" y="1107"/>
      <point x="407" y="1138" type="curve"/>
      <point x="533" y="1154" type="line"/>
      <point x="434" y="-8" type="line"/>
    </contour>
  </outline>
</glyph>
<glyph name="two" format="1">
  <advance width="871"/>
  <unicode hex="0032"/>
  <outline>
    <contour>
      <point x="390" y="664" type="curve"/>
      <point x="359" y="626"/>
      <point x="325" y="607"/>
      <point x="288" y="607" type="curve" smooth="yes"/>
      <point x="216" y="607"/>
      <point x="166" y="639"/>
      <point x="138" y="702" type="curve"/>
      <point x="127" y="725"/>
      <point x="122" y="758"/>
      <point x="122" y="802" type="curve" smooth="yes"/>
      <point x="122" y="846"/>
      <point x="141" y="899"/>
      <point x="178" y="961" type="curve" smooth="yes"/>
      <point x="215" y="1023"/>
      <point x="264" y="1074"/>
      <point x="325" y="1114" type="curve" smooth="yes"/>
      <point x="386" y="1154"/>
      <point x="455" y="1176"/>
      <point x="531" y="1178" type="curve"/>
      <point x="545" y="1178" type="line" smooth="yes"/>
      <point x="634" y="1178"/>
      <point x="705" y="1150"/>
      <point x="759" y="1094" type="curve"/>
      <point x="822" y="1031"/>
      <point x="853" y="948"/>
      <point x="854" y="845" type="curve" smooth="yes"/>
      <point x="853" y="698"/>
      <point x="782" y="558"/>
      <point x="638" y="424" type="curve" smooth="yes"/>
      <point x="575" y="365"/>
      <point x="477" y="291"/>
      <point x="345" y="200" type="curve" smooth="yes"/>
      <point x="232" y="123" type="line"/>
      <point x="232" y="113" type="line"/>
      <point x="433" y="121" type="line"/>
      <point x="449" y="121"/>
      <point x="468" y="121"/>
      <point x="492" y="123" type="curve" smooth="yes"/>
      <point x="516" y="125"/>
      <point x="531" y="125"/>
      <point x="539" y="125" type="curve" smooth="yes"/>
      <point x="608" y="131"/>
      <point x="660" y="159"/>
      <point x="695" y="212" type="curve" smooth="yes"/>
      <point x="711" y="234"/>
      <point x="724" y="262"/>
      <point x="738" y="296" type="curve" smooth="yes"/>
      <point x="771" y="376" type="line"/>
      <point x="845" y="349" type="line"/>
      <point x="844" y="343"/>
      <point x="838" y="297"/>
      <point x="824" y="210" type="curve" smooth="yes"/>
      <point x="810" y="123"/>
      <point x="794" y="48"/>
      <point x="775" y="-16" type="curve"/>
      <point x="620" y="-16" type="line"/>
      <point x="458" y="-14"/>
      <point x="312" y="-10"/>
      <point x="180" y="-3" type="curve" smooth="yes"/>
      <point x="17" y="5" type="line"/>
      <point x="28" y="101" type="line"/>
      <point x="209" y="211" type="line" smooth="yes"/>
      <point x="324" y="281"/>
      <point x="407" y="337"/>
      <point x="456" y="381" type="curve" smooth="yes"/>
      <point x="505" y="425"/>
      <point x="541" y="464"/>
      <point x="565" y="499" type="curve" smooth="yes"/>
      <point x="589" y="534"/>
      <point x="610" y="574"/>
      <point x="629" y="621" type="curve" smooth="yes"/>
      <point x="648" y="668"/>
      <point x="658" y="723"/>
      <point x="660" y="786" type="curve"/>
      <point x="660" y="797" type="line" smooth="yes"/>
      <point x="660" y="863"/>
      <point x="646" y="922"/>
      <point x="618" y="974" type="curve" smooth="yes"/>
      <point x="590" y="1026"/>
      <point x="551" y="1061"/>
      <point x="502" y="1078" type="curve"/>
      <point x="482" y="1084"/>
      <point x="460" y="1086"/>
      <point x="436" y="1086" type="curve" smooth="yes"/>
      <point x="412" y="1086"/>
      <point x="385" y="1075"/>
      <point x="355" y="1054" type="curve" smooth="yes"/>
      <point x="325" y="1033"/>
      <point x="306" y="1005"/>
      <point x="293" y="973" type="curve" smooth="yes"/>
      <point x="280" y="941"/>
      <point x="274" y="912"/>
      <point x="274" y="885" type="curve" smooth="yes"/>
      <point x="274" y="797"/>
      <point x="313" y="723"/>
    </contour>
  </outline>
</glyph>
<glyph name="three" format="1">
  <advance width="804"/>
  <unicode hex="0033"/>
  <outline>
    <contour>
      <point x="322" y="589" type="line"/>
      <point x="447.578" y="651.167"/>
      <point x="613" y="735.159"/>
      <point x="613" y="915" type="curve" smooth="yes"/>
      <point x="613" y="1023.03"/>
      <point x="557.954" y="1099"/>
      <point x="461" y="1099" type="curve" smooth="yes"/>
      <point x="375.754" y="1099"/>
      <point x="307" y="1049.26"/>
      <point x="307" y="969" type="curve" smooth="yes"/>
      <point x="307" y="892.109"/>
      <point x="343" y="848"/>
      <point x="381" y="815" type="curve"/>
      <point x="363.064" y="781.121"/>
      <point x="331.479" y="757"/>
      <point x="288" y="757" type="curve"/>
      <point x="286" y="755"/>
      <point x="285" y="755"/>
      <point x="281" y="755" type="curve" smooth="yes"/>
      <point x="212.663" y="755"/>
      <point x="160" y="817.086"/>
      <point x="160" y="888" type="curve" smooth="yes"/>
      <point x="160" y="1059.7"/>
      <point x="373.426" y="1179"/>
      <point x="543" y="1179" type="curve" smooth="yes"/>
      <point x="695.659" y="1179"/>
      <point x="786" y="1105.01"/>
      <point x="786" y="961" type="curve" smooth="yes"/>
      <point x="786" y="779.168"/>
      <point x="623" y="676"/>
      <point x="521" y="625" type="curve"/>
      <point x="521" y="621" type="line"/>
      <point x="654.569" y="621"/>
      <point x="773" y="522.215"/>
      <point x="773" y="372" type="curve" smooth="yes"/>
      <point x="773" y="122.151"/>
      <point x="527.198" y="-28"/>
      <point x="286" y="-28" type="curve" smooth="yes"/>
      <point x="151.374" y="-28"/>
      <point x="19.1055" y="44.8994"/>
      <point x="17" y="167" type="curve"/>
      <point x="17" y="272.75"/>
      <point x="100.88" y="333.335"/>
      <point x="197" y="332" type="curve"/>
      <point x="165.728" y="188.148"/>
      <point x="235.177" y="63"/>
      <point x="366" y="63" type="curve" smooth="yes"/>
      <point x="485.541" y="63"/>
      <point x="590" y="134.941"/>
      <point x="590" y="283" type="curve" smooth="yes"/>
      <point x="590" y="459.429"/>
      <point x="451" y="553.422"/>
      <point x="316" y="530" type="curve"/>
    </contour>
  </outline>
</glyph>
<glyph name="four" format="1">
  <advance width="867"/>
  <unicode hex="0034"/>
  <outline>
    <contour>
      <point x="352" y="532" type="curve" smooth="yes"/>
      <point x="162" y="353" type="line"/>
      <point x="508" y="360" type="line"/>
      <point x="529" y="585" type="line"/>
      <point x="699" y="702" type="line"/>
      <point x="655" y="365" type="line"/>
      <point x="850" y="369" type="line"/>
      <point x="817" y="233" type="line"/>
      <point x="646" y="241" type="line"/>
      <point x="627" y="14" type="line"/>
      <point x="469" y="-12" type="line"/>
      <point x="500" y="246" type="line"/>
      <point x="32" y="267" type="line"/>
      <point x="17" y="323" type="line"/>
      <point x="206" y="510" type="line" smooth="yes"/>
      <point x="382.394" y="684.527"/>
      <point x="575.451" y="859.043"/>
      <point x="571" y="1184" type="curve"/>
      <point x="672.047" y="1202.37"/>
      <point x="745" y="1137.75"/>
      <point x="745" y="1046" type="curve" smooth="yes"/>
      <point x="745" y="908"/>
      <point x="535.337" y="706.425"/>
    </contour>
  </outline>
</glyph>
<glyph name="five" format="1">
  <advance width="835"/>
  <unicode hex="0035"/>
  <outline>
    <contour>
      <point x="818" y="1092" type="line"/>
      <point x="809" y="998"/>
      <point x="742" y="951"/>
      <point x="617" y="951" type="curve" smooth="yes"/>
      <point x="560" y="951"/>
      <point x="502" y="954"/>
      <point x="445" y="962" type="curve" smooth="yes"/>
      <point x="388" y="970"/>
      <point x="357" y="973"/>
      <point x="352" y="973" type="curve"/>
      <point x="299" y="750" type="line"/>
      <point x="307" y="747" type="line"/>
      <point x="313" y="747"/>
      <point x="316" y="747"/>
      <point x="320" y="748" type="curve"/>
      <point x="336" y="748" type="line" smooth="yes"/>
      <point x="452" y="748"/>
      <point x="549" y="712"/>
      <point x="627" y="641" type="curve"/>
      <point x="703" y="567"/>
      <point x="741" y="480"/>
      <point x="742" y="380" type="curve" smooth="yes"/>
      <point x="742" y="281"/>
      <point x="710" y="192"/>
      <point x="647" y="114" type="curve" smooth="yes"/>
      <point x="600" y="57"/>
      <point x="541" y="17"/>
      <point x="469" y="-5" type="curve"/>
      <point x="422" y="-23"/>
      <point x="378" y="-31"/>
      <point x="339" y="-31" type="curve" smooth="yes"/>
      <point x="300" y="-31"/>
      <point x="279" y="-31"/>
      <point x="273" y="-30" type="curve"/>
      <point x="211" y="-26"/>
      <point x="157" y="-11"/>
      <point x="112" y="18" type="curve"/>
      <point x="49" y="57"/>
      <point x="18" y="112"/>
      <point x="17" y="184" type="curve" smooth="yes"/>
      <point x="17" y="188"/>
      <point x="18" y="198"/>
      <point x="21" y="216" type="curve"/>
      <point x="29" y="247"/>
      <point x="44" y="277"/>
      <point x="68" y="303" type="curve" smooth="yes"/>
      <point x="92" y="329"/>
      <point x="124" y="343"/>
      <point x="164" y="346" type="curve"/>
      <point x="166" y="336"/>
      <point x="170" y="310"/>
      <point x="180" y="269" type="curve"/>
      <point x="213" y="161"/>
      <point x="272" y="99"/>
      <point x="358" y="81" type="curve"/>
      <point x="381" y="79"/>
      <point x="393" y="78"/>
      <point x="395" y="78" type="curve" smooth="yes"/>
      <point x="435" y="78"/>
      <point x="472" y="89"/>
      <point x="508" y="111" type="curve" smooth="yes"/>
      <point x="544" y="133"/>
      <point x="566" y="160"/>
      <point x="575" y="193" type="curve" smooth="yes"/>
      <point x="584" y="226"/>
      <point x="588" y="250"/>
      <point x="588" y="267" type="curve" smooth="yes"/>
      <point x="588" y="284"/>
      <point x="588" y="298"/>
      <point x="586" y="311" type="curve" smooth="yes"/>
      <point x="584" y="324"/>
      <point x="577" y="348"/>
      <point x="562" y="383" type="curve"/>
      <point x="539" y="441"/>
      <point x="505" y="488"/>
      <point x="460" y="524" type="curve" smooth="yes"/>
      <point x="415" y="560"/>
      <point x="364" y="582"/>
      <point x="307" y="592" type="curve"/>
      <point x="274" y="599"/>
      <point x="241" y="602"/>
      <point x="208" y="602" type="curve"/>
      <point x="185" y="620" type="line"/>
      <point x="320" y="1115" type="line"/>
      <point x="336" y="1113"/>
      <point x="372" y="1113"/>
      <point x="427" y="1113" type="curve" smooth="yes"/>
      <point x="578" y="1113"/>
      <point x="705" y="1129"/>
      <point x="808" y="1160" type="curve"/>
      <point x="815" y="1140"/>
      <point x="818" y="1121"/>
      <point x="818" y="1104" type="curve" smooth="yes"/>
    </contour>
  </outline>
</glyph>
<glyph name="six" format="1">
  <advance width="798"/>
  <unicode hex="0036"/>
  <outline>
    <contour>
      <point x="189" y="423" type="curve" smooth="yes"/>
      <point x="189" y="388" type="line"/>
      <point x="195" y="264"/>
      <point x="219" y="178"/>
      <point x="263" y="129" type="curve"/>
      <point x="297" y="89"/>
      <point x="334" y="69"/>
      <point x="375" y="70" type="curve" smooth="yes"/>
      <point x="377" y="70"/>
      <point x="380" y="70"/>
      <point x="384" y="72" type="curve"/>
      <point x="391" y="72" type="line"/>
      <point x="418" y="76"/>
      <point x="443" y="86"/>
      <point x="466" y="104" type="curve" smooth="yes"/>
      <point x="510" y="144"/>
      <point x="537" y="213"/>
      <point x="547" y="310" type="curve" smooth="yes"/>
      <point x="551" y="334"/>
      <point x="552" y="359"/>
      <point x="551" y="385" type="curve" smooth="yes"/>
      <point x="551" y="434"/>
      <point x="542" y="477"/>
      <point x="524" y="514" type="curve"/>
      <point x="515" y="534"/>
      <point x="501" y="551"/>
      <point x="481" y="566" type="curve"/>
      <point x="450" y="589"/>
      <point x="415" y="600"/>
      <point x="376" y="601" type="curve" smooth="yes"/>
      <point x="337" y="602"/>
      <point x="300" y="596"/>
      <point x="266" y="584" type="curve" smooth="yes"/>
      <point x="232" y="572"/>
      <point x="208" y="556"/>
      <point x="194" y="534" type="curve"/>
      <point x="190" y="498"/>
      <point x="189" y="461"/>
    </contour>
    <contour>
      <point x="75" y="675" type="curve" smooth="yes"/>
      <point x="144" y="866"/>
      <point x="254" y="1009"/>
      <point x="405" y="1104" type="curve"/>
      <point x="472" y="1145"/>
      <point x="534" y="1165"/>
      <point x="589" y="1164" type="curve" smooth="yes"/>
      <point x="641" y="1164"/>
      <point x="683" y="1151"/>
      <point x="716" y="1124" type="curve" smooth="yes"/>
      <point x="759" y="1087"/>
      <point x="781" y="1044"/>
      <point x="780" y="995" type="curve" smooth="yes"/>
      <point x="780" y="966"/>
      <point x="773" y="938"/>
      <point x="757" y="912" type="curve" smooth="yes"/>
      <point x="741" y="886"/>
      <point x="718" y="866"/>
      <point x="686" y="853" type="curve"/>
      <point x="659" y="922"/>
      <point x="620" y="972"/>
      <point x="571" y="1003" type="curve" smooth="yes"/>
      <point x="548" y="1017"/>
      <point x="526" y="1025"/>
      <point x="503" y="1029" type="curve"/>
      <point x="487" y="1029" type="line" smooth="yes"/>
      <point x="428" y="1029"/>
      <point x="378" y="1001"/>
      <point x="336" y="945" type="curve" smooth="yes"/>
      <point x="294" y="889"/>
      <point x="263" y="825"/>
      <point x="242" y="752" type="curve" smooth="yes"/>
      <point x="221" y="679"/>
      <point x="209" y="630"/>
      <point x="205" y="604" type="curve"/>
      <point x="234" y="642"/>
      <point x="271" y="670"/>
      <point x="318" y="690" type="curve" smooth="yes"/>
      <point x="365" y="710"/>
      <point x="413" y="718"/>
      <point x="463" y="717" type="curve" smooth="yes"/>
      <point x="513" y="716"/>
      <point x="557" y="705"/>
      <point x="595" y="682" type="curve" smooth="yes"/>
      <point x="633" y="659"/>
      <point x="663" y="630"/>
      <point x="684" y="594" type="curve" smooth="yes"/>
      <point x="705" y="558"/>
      <point x="716" y="523"/>
      <point x="720" y="487" type="curve" smooth="yes"/>
      <point x="724" y="451"/>
      <point x="726" y="432"/>
      <point x="726" y="427" type="curve" smooth="yes"/>
      <point x="726" y="372"/>
      <point x="713" y="312"/>
      <point x="687" y="249" type="curve" smooth="yes"/>
      <point x="661" y="186"/>
      <point x="625" y="134"/>
      <point x="579" y="91" type="curve"/>
      <point x="500" y="20"/>
      <point x="416" y="-15"/>
      <point x="327" y="-16" type="curve" smooth="yes"/>
      <point x="311" y="-16"/>
      <point x="301" y="-16"/>
      <point x="296" y="-14" type="curve"/>
      <point x="189" y="-5"/>
      <point x="109" y="52"/>
      <point x="56" y="158" type="curve"/>
      <point x="31" y="213"/>
      <point x="19" y="275"/>
      <point x="18" y="344" type="curve" smooth="yes"/>
      <point x="18" y="372"/>
      <point x="18" y="390"/>
      <point x="20" y="398" type="curve"/>
      <point x="26" y="497"/>
      <point x="44" y="590"/>
    </contour>
  </outline>
</glyph>
<glyph name="seven" format="1">
  <advance width="858"/>
  <unicode hex="0037"/>
  <outline>
    <contour>
      <point x="420" y="537" type="curve" smooth="yes"/>
      <point x="381" y="454"/>
      <point x="362" y="369"/>
      <point x="362" y="282" type="curve" smooth="yes"/>
      <point x="362" y="195"/>
      <point x="393" y="117"/>
      <point x="455" y="49" type="curve"/>
      <point x="437" y="26"/>
      <point x="412" y="9"/>
      <point x="378" y="-3" type="curve"/>
      <point x="368" y="-8"/>
      <point x="355" y="-10"/>
      <point x="339" y="-10" type="curve" smooth="yes"/>
      <point x="323" y="-10"/>
      <point x="303" y="-6"/>
      <point x="277" y="2" type="curve" smooth="yes"/>
      <point x="251" y="10"/>
      <point x="226" y="28"/>
      <point x="203" y="58" type="curve" smooth="yes"/>
      <point x="180" y="88"/>
      <point x="168" y="120"/>
      <point x="164" y="153" type="curve" smooth="yes"/>
      <point x="160" y="186"/>
      <point x="158" y="210"/>
      <point x="158" y="228" type="curve" smooth="yes"/>
      <point x="158" y="269"/>
      <point x="180" y="335"/>
      <point x="223" y="427" type="curve"/>
      <point x="269" y="515"/>
      <point x="338" y="619"/>
      <point x="430" y="738" type="curve" smooth="yes"/>
      <point x="650" y="1022" type="line"/>
      <point x="534" y="1018"/>
      <point x="427" y="1013"/>
      <point x="328" y="1005" type="curve" smooth="yes"/>
      <point x="229" y="997"/>
      <point x="173" y="993"/>
      <point x="158" y="990" type="curve"/>
      <point x="92" y="830" type="line"/>
      <point x="17" y="851" type="line"/>
      <point x="51" y="1142" type="line"/>
      <point x="67" y="1144"/>
      <point x="124" y="1147"/>
      <point x="226" y="1153" type="curve" smooth="yes"/>
      <point x="328" y="1159"/>
      <point x="415" y="1161"/>
      <point x="486" y="1161" type="curve"/>
      <point x="841" y="1148" type="line"/>
      <point x="838" y="1090" type="line"/>
      <point x="604" y="812" type="line" smooth="yes"/>
      <point x="520" y="711"/>
      <point x="459" y="619"/>
    </contour>
  </outline>
</glyph>
<glyph name="eight" format="1">
  <advance width="749"/>
  <unicode hex="0038"/>
  <outline>
    <contour>
      <point x="480" y="653" type="curve"/>
      <point x="541" y="707"/>
      <point x="571" y="783"/>
      <point x="570" y="882" type="curve" smooth="yes"/>
      <point x="570" y="935"/>
      <point x="562" y="978"/>
      <point x="544" y="1012" type="curve" smooth="yes"/>
      <point x="526" y="1046"/>
      <point x="506" y="1068"/>
      <point x="484" y="1077" type="curve" smooth="yes"/>
      <point x="462" y="1086"/>
      <point x="444" y="1090"/>
      <point x="428" y="1090" type="curve"/>
      <point x="407" y="1089" type="line"/>
      <point x="384" y="1085"/>
      <point x="364" y="1076"/>
      <point x="346" y="1059" type="curve" smooth="yes"/>
      <point x="328" y="1042"/>
      <point x="317" y="1021"/>
      <point x="310" y="997" type="curve" smooth="yes"/>
      <point x="303" y="973"/>
      <point x="300" y="955"/>
      <point x="300" y="941" type="curve" smooth="yes"/>
      <point x="300" y="931" type="line"/>
      <point x="304" y="878"/>
      <point x="326" y="826"/>
      <point x="368" y="775" type="curve" smooth="yes"/>
      <point x="402" y="733"/>
      <point x="439" y="692"/>
    </contour>
    <contour>
      <point x="255" y="618" type="line"/>
      <point x="182" y="701"/>
      <point x="146" y="783"/>
      <point x="145" y="864" type="curve" smooth="yes"/>
      <point x="145" y="878"/>
      <point x="145" y="886"/>
      <point x="146" y="890" type="curve"/>
      <point x="157" y="981"/>
      <point x="208" y="1056"/>
      <point x="300" y="1117" type="curve"/>
      <point x="362" y="1156"/>
      <point x="426" y="1175"/>
      <point x="493" y="1175" type="curve" smooth="yes"/>
      <point x="560" y="1175"/>
      <point x="617" y="1152"/>
      <point x="663" y="1106" type="curve" smooth="yes"/>
      <point x="709" y="1060"/>
      <point x="731" y="1005"/>
      <point x="731" y="941" type="curve" smooth="yes"/>
      <point x="731" y="925"/>
      <point x="731" y="915"/>
      <point x="730" y="911" type="curve"/>
      <point x="724" y="852"/>
      <point x="702" y="795"/>
      <point x="662" y="740" type="curve" smooth="yes"/>
      <point x="622" y="685"/>
      <point x="577" y="641"/>
      <point x="526" y="608" type="curve"/>
      <point x="587" y="547"/>
      <point x="631" y="492"/>
      <point x="656" y="443" type="curve" smooth="yes"/>
      <point x="681" y="394"/>
      <point x="694" y="345"/>
      <point x="694" y="296" type="curve" smooth="yes"/>
      <point x="694" y="280"/>
      <point x="694" y="270"/>
      <point x="692" y="265" type="curve"/>
      <point x="688" y="229"/>
      <point x="678" y="194"/>
      <point x="658" y="160" type="curve" smooth="yes"/>
      <point x="638" y="126"/>
      <point x="613" y="98"/>
      <point x="582" y="75" type="curve"/>
      <point x="527" y="30"/>
      <point x="459" y="-1"/>
      <point x="378" y="-18" type="curve" smooth="yes"/>
      <point x="351" y="-24"/>
      <point x="322" y="-26"/>
      <point x="291" y="-26" type="curve" smooth="yes"/>
      <point x="179" y="-26"/>
      <point x="98" y="16"/>
      <point x="48" y="99" type="curve"/>
      <point x="27" y="132"/>
      <point x="17" y="171"/>
      <point x="17" y="216" type="curve" smooth="yes"/>
      <point x="17" y="232"/>
      <point x="17" y="240"/>
      <point x="19" y="242" type="curve"/>
      <point x="23" y="287"/>
      <point x="35" y="327"/>
      <point x="56" y="363" type="curve" smooth="yes"/>
      <point x="77" y="398"/>
      <point x="110" y="441"/>
      <point x="155" y="492" type="curve"/>
      <point x="198" y="535"/>
      <point x="237" y="570"/>
      <point x="273" y="599" type="curve"/>
    </contour>
    <contour>
      <point x="316" y="557" type="curve"/>
      <point x="234" y="465"/>
      <point x="192" y="375"/>
      <point x="190" y="286" type="curve"/>
      <point x="190" y="269" type="line" smooth="yes"/>
      <point x="190" y="186"/>
      <point x="219" y="126"/>
      <point x="278" y="89" type="curve" smooth="yes"/>
      <point x="304" y="72"/>
      <point x="331" y="63"/>
      <point x="360" y="61" type="curve"/>
      <point x="364" y="61" type="line" smooth="yes"/>
      <point x="411" y="61"/>
      <point x="449" y="77"/>
      <point x="480" y="110" type="curve" smooth="yes"/>
      <point x="511" y="143"/>
      <point x="526" y="189"/>
      <point x="526" y="246" type="curve" smooth="yes"/>
      <point x="526" y="303"/>
      <point x="495" y="367"/>
      <point x="434" y="437" type="curve" smooth="yes"/>
      <point x="418" y="458"/>
      <point x="379" y="498"/>
    </contour>
  </outline>
</glyph>
<glyph name="nine" format="1">
  <advance width="741"/>
  <unicode hex="0039"/>
  <outline>
    <contour>
      <point x="358" y="1090" type="curve" smooth="yes"/>
      <point x="259" y="1090"/>
      <point x="204" y="1003"/>
      <point x="190" y="830" type="curve"/>
      <point x="190" y="812" type="line"/>
      <point x="188" y="806"/>
      <point x="188" y="801"/>
      <point x="188" y="794" type="curve" smooth="yes"/>
      <point x="188" y="682"/>
      <point x="221" y="609"/>
      <point x="288" y="574" type="curve" smooth="yes"/>
      <point x="313" y="561"/>
      <point x="340" y="555"/>
      <point x="369" y="555" type="curve" smooth="yes"/>
      <point x="373" y="555"/>
      <point x="388" y="557"/>
      <point x="415" y="561" type="curve" smooth="yes"/>
      <point x="442" y="565"/>
      <point x="466" y="571"/>
      <point x="489" y="583" type="curve" smooth="yes"/>
      <point x="512" y="595"/>
      <point x="527" y="602"/>
      <point x="535" y="609" type="curve" smooth="yes"/>
      <point x="543" y="616"/>
      <point x="550" y="624"/>
      <point x="559" y="636" type="curve"/>
      <point x="559" y="681" type="line" smooth="yes"/>
      <point x="559" y="782"/>
      <point x="548" y="866"/>
      <point x="526" y="933" type="curve" smooth="yes"/>
      <point x="493" y="1038"/>
      <point x="437" y="1090"/>
    </contour>
    <contour>
      <point x="723" y="739" type="line" smooth="yes"/>
      <point x="723" y="632"/>
      <point x="711" y="534"/>
      <point x="686" y="445" type="curve" smooth="yes"/>
      <point x="661" y="356"/>
      <point x="617" y="270"/>
      <point x="555" y="188" type="curve"/>
      <point x="450" y="53"/>
      <point x="338" y="-14"/>
      <point x="220" y="-14" type="curve" smooth="yes"/>
      <point x="213" y="-14" type="line" smooth="yes"/>
      <point x="179" y="-14"/>
      <point x="147" y="-7"/>
      <point x="117" y="6" type="curve" smooth="yes"/>
      <point x="87" y="19"/>
      <point x="64" y="38"/>
      <point x="45" y="64" type="curve" smooth="yes"/>
      <point x="26" y="90"/>
      <point x="17" y="120"/>
      <point x="17" y="153" type="curve" smooth="yes"/>
      <point x="17" y="157"/>
      <point x="18" y="166"/>
      <point x="21" y="184" type="curve"/>
      <point x="33" y="229"/>
      <point x="59" y="263"/>
      <point x="100" y="284" type="curve"/>
      <point x="120" y="248"/>
      <point x="146" y="217"/>
      <point x="177" y="191" type="curve"/>
      <point x="227" y="157"/>
      <point x="270" y="140"/>
      <point x="307" y="141" type="curve" smooth="yes"/>
      <point x="321" y="141"/>
      <point x="329" y="141"/>
      <point x="332" y="142" type="curve"/>
      <point x="393" y="148"/>
      <point x="442" y="181"/>
      <point x="481" y="242" type="curve"/>
      <point x="509" y="289"/>
      <point x="529" y="357"/>
      <point x="543" y="448" type="curve" smooth="yes"/>
      <point x="544" y="452"/>
      <point x="547" y="488"/>
      <point x="554" y="557" type="curve"/>
      <point x="529" y="522"/>
      <point x="496" y="494"/>
      <point x="454" y="472" type="curve" smooth="yes"/>
      <point x="412" y="450"/>
      <point x="369" y="438"/>
      <point x="326" y="434" type="curve"/>
      <point x="321" y="432"/>
      <point x="306" y="432"/>
      <point x="278" y="432" type="curve" smooth="yes"/>
      <point x="250" y="432"/>
      <point x="217" y="441"/>
      <point x="179" y="460" type="curve" smooth="yes"/>
      <point x="141" y="479"/>
      <point x="111" y="503"/>
      <point x="90" y="534" type="curve"/>
      <point x="54" y="583"/>
      <point x="36" y="647"/>
      <point x="37" y="726" type="curve" smooth="yes"/>
      <point x="37" y="827"/>
      <point x="64" y="920"/>
      <point x="118" y="1005" type="curve" smooth="yes"/>
      <point x="152" y="1057"/>
      <point x="193" y="1098"/>
      <point x="242" y="1130" type="curve" smooth="yes"/>
      <point x="291" y="1162"/>
      <point x="344" y="1178"/>
      <point x="401" y="1180" type="curve"/>
      <point x="410" y="1180" type="line" smooth="yes"/>
      <point x="462" y="1180"/>
      <point x="510" y="1167"/>
      <point x="553" y="1143" type="curve" smooth="yes"/>
      <point x="596" y="1119"/>
      <point x="631" y="1084"/>
      <point x="658" y="1039" type="curve"/>
      <point x="697" y="975"/>
      <point x="718" y="891"/>
      <point x="723" y="788" type="curve"/>
    </contour>
  </outline>
</glyph>
<glyph name="colon" format="1">
  <advance width="329"/>
  <unicode hex="003A"/>
  <outline>
    <contour>
      <point x="309.251" y="755" type="curve" smooth="yes"/>
      <point x="309.251" y="753"/>
      <point x="308.251" y="744"/>
      <point x="306.251" y="726" type="curve"/>
      <point x="298.251" y="695"/>
      <point x="284.251" y="672"/>
      <point x="264.251" y="653" type="curve" smooth="yes"/>
      <point x="244.251" y="634"/>
      <point x="221.251" y="625"/>
      <point x="195.251" y="625" type="curve" smooth="yes"/>
      <point x="169.251" y="625"/>
      <point x="148.251" y="632"/>
      <point x="135.251" y="646" type="curve" smooth="yes"/>
      <point x="122.251" y="660"/>
      <point x="115.251" y="676"/>
      <point x="111.251" y="696" type="curve"/>
      <point x="109.251" y="698"/>
      <point x="109.251" y="701"/>
      <point x="109.251" y="708" type="curve" smooth="yes"/>
      <point x="109.251" y="715"/>
      <point x="110.251" y="728"/>
      <point x="114.251" y="750" type="curve" smooth="yes"/>
      <point x="118.251" y="772"/>
      <point x="131.251" y="794"/>
      <point x="152.251" y="815" type="curve" smooth="yes"/>
      <point x="173.251" y="836"/>
      <point x="198.251" y="846"/>
      <point x="225.251" y="847" type="curve" smooth="yes"/>
      <point x="252.251" y="848"/>
      <point x="273.251" y="839"/>
      <point x="288.251" y="820" type="curve" smooth="yes"/>
      <point x="303.251" y="801"/>
      <point x="309.251" y="779"/>
    </contour>
    <contour>
      <point x="202.251" y="165" type="curve"/>
      <point x="215.251" y="147"/>
      <point x="220.251" y="132"/>
      <point x="221.251" y="120" type="curve" smooth="yes"/>
      <point x="222.251" y="108"/>
      <point x="221.251" y="95"/>
      <point x="218.251" y="77" type="curve"/>
      <point x="211.251" y="50"/>
      <point x="198.251" y="27"/>
      <point x="177.251" y="5" type="curve" smooth="yes"/>
      <point x="156.251" y="-17"/>
      <point x="131.251" y="-28"/>
      <point x="104.251" y="-28" type="curve"/>
      <point x="81.251" y="-26"/>
      <point x="62.251" y="-18"/>
      <point x="48.251" y="-3" type="curve"/>
      <point x="28.251" y="17"/>
      <point x="18.251" y="41"/>
      <point x="20.251" y="68" type="curve" smooth="yes"/>
      <point x="20.251" y="104"/>
      <point x="33.251" y="134"/>
      <point x="58.251" y="159" type="curve" smooth="yes"/>
      <point x="83.251" y="184"/>
      <point x="105.251" y="195"/>
      <point x="125.251" y="196" type="curve" smooth="yes"/>
      <point x="145.251" y="197"/>
      <point x="160.251" y="196"/>
      <point x="170.251" y="191" type="curve" smooth="yes"/>
      <point x="180.251" y="186"/>
      <point x="190.251" y="178"/>
    </contour>
  </outline>
</glyph>
<glyph name="semicolon" format="1">
  <advance width="410"/>
  <unicode hex="003B"/>
  <outline>
    <contour>
      <point x="127" y="181" type="curve"/>
      <point x="150" y="194"/>
      <point x="171" y="200"/>
      <point x="192" y="200" type="curve" smooth="yes"/>
      <point x="202" y="200" type="line"/>
      <point x="249" y="194"/>
      <point x="282" y="164"/>
      <point x="302" y="109" type="curve"/>
      <point x="311" y="82"/>
      <point x="315" y="63"/>
      <point x="316" y="51" type="curve" smooth="yes"/>
      <point x="317" y="39"/>
      <point x="314" y="18"/>
      <point x="310" y="-11" type="curve" smooth="yes"/>
      <point x="306" y="-40"/>
      <point x="292" y="-70"/>
      <point x="269" y="-103" type="curve" smooth="yes"/>
      <point x="221" y="-172"/>
      <point x="147" y="-231"/>
      <point x="48" y="-280" type="curve"/>
      <point x="19" y="-230" type="line"/>
      <point x="52" y="-210"/>
      <point x="74" y="-196"/>
      <point x="86" y="-187" type="curve" smooth="yes"/>
      <point x="98" y="-178"/>
      <point x="113" y="-160"/>
      <point x="134" y="-134" type="curve" smooth="yes"/>
      <point x="155" y="-108"/>
      <point x="166" y="-76"/>
      <point x="166" y="-40" type="curve" smooth="yes"/>
      <point x="166" y="-38"/>
      <point x="164" y="-28"/>
      <point x="160" y="-9" type="curve" smooth="yes"/>
      <point x="156" y="10"/>
      <point x="145" y="30"/>
      <point x="127" y="50" type="curve" smooth="yes"/>
      <point x="109" y="70"/>
      <point x="90" y="87"/>
      <point x="69" y="101" type="curve"/>
      <point x="77" y="133"/>
      <point x="96" y="160"/>
    </contour>
    <contour>
      <point x="371" y="815" type="curve"/>
      <point x="384" y="797"/>
      <point x="389" y="782"/>
      <point x="390" y="770" type="curve" smooth="yes"/>
      <point x="391" y="758"/>
      <point x="390" y="744"/>
      <point x="388" y="726" type="curve"/>
      <point x="380" y="695"/>
      <point x="367" y="672"/>
      <point x="347" y="653" type="curve" smooth="yes"/>
      <point x="327" y="634"/>
      <point x="305" y="625"/>
      <point x="278" y="625" type="curve" smooth="yes"/>
      <point x="251" y="625"/>
      <point x="232" y="632"/>
      <point x="218" y="646" type="curve" smooth="yes"/>
      <point x="198" y="667"/>
      <point x="188" y="691"/>
      <point x="189" y="719" type="curve" smooth="yes"/>
      <point x="189" y="754"/>
      <point x="201" y="785"/>
      <point x="226" y="810" type="curve" smooth="yes"/>
      <point x="251" y="835"/>
      <point x="274" y="846"/>
      <point x="294" y="847" type="curve" smooth="yes"/>
      <point x="314" y="848"/>
      <point x="328" y="846"/>
      <point x="338" y="841" type="curve" smooth="yes"/>
      <point x="348" y="836"/>
      <point x="359" y="829"/>
    </contour>
  </outline>
</glyph>
<glyph name="less" format="1">
  <advance width="693"/>
  <unicode hex="003C"/>
  <outline>
    <contour>
      <point x="17" y="419" type="line"/>
      <point x="24" y="446" type="line"/>
      <point x="632" y="952" type="line"/>
      <point x="676" y="883" type="line"/>
      <point x="252" y="446" type="line"/>
      <point x="555" y="-13" type="line"/>
      <point x="482" y="-81" type="line"/>
    </contour>
  </outline>
</glyph>
<glyph name="equal" format="1">
  <advance width="710"/>
  <unicode hex="003D"/>
  <outline>
    <contour>
      <point x="47" y="416" type="line"/>
      <point x="650" y="416" type="line"/>
      <point x="622" y="311" type="line"/>
      <point x="20" y="311" type="line"/>
    </contour>
    <contour>
      <point x="88" y="651" type="line"/>
      <point x="689" y="651" type="line"/>
      <point x="661" y="546" type="line"/>
      <point x="60" y="546" type="line"/>
    </contour>
  </outline>
</glyph>
<glyph name="greater" format="1">
  <advance width="711"/>
  <unicode hex="003E"/>
  <outline>
    <contour>
      <point x="691" y="419" type="line"/>
      <point x="67" y="-81" type="line"/>
      <point x="17" y="-13" type="line"/>
      <point x="462" y="446" type="line"/>
      <point x="177" y="883" type="line"/>
      <point x="243" y="952" type="line"/>
      <point x="693" y="446" type="line"/>
    </contour>
  </outline>
</glyph>
<glyph name="question" format="1">
  <advance width="585"/>
  <unicode hex="003F"/>
  <outline>
    <contour>
      <point x="188" y="206" type="curve" smooth="yes"/>
      <point x="200" y="200"/>
      <point x="210" y="192"/>
      <point x="220" y="178" type="curve" smooth="yes"/>
      <point x="230" y="164"/>
      <point x="235" y="154"/>
      <point x="238" y="143" type="curve" smooth="yes"/>
      <point x="241" y="132"/>
      <point x="242" y="125"/>
      <point x="242" y="120" type="curve" smooth="yes"/>
      <point x="242" y="115"/>
      <point x="240" y="100"/>
      <point x="234" y="73" type="curve" smooth="yes"/>
      <point x="228" y="46"/>
      <point x="214" y="22"/>
      <point x="191" y="-1" type="curve" smooth="yes"/>
      <point x="168" y="-24"/>
      <point x="141" y="-35"/>
      <point x="111" y="-35" type="curve"/>
      <point x="84" y="-33"/>
      <point x="64" y="-24"/>
      <point x="48" y="-8" type="curve" smooth="yes"/>
      <point x="32" y="8"/>
      <point x="24" y="24"/>
      <point x="21" y="42" type="curve" smooth="yes"/>
      <point x="18" y="60"/>
      <point x="17" y="68"/>
      <point x="17" y="71" type="curve" smooth="yes"/>
      <point x="17" y="74"/>
      <point x="19" y="86"/>
      <point x="24" y="108" type="curve" smooth="yes"/>
      <point x="29" y="130"/>
      <point x="41" y="153"/>
      <point x="64" y="176" type="curve" smooth="yes"/>
      <point x="87" y="199"/>
      <point x="110" y="211"/>
      <point x="134" y="212" type="curve" smooth="yes"/>
      <point x="158" y="213"/>
      <point x="176" y="212"/>
    </contour>
    <contour>
      <point x="96" y="504" type="curve"/>
      <point x="91" y="555" type="line"/>
      <point x="91" y="595"/>
      <point x="102" y="631"/>
      <point x="125" y="662" type="curve" smooth="yes"/>
      <point x="148" y="693"/>
      <point x="171" y="715"/>
      <point x="194" y="730" type="curve" smooth="yes"/>
      <point x="217" y="745"/>
      <point x="247" y="759"/>
      <point x="285" y="775" type="curve" smooth="yes"/>
      <point x="323" y="791"/>
      <point x="351" y="804"/>
      <point x="370" y="816" type="curve" smooth="yes"/>
      <point x="389" y="828"/>
      <point x="407" y="844"/>
      <point x="427" y="866" type="curve" smooth="yes"/>
      <point x="447" y="888"/>
      <point x="457" y="913"/>
      <point x="460" y="941" type="curve" smooth="yes"/>
      <point x="460" y="945"/>
      <point x="460" y="947"/>
      <point x="461" y="951" type="curve"/>
      <point x="461" y="959" type="line" smooth="yes"/>
      <point x="461" y="1012"/>
      <point x="437" y="1057"/>
      <point x="388" y="1092" type="curve"/>
      <point x="368" y="1105"/>
      <point x="352" y="1112"/>
      <point x="338" y="1114" type="curve" smooth="yes"/>
      <point x="324" y="1116"/>
      <point x="318" y="1117"/>
      <point x="317" y="1118" type="curve"/>
      <point x="308" y="1118" type="line" smooth="yes"/>
      <point x="273" y="1118"/>
      <point x="237" y="1110"/>
      <point x="200" y="1093" type="curve" smooth="yes"/>
      <point x="163" y="1076"/>
      <point x="136" y="1061"/>
      <point x="119" y="1045" type="curve"/>
      <point x="108" y="1050"/>
      <point x="99" y="1057"/>
      <point x="90" y="1069" type="curve"/>
      <point x="72" y="1089"/>
      <point x="64" y="1107"/>
      <point x="64" y="1125" type="curve" smooth="yes"/>
      <point x="64" y="1143"/>
      <point x="64" y="1153"/>
      <point x="66" y="1156" type="curve"/>
      <point x="74" y="1204"/>
      <point x="105" y="1242"/>
      <point x="159" y="1269" type="curve" smooth="yes"/>
      <point x="191" y="1285"/>
      <point x="225" y="1292"/>
      <point x="261" y="1292" type="curve" smooth="yes"/>
      <point x="282" y="1292" type="line"/>
      <point x="341" y="1288"/>
      <point x="393" y="1269"/>
      <point x="437" y="1234" type="curve" smooth="yes"/>
      <point x="481" y="1199"/>
      <point x="514" y="1154"/>
      <point x="535" y="1101" type="curve" smooth="yes"/>
      <point x="556" y="1048"/>
      <point x="567" y="1000"/>
      <point x="567" y="957" type="curve" smooth="yes"/>
      <point x="567" y="914"/>
      <point x="565" y="884"/>
      <point x="560" y="864" type="curve" smooth="yes"/>
      <point x="547" y="801"/>
      <point x="514" y="746"/>
      <point x="460" y="699" type="curve"/>
      <point x="425" y="669"/>
      <point x="382" y="646"/>
      <point x="333" y="628" type="curve"/>
      <point x="298" y="614"/>
      <point x="277" y="604"/>
      <point x="267" y="594" type="curve" smooth="yes"/>
      <point x="257" y="584"/>
      <point x="247" y="574"/>
      <point x="237" y="562" type="curve" smooth="yes"/>
      <point x="219" y="543"/>
      <point x="211" y="513"/>
      <point x="210" y="472" type="curve" smooth="yes"/>
      <point x="210" y="464"/>
      <point x="210" y="457"/>
      <point x="212" y="451" type="curve"/>
      <point x="212" y="430" type="line" smooth="yes"/>
      <point x="212" y="428"/>
      <point x="213" y="414"/>
      <point x="217" y="385" type="curve"/>
      <point x="139" y="369" type="line"/>
      <point x="116" y="428"/>
      <point x="102" y="473"/>
    </contour>
  </outline>
</glyph>
<glyph name="at" format="1">
  <advance width="1298"/>
  <unicode hex="0040"/>
  <outline>
    <contour>
      <point x="773.022" y="602" type="curve"/>
      <point x="732.022" y="663"/>
      <point x="691.022" y="693"/>
      <point x="650.022" y="693" type="curve" smooth="yes"/>
      <point x="643.022" y="693" type="line" smooth="yes"/>
      <point x="623.022" y="693"/>
      <point x="604.022" y="687"/>
      <point x="583.022" y="673" type="curve" smooth="yes"/>
      <point x="562.022" y="659"/>
      <point x="547.022" y="644"/>
      <point x="536.022" y="625" type="curve"/>
      <point x="519.022" y="600"/>
      <point x="503.022" y="553"/>
      <point x="487.022" y="485" type="curve" smooth="yes"/>
      <point x="471.022" y="417"/>
      <point x="464.022" y="363"/>
      <point x="464.022" y="320" type="curve" smooth="yes"/>
      <point x="464.022" y="307" type="line" smooth="yes"/>
      <point x="464.022" y="284"/>
      <point x="465.022" y="263"/>
      <point x="468.022" y="244" type="curve" smooth="yes"/>
      <point x="471.022" y="225"/>
      <point x="474.022" y="214"/>
      <point x="476.022" y="210" type="curve" smooth="yes"/>
      <point x="478.022" y="206"/>
      <point x="480.022" y="203"/>
      <point x="484.022" y="199" type="curve" smooth="yes"/>
      <point x="488.022" y="195"/>
      <point x="489.022" y="194"/>
      <point x="490.022" y="193" type="curve" smooth="yes"/>
      <point x="491.022" y="192"/>
      <point x="493.022" y="191"/>
      <point x="497.022" y="188" type="curve" smooth="yes"/>
      <point x="502.022" y="183"/>
      <point x="510.022" y="181"/>
      <point x="522.022" y="181" type="curve" smooth="yes"/>
      <point x="534.022" y="181"/>
      <point x="548.022" y="186"/>
      <point x="564.022" y="198" type="curve" smooth="yes"/>
      <point x="580.022" y="210"/>
      <point x="598.022" y="228"/>
      <point x="619.022" y="253" type="curve" smooth="yes"/>
      <point x="640.022" y="278"/>
      <point x="668.022" y="326"/>
      <point x="703.022" y="398" type="curve" smooth="yes"/>
      <point x="738.022" y="470"/>
      <point x="761.022" y="538"/>
    </contour>
    <contour>
      <point x="712.022" y="83" type="curve" smooth="yes"/>
      <point x="700.022" y="98"/>
      <point x="695.022" y="124"/>
      <point x="695.022" y="159" type="curve" smooth="yes"/>
      <point x="695.022" y="194"/>
      <point x="705.022" y="242"/>
      <point x="725.022" y="305" type="curve"/>
      <point x="713.022" y="307" type="line"/>
      <point x="688.022" y="254"/>
      <point x="664.022" y="211"/>
      <point x="640.022" y="177" type="curve" smooth="yes"/>
      <point x="616.022" y="143"/>
      <point x="587.022" y="115"/>
      <point x="554.022" y="93" type="curve" smooth="yes"/>
      <point x="521.022" y="71"/>
      <point x="487.022" y="60"/>
      <point x="453.022" y="60" type="curve" smooth="yes"/>
      <point x="419.022" y="60"/>
      <point x="390.022" y="74"/>
      <point x="366.022" y="104" type="curve" smooth="yes"/>
      <point x="342.022" y="134"/>
      <point x="330.022" y="167"/>
      <point x="326.022" y="204" type="curve"/>
      <point x="324.022" y="210"/>
      <point x="324.022" y="224"/>
      <point x="324.022" y="249" type="curve" smooth="yes"/>
      <point x="324.022" y="274"/>
      <point x="331.022" y="323"/>
      <point x="347.022" y="395" type="curve" smooth="yes"/>
      <point x="377.022" y="532"/>
      <point x="445.022" y="646"/>
      <point x="552.022" y="738" type="curve"/>
      <point x="597.022" y="773"/>
      <point x="638.022" y="790"/>
      <point x="676.022" y="790" type="curve" smooth="yes"/>
      <point x="714.022" y="790"/>
      <point x="750.022" y="771"/>
      <point x="785.022" y="733" type="curve"/>
      <point x="799.022" y="731" type="line"/>
      <point x="805.022" y="802" type="line"/>
      <point x="824.022" y="809" type="line"/>
      <point x="929.022" y="778" type="line"/>
      <point x="868.022" y="463" type="line"/>
      <point x="853.022" y="356"/>
      <point x="846.022" y="301"/>
      <point x="844.022" y="296" type="curve"/>
      <point x="841.022" y="253" type="line" smooth="yes"/>
      <point x="839.022" y="218"/>
      <point x="838.022" y="201"/>
      <point x="838.022" y="199" type="curve" smooth="yes"/>
      <point x="838.022" y="188" type="line" smooth="yes"/>
      <point x="838.022" y="184"/>
      <point x="839.022" y="181"/>
      <point x="844.022" y="176" type="curve" smooth="yes"/>
      <point x="849.022" y="171"/>
      <point x="853.022" y="168"/>
      <point x="858.022" y="168" type="curve" smooth="yes"/>
      <point x="863.022" y="168"/>
      <point x="866.022" y="168"/>
      <point x="868.022" y="170" type="curve"/>
      <point x="876.022" y="170" type="line"/>
      <point x="892.022" y="172"/>
      <point x="903.022" y="173"/>
      <point x="909.022" y="175" type="curve" smooth="yes"/>
      <point x="915.022" y="177"/>
      <point x="921.022" y="177"/>
      <point x="928.022" y="179" type="curve" smooth="yes"/>
      <point x="935.022" y="181"/>
      <point x="939.022" y="182"/>
      <point x="941.022" y="183" type="curve" smooth="yes"/>
      <point x="943.022" y="184"/>
      <point x="946.022" y="185"/>
      <point x="952.022" y="187" type="curve" smooth="yes"/>
      <point x="958.022" y="189"/>
      <point x="962.022" y="190"/>
      <point x="965.022" y="192" type="curve" smooth="yes"/>
      <point x="968.022" y="194"/>
      <point x="971.022" y="196"/>
      <point x="976.022" y="199" type="curve" smooth="yes"/>
      <point x="981.022" y="202"/>
      <point x="985.022" y="204"/>
      <point x="989.022" y="208" type="curve" smooth="yes"/>
      <point x="993.022" y="212"/>
      <point x="997.022" y="214"/>
      <point x="1003.02" y="218" type="curve" smooth="yes"/>
      <point x="1056.02" y="262"/>
      <point x="1092.02" y="310"/>
      <point x="1113.02" y="362" type="curve" smooth="yes"/>
      <point x="1134.02" y="414"/>
      <point x="1144.02" y="478"/>
      <point x="1144.02" y="553" type="curve" smooth="yes"/>
      <point x="1145.02" y="720"/>
      <point x="1076.02" y="840"/>
      <point x="936.022" y="913" type="curve"/>
      <point x="869.022" y="946"/>
      <point x="798.022" y="962"/>
      <point x="721.022" y="961" type="curve" smooth="yes"/>
      <point x="616.022" y="961"/>
      <point x="520.022" y="932"/>
      <point x="435.022" y="876" type="curve" smooth="yes"/>
      <point x="350.022" y="820"/>
      <point x="285.022" y="745"/>
      <point x="242.022" y="651" type="curve"/>
      <point x="197.022" y="557"/>
      <point x="174.022" y="458"/>
      <point x="174.022" y="355" type="curve" smooth="yes"/>
      <point x="174.022" y="252"/>
      <point x="195.022" y="164"/>
      <point x="237.022" y="90" type="curve" smooth="yes"/>
      <point x="279.022" y="16"/>
      <point x="339.022" y="-39"/>
      <point x="416.022" y="-78" type="curve" smooth="yes"/>
      <point x="493.022" y="-117"/>
      <point x="579.022" y="-137"/>
      <point x="674.022" y="-137" type="curve" smooth="yes"/>
      <point x="695.022" y="-137" type="line"/>
      <point x="738.022" y="-136"/>
      <point x="786.022" y="-130"/>
      <point x="837.022" y="-117" type="curve" smooth="yes"/>
      <point x="888.022" y="-104"/>
      <point x="932.022" y="-88"/>
      <point x="970.022" y="-67" type="curve" smooth="yes"/>
      <point x="1014.02" y="-44"/>
      <point x="1041.02" y="-29"/>
      <point x="1051.02" y="-21" type="curve"/>
      <point x="1087.02" y="-75" type="line"/>
      <point x="1078.02" y="-80" type="line"/>
      <point x="1017.02" y="-139"/>
      <point x="946.022" y="-178"/>
      <point x="864.022" y="-199" type="curve" smooth="yes"/>
      <point x="782.022" y="-220"/>
      <point x="714.022" y="-230"/>
      <point x="660.022" y="-230" type="curve" smooth="yes"/>
      <point x="646.022" y="-230" type="line" smooth="yes"/>
      <point x="540.022" y="-230"/>
      <point x="439.022" y="-210"/>
      <point x="343.022" y="-170" type="curve" smooth="yes"/>
      <point x="247.022" y="-130"/>
      <point x="172.022" y="-72"/>
      <point x="115.022" y="3" type="curve"/>
      <point x="49.0225" y="93"/>
      <point x="16.0225" y="202"/>
      <point x="17.0225" y="331" type="curve" smooth="yes"/>
      <point x="18.0225" y="460"/>
      <point x="49.0225" y="581"/>
      <point x="112.022" y="692" type="curve" smooth="yes"/>
      <point x="175.022" y="803"/>
      <point x="263.022" y="890"/>
      <point x="374.022" y="955" type="curve" smooth="yes"/>
      <point x="485.022" y="1020"/>
      <point x="610.022" y="1052"/>
      <point x="747.022" y="1052" type="curve" smooth="yes"/>
      <point x="756.022" y="1052" type="line"/>
      <point x="854.022" y="1049"/>
      <point x="942.022" y="1029"/>
      <point x="1022.02" y="991" type="curve" smooth="yes"/>
      <point x="1102.02" y="953"/>
      <point x="1165.02" y="899"/>
      <point x="1211.02" y="828" type="curve" smooth="yes"/>
      <point x="1257.02" y="757"/>
      <point x="1279.02" y="679"/>
      <point x="1280.02" y="594" type="curve"/>
      <point x="1280.02" y="583" type="line" smooth="yes"/>
      <point x="1280.02" y="498"/>
      <point x="1259.02" y="416"/>
      <point x="1218.02" y="340" type="curve" smooth="yes"/>
      <point x="1177.02" y="264"/>
      <point x="1121.02" y="200"/>
      <point x="1049.02" y="148" type="curve" smooth="yes"/>
      <point x="977.022" y="96"/>
      <point x="900.022" y="64"/>
      <point x="818.022" y="52" type="curve"/>
      <point x="814.022" y="50"/>
      <point x="806.022" y="50"/>
      <point x="792.022" y="51" type="curve"/>
      <point x="759.022" y="54" type="line"/>
      <point x="739.022" y="59"/>
      <point x="724.022" y="68"/>
    </contour>
  </outline>
</glyph>
<glyph name="A" format="1">
  <advance width="1281"/>
  <unicode hex="0041"/>
  <outline>
    <contour>
      <point x="819" y="505" type="line"/>
      <point x="731" y="1062" type="line"/>
      <point x="727" y="1062" type="line"/>
      <point x="696" y="911"/>
      <point x="613" y="655"/>
      <point x="571" y="536" type="curve"/>
    </contour>
    <contour>
      <point x="875" y="1271" type="line"/>
      <point x="1083" y="132" type="line"/>
      <point x="1261" y="81" type="line"/>
      <point x="1238" y="0" type="line"/>
      <point x="662" y="0" type="line"/>
      <point x="685" y="72" type="line"/>
      <point x="883" y="108" type="line"/>
      <point x="831" y="432" type="line"/>
      <point x="540" y="446" type="line"/>
      <point x="507" y="310"/>
      <point x="362" y="-28"/>
      <point x="193" y="-28" type="curve" smooth="yes"/>
      <point x="110" y="-28"/>
      <point x="42" y="35"/>
      <point x="20" y="101" type="curve"/>
      <point x="413" y="253"/>
      <point x="591" y="765"/>
      <point x="695" y="1241" type="curve"/>
    </contour>
  </outline>
</glyph>
<glyph name="B" format="1">
  <advance width="1165"/>
  <unicode hex="0042"/>
  <outline>
    <contour>
      <point x="1143.15" y="385.872" type="curve" smooth="yes"/>
      <point x="1143.15" y="76.3551"/>
      <point x="797.295" y="-16.4266"/>
      <point x="510.456" y="-16.4266" type="curve" smooth="yes"/>
      <point x="415.395" y="-16.4266"/>
      <point x="320.898" y="-6.46212"/>
      <point x="236" y="10" type="curve"/>
      <point x="392" y="1121" type="line"/>
      <point x="158" y="1128" type="line"/>
      <point x="177" y="1205" type="line"/>
      <point x="355.321" y="1256.2"/>
      <point x="540.77" y="1280.67"/>
      <point x="700.103" y="1280.67" type="curve" smooth="yes"/>
      <point x="945.534" y="1280.67"/>
      <point x="1129" y="1184.23"/>
      <point x="1129" y="1005" type="curve" smooth="yes"/>
      <point x="1129" y="811.779"/>
      <point x="992.059" y="692.616"/>
      <point x="881" y="659" type="curve"/>
      <point x="881" y="643.478" type="line"/>
      <point x="1033.31" y="614.959"/>
      <point x="1143.15" y="536.459"/>
    </contour>
    <contour>
      <point x="500" y="595" type="line"/>
      <point x="437" y="121" type="line"/>
      <point x="500.067" y="105.605"/>
      <point x="557.456" y="97.9242"/>
      <point x="609.105" y="97.9242" type="curve" smooth="yes"/>
      <point x="825.318" y="97.9242"/>
      <point x="936" y="178.484"/>
      <point x="936" y="338" type="curve" smooth="yes"/>
      <point x="936" y="434.669"/>
      <point x="869.592" y="549.162"/>
      <point x="701" y="571.323" type="curve" smooth="yes"/>
    </contour>
    <contour>
      <point x="793.203" y="651.985" type="line"/>
      <point x="880.086" y="706.239"/>
      <point x="936" y="789.82"/>
      <point x="936" y="920" type="curve" smooth="yes"/>
      <point x="936" y="1099.16"/>
      <point x="760.891" y="1209.21"/>
      <point x="582" y="1194" type="curve"/>
      <point x="511" y="668" type="line"/>
    </contour>
  </outline>
</glyph>
<glyph name="C" format="1">
  <advance width="909"/>
  <unicode hex="0043"/>
  <outline>
    <contour>
      <point x="943" y="1246" type="curve"/>
      <point x="873" y="815" type="line"/>
      <point x="777" y="828" type="line"/>
      <point x="745" y="1101" type="line"/>
      <point x="696.441" y="1111.52"/>
      <point x="652.038" y="1116.58"/>
      <point x="611.541" y="1116.58" type="curve" smooth="yes"/>
      <point x="348.195" y="1116.58"/>
      <point x="250.01" y="902.444"/>
      <point x="248" y="581" type="curve" smooth="yes"/>
      <point x="248" y="343.886"/>
      <point x="309" y="135"/>
      <point x="475" y="135" type="curve" smooth="yes"/>
      <point x="597" y="135"/>
      <point x="794.557" y="244.913"/>
      <point x="881" y="370" type="curve"/>
      <point x="943" y="328" type="line"/>
      <point x="859.991" y="177.413"/>
      <point x="616.757" y="-30"/>
      <point x="388" y="-30" type="curve" smooth="yes"/>
      <point x="126" y="-30"/>
      <point x="20" y="237"/>
      <point x="20" y="496" type="curve" smooth="yes"/>
      <point x="20" y="862.006"/>
      <point x="324.072" y="1261.65"/>
      <point x="783.13" y="1261.65" type="curve" smooth="yes"/>
      <point x="834.546" y="1261.65"/>
      <point x="887.906" y="1256.64"/>
    </contour>
  </outline>
</glyph>
<glyph name="D" format="1">
  <advance width="1321"/>
  <unicode hex="0044"/>
  <outline>
    <contour>
      <point x="386" y="106" type="line"/>
      <point x="813.648" y="106"/>
      <point x="1072" y="262.977"/>
      <point x="1072" y="672" type="curve" smooth="yes"/>
      <point x="1072" y="987.994"/>
      <point x="841.69" y="1197.07"/>
      <point x="513" y="1171" type="curve"/>
    </contour>
    <contour>
      <point x="174" y="0" type="curve"/>
      <point x="316" y="1068" type="line"/>
      <point x="99" y="1105" type="line"/>
      <point x="120" y="1176" type="line"/>
      <point x="285.439" y="1235.56"/>
      <point x="485.565" y="1275.35"/>
      <point x="675.243" y="1275.35" type="curve" smooth="yes"/>
      <point x="991.052" y="1275.35"/>
      <point x="1275" y="1141.88"/>
      <point x="1275" y="752" type="curve" smooth="yes"/>
      <point x="1275" y="163.5"/>
      <point x="791.357" y="-33"/>
    </contour>
  </outline>
</glyph>
<glyph name="E" format="1">
  <advance width="1229"/>
  <unicode hex="0045"/>
  <outline>
    <contour>
      <point x="1070" y="0" type="curve"/>
      <point x="702" y="2"/>
      <point x="495" y="3"/>
      <point x="452" y="3" type="curve"/>
      <point x="20" y="-3" type="line"/>
      <point x="43" y="80" type="line"/>
      <point x="261" y="134" type="line"/>
      <point x="386" y="1094" type="line"/>
      <point x="159" y="1117" type="line"/>
      <point x="179" y="1192" type="line"/>
      <point x="257" y="1208"/>
      <point x="367" y="1220"/>
      <point x="512" y="1233" type="curve" smooth="yes"/>
      <point x="657" y="1246"/>
      <point x="790" y="1252"/>
      <point x="912" y="1252" type="curve"/>
      <point x="1209" y="1246" type="line"/>
      <point x="1129" y="835" type="line"/>
      <point x="1043" y="848" type="line"/>
      <point x="1011" y="1111" type="line"/>
      <point x="983" y="1117" type="line"/>
      <point x="888" y="1136"/>
      <point x="765" y="1145"/>
      <point x="614" y="1143" type="curve" smooth="yes"/>
      <point x="581" y="1143" type="line"/>
      <point x="526" y="680" type="line"/>
      <point x="981" y="714" type="line"/>
      <point x="947" y="569" type="line"/>
      <point x="514" y="578" type="line"/>
      <point x="452" y="98" type="line"/>
      <point x="669" y="108" type="line" smooth="yes"/>
      <point x="791" y="115"/>
      <point x="875" y="122"/>
      <point x="920" y="132" type="curve"/>
      <point x="943" y="169"/>
      <point x="969" y="222"/>
      <point x="1000" y="292" type="curve" smooth="yes"/>
      <point x="1031" y="362"/>
      <point x="1050" y="415"/>
      <point x="1060" y="451" type="curve"/>
      <point x="1147" y="440" type="line"/>
      <point x="1147" y="434" type="line" smooth="yes"/>
      <point x="1147" y="345"/>
      <point x="1140" y="262"/>
      <point x="1126" y="182" type="curve" smooth="yes"/>
      <point x="1112" y="102"/>
      <point x="1094" y="41"/>
    </contour>
  </outline>
</glyph>
<glyph name="F" format="1">
  <advance width="1229"/>
  <unicode hex="0046"/>
  <outline>
    <contour>
      <point x="912" y="1252" type="curve"/>
      <point x="1209" y="1246" type="line"/>
      <point x="1129" y="818" type="line"/>
      <point x="1034" y="832" type="line"/>
      <point x="1006" y="1102" type="line"/>
      <point x="974" y="1107" type="line"/>
      <point x="881" y="1123"/>
      <point x="771" y="1134"/>
      <point x="643" y="1142" type="curve"/>
      <point x="581" y="1143" type="line"/>
      <point x="526" y="637" type="line"/>
      <point x="981" y="670" type="line"/>
      <point x="947" y="519" type="line"/>
      <point x="512" y="537" type="line"/>
      <point x="458" y="109" type="line"/>
      <point x="708" y="80" type="line"/>
      <point x="688" y="-2" type="line"/>
      <point x="20" y="-2" type="line"/>
      <point x="43" y="80" type="line"/>
      <point x="261" y="134" type="line"/>
      <point x="386" y="1094" type="line"/>
      <point x="159" y="1117" type="line"/>
      <point x="179" y="1192" type="line"/>
      <point x="257" y="1208"/>
      <point x="368" y="1220"/>
      <point x="512" y="1233" type="curve" smooth="yes"/>
      <point x="656" y="1246"/>
      <point x="790" y="1252"/>
    </contour>
  </outline>
</glyph>
<glyph name="G" format="1">
  <advance width="1144"/>
  <unicode hex="0047"/>
  <outline>
    <contour>
      <point x="799.832" y="-32" type="line"/>
      <point x="824" y="161" type="line"/>
      <point x="843" y="340" type="line"/>
      <point x="826.34" y="340" type="line"/>
      <point x="732.606" y="138.418"/>
      <point x="597.241" y="-33"/>
      <point x="376" y="-33" type="curve" smooth="yes"/>
      <point x="144.532" y="-33"/>
      <point x="20" y="158.975"/>
      <point x="20" y="444" type="curve" smooth="yes"/>
      <point x="20" y="915.719"/>
      <point x="342.689" y="1263.74"/>
      <point x="845.451" y="1263.74" type="curve" smooth="yes"/>
      <point x="910.092" y="1263.74"/>
      <point x="977.709" y="1257.98"/>
      <point x="1048" y="1246" type="curve"/>
      <point x="968" y="835" type="line"/>
      <point x="882" y="848" type="line"/>
      <point x="850" y="1105" type="line"/>
      <point x="283" y="1228.7"/>
      <point x="249" y="771.492"/>
      <point x="249" y="532" type="curve" smooth="yes"/>
      <point x="249" y="290.371"/>
      <point x="309.469" y="107"/>
      <point x="440" y="107" type="curve" smooth="yes"/>
      <point x="566.451" y="107"/>
      <point x="744.221" y="268.291"/>
      <point x="820" y="448.108" type="curve"/>
      <point x="820" y="463" type="line"/>
      <point x="594" y="456" type="line"/>
      <point x="613" y="532" type="line"/>
      <point x="728.104" y="562.242"/>
      <point x="843.854" y="579.227"/>
      <point x="967.155" y="579.227" type="curve" smooth="yes"/>
      <point x="1018.15" y="579.227"/>
      <point x="1070.29" y="576.882"/>
      <point x="1124" y="572" type="curve"/>
      <point x="1104" y="497" type="line"/>
      <point x="989" y="465" type="line"/>
      <point x="968" y="299" type="line"/>
      <point x="986" y="23" type="line"/>
      <point x="983" y="6" type="line"/>
    </contour>
  </outline>
</glyph>
<glyph name="H" format="1">
  <advance width="1591"/>
  <unicode hex="0048"/>
  <outline>
    <contour>
      <point x="1160" y="1113" type="line"/>
      <point x="932" y="1122" type="line"/>
      <point x="950" y="1197" type="line"/>
      <point x="1107" y="1228"/>
      <point x="1264" y="1244"/>
      <point x="1419" y="1245" type="curve" smooth="yes"/>
      <point x="1471" y="1245"/>
      <point x="1522" y="1243"/>
      <point x="1571" y="1239" type="curve"/>
      <point x="1553" y="1163" type="line"/>
      <point x="1348" y="1109" type="line"/>
      <point x="1232" y="129" type="line"/>
      <point x="1443" y="81" type="line"/>
      <point x="1422" y="0" type="line"/>
      <point x="795" y="0" type="line"/>
      <point x="814" y="78" type="line"/>
      <point x="1036" y="113" type="line"/>
      <point x="1097" y="600" type="line"/>
      <point x="509" y="567" type="line"/>
      <point x="452" y="106" type="line"/>
      <point x="663" y="81" type="line"/>
      <point x="639" y="0" type="line"/>
      <point x="20" y="0" type="line"/>
      <point x="38" y="78" type="line"/>
      <point x="261" y="129" type="line"/>
      <point x="384" y="1090" type="line"/>
      <point x="158" y="1123" type="line"/>
      <point x="177" y="1199" type="line"/>
      <point x="285" y="1222"/>
      <point x="374" y="1235"/>
      <point x="440" y="1239" type="curve" smooth="yes"/>
      <point x="506" y="1243"/>
      <point x="568" y="1245"/>
      <point x="625" y="1245" type="curve" smooth="yes"/>
      <point x="682" y="1245"/>
      <point x="740" y="1243"/>
      <point x="798" y="1239" type="curve"/>
      <point x="778" y="1164" type="line"/>
      <point x="579" y="1142" type="line"/>
      <point x="524" y="680" type="line"/>
      <point x="1109" y="701" type="line"/>
    </contour>
  </outline>
</glyph>
<glyph name="I" format="1">
  <advance width="818"/>
  <unicode hex="0049"/>
  <outline>
    <contour>
      <point x="646" y="0" type="line"/>
      <point x="20" y="0" type="line"/>
      <point x="38" y="78" type="line"/>
      <point x="261" y="129" type="line"/>
      <point x="384" y="1090" type="line"/>
      <point x="158" y="1123" type="line"/>
      <point x="177" y="1199" type="line"/>
      <point x="325" y="1230"/>
      <point x="479" y="1246"/>
      <point x="641" y="1246" type="curve" smooth="yes"/>
      <point x="684" y="1246"/>
      <point x="736" y="1244"/>
      <point x="798" y="1239" type="curve"/>
      <point x="778" y="1164" type="line"/>
      <point x="579" y="1142" type="line"/>
      <point x="452" y="106" type="line"/>
      <point x="670" y="81" type="line"/>
    </contour>
  </outline>
</glyph>
<glyph name="J" format="1">
  <advance width="1022"/>
  <unicode hex="004A"/>
  <outline>
    <contour>
      <point x="212.446" y="-375" type="curve" smooth="yes"/>
      <point x="86.2021" y="-375"/>
      <point x="20" y="-297.298"/>
      <point x="20" y="-208.19" type="curve" smooth="yes"/>
      <point x="20" y="-163.189"/>
      <point x="36.8848" y="-115.28"/>
      <point x="71.4463" y="-73" type="curve"/>
      <point x="172.009" y="-147.868"/>
      <point x="260.088" y="-194"/>
      <point x="359.446" y="-194" type="curve" smooth="yes"/>
      <point x="390.06" y="-194"/>
      <point x="413.819" y="-180.699"/>
      <point x="424.446" y="-148" type="curve" smooth="yes"/>
      <point x="457.399" y="-28"/>
      <point x="500.446" y="302"/>
      <point x="533.446" y="589" type="curve" smooth="yes"/>
      <point x="590.446" y="1087" type="line"/>
      <point x="365.446" y="1117" type="line"/>
      <point x="381.446" y="1194" type="line"/>
      <point x="489.446" y="1220"/>
      <point x="602.446" y="1236"/>
      <point x="720.446" y="1243" type="curve"/>
      <point x="767.446" y="1247"/>
      <point x="815.446" y="1248"/>
      <point x="862.446" y="1248" type="curve" smooth="yes"/>
      <point x="909.446" y="1248"/>
      <point x="956.446" y="1247"/>
      <point x="1002.45" y="1243" type="curve"/>
      <point x="983.446" y="1166" type="line"/>
      <point x="788.446" y="1142" type="line"/>
      <point x="693.446" y="385" type="line" smooth="yes"/>
      <point x="672.446" y="214"/>
      <point x="623.6" y="-38.5771"/>
      <point x="547.95" y="-175" type="curve" smooth="yes"/>
      <point x="451.446" y="-328"/>
      <point x="336.253" y="-375"/>
    </contour>
  </outline>
</glyph>
<glyph name="K" format="1">
  <advance width="1189"/>
  <unicode hex="004B"/>
  <outline>
    <contour>
      <point x="621" y="520" type="line"/>
      <point x="551" y="587" type="line"/>
      <point x="554" y="631" type="line"/>
      <point x="627.602" y="657.495"/>
      <point x="697.451" y="694.831"/>
      <point x="759.301" y="742.724" type="curve" smooth="yes"/>
      <point x="806.83" y="779.527"/>
      <point x="849.293" y="823.103"/>
      <point x="883.129" y="872.788" type="curve" smooth="yes"/>
      <point x="915.475" y="920.286"/>
      <point x="939.794" y="972.858"/>
      <point x="959.579" y="1026.81" type="curve" smooth="yes"/>
      <point x="988.607" y="1105.97"/>
      <point x="1009.59" y="1187.91"/>
      <point x="1026.26" y="1270.56" type="curve"/>
      <point x="1058.25" y="1272.57"/>
      <point x="1090.79" y="1264.81"/>
      <point x="1118.4" y="1248.54" type="curve" smooth="yes"/>
      <point x="1151.8" y="1228.86"/>
      <point x="1177.5" y="1196.62"/>
      <point x="1189.57" y="1159.79" type="curve" smooth="yes"/>
      <point x="1198" y="1134.07"/>
      <point x="1199.95" y="1106.41"/>
      <point x="1196.47" y="1079.57" type="curve" smooth="yes"/>
      <point x="1193" y="1052.73"/>
      <point x="1184.26" y="1026.73"/>
      <point x="1172.3" y="1002.45" type="curve" smooth="yes"/>
      <point x="1140.9" y="938.688"/>
      <point x="1089.58" y="886.868"/>
      <point x="1035.35" y="840.925" type="curve" smooth="yes"/>
      <point x="944.282" y="763.776"/>
      <point x="842.919" y="699.655"/>
      <point x="740.23" y="638.826" type="curve"/>
      <point x="975.078" y="244.371" type="line" smooth="yes"/>
      <point x="1004.92" y="194.243"/>
      <point x="1033.78" y="143.067"/>
      <point x="1071.4" y="98.479" type="curve" smooth="yes"/>
      <point x="1096.75" y="68.4336"/>
      <point x="1126.99" y="41.997"/>
      <point x="1162.27" y="24.6566" type="curve" smooth="yes"/>
      <point x="1197.55" y="7.31618"/>
      <point x="1236.96" y="0.593788"/>
      <point x="1276" y="-3.9995" type="curve" smooth="yes"/>
      <point x="1310" y="-7.9995" type="line"/>
      <point x="1288" y="-88" type="line"/>
      <point x="1238.04" y="-110.38"/>
      <point x="1183.13" y="-121.816"/>
      <point x="1128.4" y="-120.521" type="curve" smooth="yes"/>
      <point x="1090.9" y="-119.634"/>
      <point x="1053.47" y="-112.673"/>
      <point x="1018.48" y="-99.15" type="curve" smooth="yes"/>
      <point x="970.32" y="-80.5369"/>
      <point x="927.444" y="-49.0838"/>
      <point x="893.913" y="-9.82231" type="curve" smooth="yes"/>
      <point x="860.382" y="29.4392"/>
      <point x="836.631" y="75.9257"/>
      <point x="814.078" y="122.371" type="curve" smooth="yes"/>
    </contour>
    <contour>
      <point x="606" y="0" type="line"/>
      <point x="20" y="0" type="line"/>
      <point x="38" y="78" type="line"/>
      <point x="261" y="129" type="line"/>
      <point x="384" y="1090" type="line"/>
      <point x="158" y="1123" type="line"/>
      <point x="177" y="1199" type="line"/>
      <point x="234.161" y="1213.16"/>
      <point x="292.122" y="1224.08"/>
      <point x="350.504" y="1231.79" type="curve" smooth="yes"/>
      <point x="409.949" y="1239.63"/>
      <point x="469.817" y="1244.17"/>
      <point x="529.754" y="1245.86" type="curve" smooth="yes"/>
      <point x="605.882" y="1248.01"/>
      <point x="682.131" y="1245.64"/>
      <point x="758" y="1239" type="curve"/>
      <point x="738" y="1161" type="line"/>
      <point x="579" y="1139" type="line"/>
      <point x="452" y="110" type="line"/>
      <point x="630" y="85" type="line"/>
    </contour>
  </outline>
</glyph>
<glyph name="L" format="1">
  <advance width="1169"/>
  <unicode hex="004C"/>
  <outline>
    <contour>
      <point x="1070" y="0" type="curve"/>
      <point x="702" y="2"/>
      <point x="495" y="3"/>
      <point x="452" y="3" type="curve"/>
      <point x="20" y="-3" type="line"/>
      <point x="43" y="80" type="line"/>
      <point x="261" y="134" type="line"/>
      <point x="386" y="1094" type="line"/>
      <point x="159" y="1117" type="line"/>
      <point x="179" y="1192" type="line"/>
      <point x="297" y="1228"/>
      <point x="443" y="1246"/>
      <point x="617" y="1246" type="curve" smooth="yes"/>
      <point x="655" y="1246"/>
      <point x="701" y="1245"/>
      <point x="756" y="1241" type="curve" smooth="yes"/>
      <point x="811" y="1237"/>
      <point x="840" y="1236"/>
      <point x="846" y="1236" type="curve"/>
      <point x="832" y="1155" type="line"/>
      <point x="585" y="1132" type="line"/>
      <point x="452" y="106" type="line"/>
      <point x="669" y="116" type="line"/>
      <point x="767" y="122"/>
      <point x="846" y="129"/>
      <point x="905" y="139" type="curve"/>
      <point x="946" y="183"/>
      <point x="996" y="293"/>
      <point x="1055" y="470" type="curve"/>
      <point x="1147" y="456" type="line"/>
      <point x="1147" y="448"/>
      <point x="1147" y="441"/>
      <point x="1149" y="434" type="curve"/>
      <point x="1149" y="408" type="line" smooth="yes"/>
      <point x="1149" y="335"/>
      <point x="1141" y="259"/>
      <point x="1126" y="179" type="curve" smooth="yes"/>
      <point x="1111" y="99"/>
      <point x="1093" y="39"/>
    </contour>
  </outline>
</glyph>
<glyph name="M" format="1">
  <advance width="1723"/>
  <unicode hex="004D"/>
  <outline>
    <contour>
      <point x="1387" y="186" type="curve" smooth="yes"/>
      <point x="1387" y="151"/>
      <point x="1398" y="134"/>
      <point x="1419" y="134" type="curve" smooth="yes"/>
      <point x="1421" y="134"/>
      <point x="1427" y="136"/>
      <point x="1441" y="140" type="curve" smooth="yes"/>
      <point x="1455" y="144"/>
      <point x="1471" y="157"/>
      <point x="1491" y="178" type="curve" smooth="yes"/>
      <point x="1511" y="199"/>
      <point x="1538" y="232"/>
      <point x="1573" y="279" type="curve"/>
      <point x="1621" y="244" type="line"/>
      <point x="1595" y="145"/>
      <point x="1538" y="68"/>
      <point x="1449" y="13" type="curve"/>
      <point x="1404" y="-14"/>
      <point x="1359" y="-28"/>
      <point x="1312" y="-29" type="curve" smooth="yes"/>
      <point x="1265" y="-30"/>
      <point x="1232" y="-20"/>
      <point x="1212" y="0" type="curve" smooth="yes"/>
      <point x="1192" y="20"/>
      <point x="1183" y="50"/>
      <point x="1183" y="89" type="curve" smooth="yes"/>
      <point x="1183" y="95"/>
      <point x="1183" y="99"/>
      <point x="1185" y="103" type="curve"/>
      <point x="1185" y="114" type="line"/>
      <point x="1187" y="159"/>
      <point x="1194" y="235"/>
      <point x="1208" y="343" type="curve" smooth="yes"/>
      <point x="1290" y="999" type="line"/>
      <point x="1214" y="814"/>
      <point x="1139" y="645"/>
      <point x="1065" y="492" type="curve" smooth="yes"/>
      <point x="991" y="339"/>
      <point x="928" y="224"/>
      <point x="879" y="146" type="curve" smooth="yes"/>
      <point x="873" y="137"/>
      <point x="852" y="106"/>
      <point x="816" y="52" type="curve"/>
      <point x="688" y="33" type="line"/>
      <point x="447" y="999" type="line"/>
      <point x="444" y="999" type="line"/>
      <point x="425" y="486" type="line" smooth="yes"/>
      <point x="420" y="374"/>
      <point x="413" y="291"/>
      <point x="402" y="236" type="curve" smooth="yes"/>
      <point x="391" y="181"/>
      <point x="370" y="129"/>
      <point x="337" y="78" type="curve" smooth="yes"/>
      <point x="290" y="6"/>
      <point x="236" y="-30"/>
      <point x="175" y="-31" type="curve" smooth="yes"/>
      <point x="148" y="-31"/>
      <point x="123" y="-25"/>
      <point x="100" y="-12" type="curve" smooth="yes"/>
      <point x="77" y="1"/>
      <point x="59" y="19"/>
      <point x="45" y="41" type="curve" smooth="yes"/>
      <point x="31" y="63"/>
      <point x="24" y="80"/>
      <point x="20" y="94" type="curve"/>
      <point x="96" y="128"/>
      <point x="155" y="174"/>
      <point x="198" y="233" type="curve" smooth="yes"/>
      <point x="277" y="345"/>
      <point x="323" y="555"/>
      <point x="339" y="864" type="curve"/>
      <point x="341" y="925"/>
      <point x="342" y="994"/>
      <point x="343" y="1071" type="curve"/>
      <point x="116" y="1125" type="line"/>
      <point x="139" y="1201" type="line"/>
      <point x="298" y="1231"/>
      <point x="444" y="1246"/>
      <point x="580" y="1248" type="curve"/>
      <point x="635" y="1055" type="line"/>
      <point x="819" y="343" type="line"/>
      <point x="1212" y="1068" type="line"/>
      <point x="1305" y="1231" type="line"/>
      <point x="1318" y="1234"/>
      <point x="1347" y="1236"/>
      <point x="1394" y="1240" type="curve" smooth="yes"/>
      <point x="1441" y="1244"/>
      <point x="1490" y="1246"/>
      <point x="1540" y="1246" type="curve" smooth="yes"/>
      <point x="1590" y="1246"/>
      <point x="1644" y="1243"/>
      <point x="1703" y="1236" type="curve"/>
      <point x="1680" y="1158" type="line"/>
      <point x="1463" y="1101" type="line"/>
      <point x="1392" y="287" type="line"/>
      <point x="1390" y="252"/>
      <point x="1389" y="233"/>
      <point x="1389" y="227" type="curve" smooth="yes"/>
      <point x="1389" y="207" type="line"/>
      <point x="1387" y="201"/>
      <point x="1387" y="195"/>
    </contour>
  </outline>
</glyph>
<glyph name="N" format="1">
  <advance width="1533"/>
  <unicode hex="004E"/>
  <outline>
    <contour>
      <point x="1023" y="-31" type="line"/>
      <point x="468" y="999" type="line"/>
      <point x="465" y="999" type="line"/>
      <point x="446" y="486" type="line"/>
      <point x="434.735" y="249.433"/>
      <point x="384.438" y="-31"/>
      <point x="163" y="-31" type="curve"/>
      <point x="104" y="-25"/>
      <point x="63" y="1"/>
      <point x="38" y="49" type="curve"/>
      <point x="29" y="69"/>
      <point x="24" y="87"/>
      <point x="20" y="103" type="curve"/>
      <point x="101" y="140"/>
      <point x="166.532" y="185.022"/>
      <point x="209" y="242" type="curve" smooth="yes"/>
      <point x="329" y="403"/>
      <point x="353" y="791"/>
      <point x="365" y="1071" type="curve"/>
      <point x="139" y="1125" type="line"/>
      <point x="161" y="1201" type="line"/>
      <point x="328.528" y="1235.23"/>
      <point x="413" y="1244"/>
      <point x="570" y="1246" type="curve"/>
      <point x="658" y="1078" type="line"/>
      <point x="1093" y="274" type="line"/>
      <point x="1164" y="1106" type="line"/>
      <point x="937" y="1122" type="line"/>
      <point x="957" y="1197" type="line"/>
      <point x="1125.21" y="1233.85"/>
      <point x="1210.04" y="1245"/>
      <point x="1370" y="1245" type="curve" smooth="yes"/>
      <point x="1417" y="1245"/>
      <point x="1465" y="1243"/>
      <point x="1513" y="1239" type="curve"/>
      <point x="1492" y="1163" type="line"/>
      <point x="1287" y="1109" type="line"/>
      <point x="1183" y="2" type="line"/>
    </contour>
  </outline>
</glyph>
<glyph name="O" format="1">
  <advance width="1106"/>
  <unicode hex="004F"/>
  <outline>
    <contour>
      <point x="229" y="639" type="curve" smooth="yes"/>
      <point x="229" y="395.097"/>
      <point x="324.526" y="120"/>
      <point x="572" y="120" type="curve" smooth="yes"/>
      <point x="784.408" y="120"/>
      <point x="879" y="376.643"/>
      <point x="879" y="625" type="curve" smooth="yes"/>
      <point x="879" y="875.887"/>
      <point x="773.023" y="1130"/>
      <point x="517" y="1130" type="curve" smooth="yes"/>
      <point x="301.269" y="1130"/>
      <point x="229" y="879.592"/>
    </contour>
    <contour>
      <point x="1086" y="744" type="curve"/>
      <point x="1084" y="596"/>
      <point x="1049" y="457"/>
      <point x="981" y="325" type="curve"/>
      <point x="875.599" y="125.149"/>
      <point x="728.921" y="-28"/>
      <point x="464" y="-28" type="curve" smooth="yes"/>
      <point x="186.373" y="-28"/>
      <point x="20" y="222.419"/>
      <point x="20" y="505" type="curve" smooth="yes"/>
      <point x="20" y="906.486"/>
      <point x="247.087" y="1275"/>
      <point x="643" y="1275" type="curve" smooth="yes"/>
      <point x="928.477" y="1275"/>
      <point x="1086" y="1029.2"/>
    </contour>
  </outline>
</glyph>
<glyph name="P" format="1">
  <advance width="1130"/>
  <unicode hex="0050"/>
  <outline>
    <contour>
      <point x="552" y="534" type="line"/>
      <point x="591" y="538"/>
      <point x="628" y="543"/>
      <point x="665" y="553" type="curve"/>
      <point x="764" y="576"/>
      <point x="841" y="615"/>
      <point x="895" y="670" type="curve" smooth="yes"/>
      <point x="949" y="725"/>
      <point x="976" y="795"/>
      <point x="976" y="881" type="curve" smooth="yes"/>
      <point x="976" y="967"/>
      <point x="946" y="1040"/>
      <point x="887" y="1100" type="curve" smooth="yes"/>
      <point x="828" y="1160"/>
      <point x="746" y="1191"/>
      <point x="643" y="1191" type="curve" smooth="yes"/>
      <point x="623" y="1191"/>
      <point x="604" y="1190"/>
      <point x="585" y="1186" type="curve"/>
      <point x="451" y="116" type="line"/>
      <point x="679" y="84" type="line"/>
      <point x="655" y="0" type="line"/>
      <point x="20" y="0" type="line"/>
      <point x="38" y="78" type="line"/>
      <point x="254" y="132" type="line"/>
      <point x="377" y="1066" type="line"/>
      <point x="161" y="1089" type="line"/>
      <point x="177" y="1158" type="line"/>
      <point x="374" y="1227"/>
      <point x="562" y="1261"/>
      <point x="739" y="1262" type="curve" smooth="yes"/>
      <point x="878" y="1262"/>
      <point x="985" y="1232"/>
      <point x="1059" y="1172" type="curve" smooth="yes"/>
      <point x="1133" y="1112"/>
      <point x="1170" y="1025"/>
      <point x="1170" y="913" type="curve" smooth="yes"/>
      <point x="1170" y="798"/>
      <point x="1118" y="697"/>
      <point x="1013" y="610" type="curve" smooth="yes"/>
      <point x="962" y="569"/>
      <point x="898" y="534"/>
      <point x="820" y="506" type="curve" smooth="yes"/>
      <point x="742" y="478"/>
      <point x="655" y="460"/>
      <point x="558" y="451" type="curve"/>
    </contour>
  </outline>
</glyph>
<glyph name="Q" format="1">
  <advance width="1116"/>
  <unicode hex="0051"/>
  <outline>
    <contour>
      <point x="637.019" y="1275" type="curve" smooth="yes"/>
      <point x="658.019" y="1275" type="line"/>
      <point x="802.019" y="1267"/>
      <point x="909.019" y="1204"/>
      <point x="981.019" y="1085" type="curve"/>
      <point x="1042.02" y="984"/>
      <point x="1072.02" y="868"/>
      <point x="1072.02" y="736" type="curve" smooth="yes"/>
      <point x="1072.02" y="681"/>
      <point x="1066.02" y="621"/>
      <point x="1052.02" y="555" type="curve" smooth="yes"/>
      <point x="1026.02" y="427"/>
      <point x="980.019" y="317"/>
      <point x="914.019" y="223" type="curve" smooth="yes"/>
      <point x="848.019" y="129"/>
      <point x="763.019" y="59"/>
      <point x="659.019" y="14" type="curve"/>
      <point x="668.019" y="-55"/>
      <point x="699.019" y="-111"/>
      <point x="752.019" y="-155" type="curve" smooth="yes"/>
      <point x="790.019" y="-186"/>
      <point x="832.019" y="-202"/>
      <point x="879.019" y="-202" type="curve" smooth="yes"/>
      <point x="884.019" y="-202" type="line" smooth="yes"/>
      <point x="910.019" y="-202"/>
      <point x="941.019" y="-196"/>
      <point x="976.019" y="-183" type="curve" smooth="yes"/>
      <point x="1011.02" y="-170"/>
      <point x="1044.02" y="-154"/>
      <point x="1074.02" y="-134" type="curve"/>
      <point x="1096.02" y="-216" type="line"/>
      <point x="1021.02" y="-317"/>
      <point x="925.019" y="-373"/>
      <point x="811.019" y="-385" type="curve"/>
      <point x="796.019" y="-385" type="line"/>
      <point x="791.019" y="-387"/>
      <point x="787.019" y="-387"/>
      <point x="781.019" y="-386" type="curve" smooth="yes"/>
      <point x="705.019" y="-386"/>
      <point x="644.019" y="-362"/>
      <point x="600.019" y="-314" type="curve" smooth="yes"/>
      <point x="556.019" y="-266"/>
      <point x="531.019" y="-201"/>
      <point x="525.019" y="-120" type="curve"/>
      <point x="525.019" y="-103" type="line"/>
      <point x="523.019" y="-98"/>
      <point x="523.019" y="-89"/>
      <point x="524.019" y="-74" type="curve" smooth="yes"/>
      <point x="525.019" y="-59"/>
      <point x="525.019" y="-42"/>
      <point x="529.019" y="-21" type="curve"/>
      <point x="509.019" y="-25"/>
      <point x="485.019" y="-26"/>
      <point x="456.019" y="-26" type="curve" smooth="yes"/>
      <point x="427.019" y="-26"/>
      <point x="399.019" y="-22"/>
      <point x="370.019" y="-14" type="curve"/>
      <point x="279.019" y="8"/>
      <point x="202.019" y="58"/>
      <point x="137.019" y="135" type="curve" smooth="yes"/>
      <point x="58.0186" y="231"/>
      <point x="19.0186" y="364"/>
      <point x="20.0186" y="534" type="curve" smooth="yes"/>
      <point x="20.0186" y="770"/>
      <point x="97.0186" y="962"/>
      <point x="250.019" y="1109" type="curve" smooth="yes"/>
      <point x="316.019" y="1172"/>
      <point x="390.019" y="1217"/>
      <point x="473.019" y="1246" type="curve"/>
      <point x="525.019" y="1266"/>
      <point x="580.019" y="1275"/>
    </contour>
    <contour>
      <point x="344.019" y="1052" type="curve" smooth="yes"/>
      <point x="261.019" y="965"/>
      <point x="219.019" y="832"/>
      <point x="221.019" y="651" type="curve" smooth="yes"/>
      <point x="221.019" y="498"/>
      <point x="242.019" y="378"/>
      <point x="285.019" y="293" type="curve"/>
      <point x="320.019" y="224"/>
      <point x="369.019" y="175"/>
      <point x="431.019" y="144" type="curve"/>
      <point x="466.019" y="125"/>
      <point x="498.019" y="116"/>
      <point x="524.019" y="116" type="curve" smooth="yes"/>
      <point x="550.019" y="116"/>
      <point x="565.019" y="116"/>
      <point x="570.019" y="118" type="curve"/>
      <point x="620.019" y="124"/>
      <point x="664.019" y="140"/>
      <point x="703.019" y="168" type="curve" smooth="yes"/>
      <point x="772.019" y="219"/>
      <point x="819.019" y="294"/>
      <point x="845.019" y="395" type="curve"/>
      <point x="863.019" y="454"/>
      <point x="871.019" y="523"/>
      <point x="871.019" y="602" type="curve" smooth="yes"/>
      <point x="871.019" y="607"/>
      <point x="870.019" y="634"/>
      <point x="868.019" y="683" type="curve"/>
      <point x="854.019" y="872"/>
      <point x="797.019" y="1004"/>
      <point x="696.019" y="1078" type="curve"/>
      <point x="649.019" y="1115"/>
      <point x="595.019" y="1133"/>
      <point x="534.019" y="1132" type="curve" smooth="yes"/>
      <point x="459.019" y="1133"/>
      <point x="396.019" y="1106"/>
    </contour>
  </outline>
</glyph>
<glyph name="R" format="1">
  <advance width="1263"/>
  <unicode hex="0052"/>
  <outline>
    <contour>
      <point x="436" y="106" type="line"/>
      <point x="620" y="72" type="line"/>
      <point x="601" y="0" type="line"/>
      <point x="20" y="0" type="line"/>
      <point x="38" y="75" type="line"/>
      <point x="252" y="127" type="line"/>
      <point x="377" y="1065" type="line"/>
      <point x="156" y="1078" type="line"/>
      <point x="170" y="1155" type="line"/>
      <point x="237" y="1178"/>
      <point x="326" y="1201"/>
      <point x="436" y="1224" type="curve" smooth="yes"/>
      <point x="546" y="1247"/>
      <point x="627" y="1259"/>
      <point x="679" y="1259" type="curve" smooth="yes"/>
      <point x="731" y="1259"/>
      <point x="759" y="1259"/>
      <point x="767" y="1257" type="curve"/>
      <point x="947" y="1244"/>
      <point x="1062" y="1174"/>
      <point x="1113" y="1048" type="curve"/>
      <point x="1125" y="1019"/>
      <point x="1131" y="992"/>
      <point x="1130" y="967" type="curve" smooth="yes"/>
      <point x="1130" y="891"/>
      <point x="1107" y="824"/>
      <point x="1062" y="765" type="curve" smooth="yes"/>
      <point x="1029" y="724"/>
      <point x="986" y="687"/>
      <point x="930" y="654" type="curve" smooth="yes"/>
      <point x="874" y="621"/>
      <point x="820" y="594"/>
      <point x="767" y="574" type="curve"/>
      <point x="767" y="571" type="line"/>
      <point x="914" y="325" type="line"/>
      <point x="945" y="270"/>
      <point x="970" y="231"/>
      <point x="991" y="206" type="curve" smooth="yes"/>
      <point x="1012" y="181"/>
      <point x="1035" y="161"/>
      <point x="1061" y="144" type="curve" smooth="yes"/>
      <point x="1087" y="127"/>
      <point x="1121" y="115"/>
      <point x="1164" y="106" type="curve"/>
      <point x="1243" y="91" type="line"/>
      <point x="1236" y="31" type="line"/>
      <point x="1181" y="-2"/>
      <point x="1123" y="-18"/>
      <point x="1064" y="-18" type="curve" smooth="yes"/>
      <point x="962" y="-18"/>
      <point x="879" y="24"/>
      <point x="816" y="108" type="curve" smooth="yes"/>
      <point x="796" y="134"/>
      <point x="775" y="171"/>
      <point x="750" y="218" type="curve" smooth="yes"/>
      <point x="625" y="453" type="line"/>
      <point x="609" y="478"/>
      <point x="599" y="494"/>
      <point x="595" y="500" type="curve" smooth="yes"/>
      <point x="558" y="546" type="line"/>
      <point x="541" y="567" type="line"/>
      <point x="552" y="597" type="line"/>
      <point x="630" y="615" type="line"/>
      <point x="744" y="638"/>
      <point x="824" y="679"/>
      <point x="869" y="739" type="curve" smooth="yes"/>
      <point x="889" y="765"/>
      <point x="903" y="793"/>
      <point x="913" y="821" type="curve" smooth="yes"/>
      <point x="923" y="849"/>
      <point x="927" y="878"/>
      <point x="927" y="908" type="curve" smooth="yes"/>
      <point x="927" y="981"/>
      <point x="903" y="1044"/>
      <point x="855" y="1098" type="curve" smooth="yes"/>
      <point x="807" y="1152"/>
      <point x="746" y="1179"/>
      <point x="672" y="1179" type="curve" smooth="yes"/>
      <point x="637" y="1179"/>
      <point x="607" y="1176"/>
      <point x="581" y="1168" type="curve"/>
    </contour>
  </outline>
</glyph>
<glyph name="S" format="1">
  <advance width="927"/>
  <unicode hex="0053"/>
  <outline>
    <contour>
      <point x="242" y="415" type="curve"/>
      <point x="212.012" y="274.112"/>
      <point x="208" y="80"/>
      <point x="423" y="80" type="curve" smooth="yes"/>
      <point x="532.542" y="80"/>
      <point x="623" y="163.816"/>
      <point x="623" y="262" type="curve" smooth="yes"/>
      <point x="623" y="458"/>
      <point x="169" y="632"/>
      <point x="169" y="906" type="curve" smooth="yes"/>
      <point x="169" y="1118.34"/>
      <point x="382.2" y="1278"/>
      <point x="593" y="1278" type="curve" smooth="yes"/>
      <point x="713.328" y="1278"/>
      <point x="818.759" y="1245"/>
      <point x="907" y="1178" type="curve"/>
      <point x="802" y="832" type="line"/>
      <point x="714" y="851" type="line"/>
      <point x="707" y="1101" type="line"/>
      <point x="682" y="1142"/>
      <point x="620.075" y="1184"/>
      <point x="548" y="1184" type="curve" smooth="yes"/>
      <point x="447.547" y="1184"/>
      <point x="361" y="1109.54"/>
      <point x="361" y="1005" type="curve" smooth="yes"/>
      <point x="361" y="791"/>
      <point x="825" y="602"/>
      <point x="825" y="348" type="curve" smooth="yes"/>
      <point x="825" y="119.581"/>
      <point x="598.456" y="-24"/>
      <point x="381" y="-24" type="curve" smooth="yes"/>
      <point x="211.461" y="-24"/>
      <point x="20" y="57.7939"/>
      <point x="20" y="232" type="curve" smooth="yes"/>
      <point x="20" y="372.732"/>
      <point x="142" y="446"/>
    </contour>
  </outline>
</glyph>
<glyph name="T" format="1">
  <advance width="1128"/>
  <unicode hex="0054"/>
  <outline>
    <contour>
      <point x="446" y="1123" type="line"/>
      <point x="361" y="1135"/>
      <point x="304" y="1141"/>
      <point x="273" y="1140" type="curve" smooth="yes"/>
      <point x="242" y="1139"/>
      <point x="221" y="1140"/>
      <point x="211" y="1138" type="curve"/>
      <point x="115" y="818" type="line"/>
      <point x="20" y="832" type="line"/>
      <point x="20" y="1224" type="line"/>
      <point x="201" y="1240"/>
      <point x="405" y="1249"/>
      <point x="632" y="1252" type="curve"/>
      <point x="743" y="1252" type="line"/>
      <point x="1108" y="1246" type="line"/>
      <point x="1027" y="818" type="line"/>
      <point x="932" y="832" type="line"/>
      <point x="902" y="1117" type="line"/>
      <point x="808" y="1133"/>
      <point x="723" y="1141"/>
      <point x="648" y="1143" type="curve"/>
      <point x="524" y="109" type="line"/>
      <point x="774" y="80" type="line"/>
      <point x="756" y="-2" type="line"/>
      <point x="87" y="-2" type="line"/>
      <point x="110" y="80" type="line"/>
      <point x="327" y="134" type="line"/>
    </contour>
  </outline>
</glyph>
<glyph name="U" format="1">
  <advance width="1453"/>
  <unicode hex="0055"/>
  <outline>
    <contour>
      <point x="242" y="1087" type="line"/>
      <point x="20" y="1123" type="line"/>
      <point x="42" y="1201" type="line"/>
      <point x="203" y="1230"/>
      <point x="367" y="1245"/>
      <point x="534" y="1245" type="curve"/>
      <point x="658" y="1243" type="line"/>
      <point x="640" y="1166" type="line"/>
      <point x="441" y="1138" type="line"/>
      <point x="393" y="745" type="line" smooth="yes"/>
      <point x="393" y="743"/>
      <point x="393" y="735"/>
      <point x="391" y="721" type="curve" smooth="yes"/>
      <point x="389" y="707"/>
      <point x="387" y="682"/>
      <point x="382" y="647" type="curve" smooth="yes"/>
      <point x="377" y="612"/>
      <point x="376" y="585"/>
      <point x="374" y="566" type="curve" smooth="yes"/>
      <point x="372" y="547"/>
      <point x="372" y="520"/>
      <point x="372" y="487" type="curve" smooth="yes"/>
      <point x="372" y="454"/>
      <point x="373" y="426"/>
      <point x="376" y="404" type="curve" smooth="yes"/>
      <point x="379" y="382"/>
      <point x="383" y="357"/>
      <point x="390" y="329" type="curve" smooth="yes"/>
      <point x="405" y="274"/>
      <point x="436" y="227"/>
      <point x="484" y="188" type="curve"/>
      <point x="534" y="145"/>
      <point x="594" y="123"/>
      <point x="663" y="123" type="curve" smooth="yes"/>
      <point x="732" y="123"/>
      <point x="791" y="139"/>
      <point x="838" y="170" type="curve" smooth="yes"/>
      <point x="885" y="201"/>
      <point x="920" y="241"/>
      <point x="945" y="291" type="curve" smooth="yes"/>
      <point x="970" y="341"/>
      <point x="990" y="422"/>
      <point x="1006" y="534" type="curve"/>
      <point x="1080" y="1111" type="line"/>
      <point x="855" y="1120" type="line"/>
      <point x="873" y="1197" type="line"/>
      <point x="1014" y="1228"/>
      <point x="1163" y="1243"/>
      <point x="1321" y="1243" type="curve" smooth="yes"/>
      <point x="1329" y="1243"/>
      <point x="1366" y="1242"/>
      <point x="1433" y="1239" type="curve"/>
      <point x="1413" y="1163" type="line"/>
      <point x="1206" y="1096" type="line"/>
      <point x="1121" y="517" type="line"/>
      <point x="1098" y="362"/>
      <point x="1063" y="249"/>
      <point x="1017" y="178" type="curve"/>
      <point x="992" y="140"/>
      <point x="966" y="109"/>
      <point x="937" y="85" type="curve" smooth="yes"/>
      <point x="908" y="61"/>
      <point x="873" y="40"/>
      <point x="832" y="19" type="curve" smooth="yes"/>
      <point x="758" y="-16"/>
      <point x="681" y="-34"/>
      <point x="601" y="-34" type="curve" smooth="yes"/>
      <point x="591" y="-34" type="line"/>
      <point x="463" y="-28"/>
      <point x="363" y="11"/>
      <point x="292" y="83" type="curve" smooth="yes"/>
      <point x="211" y="164"/>
      <point x="171" y="277"/>
      <point x="170" y="425" type="curve" smooth="yes"/>
      <point x="170" y="477"/>
      <point x="178" y="569"/>
      <point x="196" y="702" type="curve"/>
    </contour>
  </outline>
</glyph>
<glyph name="V" format="1">
  <advance width="1103"/>
  <unicode hex="0056"/>
  <outline>
    <contour>
      <point x="731" y="1201" type="curve"/>
      <point x="773" y="1243"/>
      <point x="822" y="1264"/>
      <point x="878" y="1264" type="curve" smooth="yes"/>
      <point x="959" y="1264"/>
      <point x="1018" y="1226"/>
      <point x="1057" y="1150" type="curve" smooth="yes"/>
      <point x="1075" y="1117"/>
      <point x="1083" y="1075"/>
      <point x="1083" y="1024" type="curve" smooth="yes"/>
      <point x="1083" y="1019"/>
      <point x="1082" y="999"/>
      <point x="1080" y="962" type="curve"/>
      <point x="1067" y="836"/>
      <point x="1027" y="698"/>
      <point x="959" y="547" type="curve" smooth="yes"/>
      <point x="891" y="396"/>
      <point x="811" y="261"/>
      <point x="718" y="142" type="curve"/>
      <point x="669" y="83"/>
      <point x="628" y="37"/>
      <point x="595" y="5" type="curve"/>
      <point x="451" y="-26" type="line"/>
      <point x="242" y="1081" type="line"/>
      <point x="20" y="1122" type="line"/>
      <point x="40" y="1197" type="line"/>
      <point x="175" y="1228"/>
      <point x="305" y="1244"/>
      <point x="430" y="1246" type="curve"/>
      <point x="617" y="188" type="line"/>
      <point x="625" y="188" type="line"/>
      <point x="662" y="227"/>
      <point x="698" y="273"/>
      <point x="733" y="327" type="curve"/>
      <point x="806" y="442"/>
      <point x="853" y="572"/>
      <point x="876" y="716" type="curve" smooth="yes"/>
      <point x="881" y="743"/>
      <point x="883" y="777"/>
      <point x="883" y="817" type="curve" smooth="yes"/>
      <point x="883" y="904"/>
      <point x="867" y="985"/>
      <point x="834" y="1058" type="curve"/>
      <point x="805" y="1118"/>
      <point x="771" y="1166"/>
    </contour>
  </outline>
</glyph>
<glyph name="W" format="1">
  <advance width="1570"/>
  <unicode hex="0057"/>
  <outline>
    <contour>
      <point x="847" y="-28" type="line"/>
      <point x="818" y="621" type="line"/>
      <point x="808" y="621" type="line"/>
      <point x="749" y="455"/>
      <point x="679" y="301"/>
      <point x="597" y="158" type="curve" smooth="yes"/>
      <point x="575" y="121"/>
      <point x="544" y="70"/>
      <point x="503" y="5" type="curve"/>
      <point x="329" y="-26" type="line"/>
      <point x="237" y="1081" type="line"/>
      <point x="20" y="1122" type="line"/>
      <point x="47" y="1197" type="line"/>
      <point x="187" y="1228"/>
      <point x="319" y="1244"/>
      <point x="444" y="1246" type="curve"/>
      <point x="511" y="237" type="line"/>
      <point x="521" y="237" type="line"/>
      <point x="621" y="382"/>
      <point x="701" y="553"/>
      <point x="762" y="752" type="curve" smooth="yes"/>
      <point x="785" y="829"/>
      <point x="808" y="912"/>
      <point x="829" y="999" type="curve"/>
      <point x="978" y="1034" type="line"/>
      <point x="1030" y="195" type="line"/>
      <point x="1038" y="195" type="line"/>
      <point x="1174" y="339"/>
      <point x="1262" y="510"/>
      <point x="1304" y="709" type="curve"/>
      <point x="1317" y="776"/>
      <point x="1323" y="835"/>
      <point x="1323" y="888" type="curve" smooth="yes"/>
      <point x="1323" y="996"/>
      <point x="1300" y="1102"/>
      <point x="1255" y="1207" type="curve"/>
      <point x="1298" y="1238"/>
      <point x="1345" y="1253"/>
      <point x="1395" y="1252" type="curve" smooth="yes"/>
      <point x="1401" y="1252" type="line"/>
      <point x="1480" y="1246"/>
      <point x="1527" y="1206"/>
      <point x="1543" y="1130" type="curve" smooth="yes"/>
      <point x="1548" y="1110"/>
      <point x="1550" y="1081"/>
      <point x="1550" y="1041" type="curve" smooth="yes"/>
      <point x="1550" y="1001"/>
      <point x="1544" y="951"/>
      <point x="1530" y="892" type="curve"/>
      <point x="1506" y="773"/>
      <point x="1456" y="648"/>
      <point x="1379" y="517" type="curve"/>
      <point x="1310" y="395"/>
      <point x="1227" y="276"/>
      <point x="1130" y="162" type="curve"/>
      <point x="1107" y="131"/>
      <point x="1060" y="78"/>
      <point x="989" y="3" type="curve"/>
    </contour>
  </outline>
</glyph>
<glyph name="X" format="1">
  <advance width="1325"/>
  <unicode hex="0058"/>
  <outline>
    <contour>
      <point x="347.125" y="1071" type="line"/>
      <point x="105.125" y="1122" type="line"/>
      <point x="124.125" y="1197" type="line"/>
      <point x="227.125" y="1220"/>
      <point x="304.125" y="1233"/>
      <point x="354.125" y="1237" type="curve" smooth="yes"/>
      <point x="404.125" y="1241"/>
      <point x="453.125" y="1244"/>
      <point x="499.125" y="1246" type="curve"/>
      <point x="732.125" y="729" type="line"/>
      <point x="747.125" y="770"/>
      <point x="761.125" y="803"/>
      <point x="775.125" y="829" type="curve"/>
      <point x="803.125" y="891"/>
      <point x="840.125" y="960"/>
      <point x="887.125" y="1036" type="curve" smooth="yes"/>
      <point x="934.125" y="1112"/>
      <point x="975.125" y="1163"/>
      <point x="1010.12" y="1192" type="curve" smooth="yes"/>
      <point x="1060.12" y="1232"/>
      <point x="1111.12" y="1252"/>
      <point x="1161.12" y="1252" type="curve" smooth="yes"/>
      <point x="1229.98" y="1252"/>
      <point x="1291.12" y="1199.99"/>
      <point x="1303.12" y="1140" type="curve" smooth="yes"/>
      <point x="1305.12" y="1130"/>
      <point x="1305.12" y="1114"/>
      <point x="1305.12" y="1092" type="curve" smooth="yes"/>
      <point x="1305.12" y="1070"/>
      <point x="1298.12" y="1045"/>
      <point x="1282.12" y="1019" type="curve"/>
      <point x="1255.12" y="1026"/>
      <point x="1228.12" y="1029"/>
      <point x="1202.12" y="1029" type="curve"/>
      <point x="1156.12" y="1026" type="line"/>
      <point x="1038.12" y="1010"/>
      <point x="935.125" y="934"/>
      <point x="849.125" y="797" type="curve"/>
      <point x="822.125" y="750"/>
      <point x="798.125" y="698"/>
      <point x="775.125" y="639" type="curve"/>
      <point x="903.125" y="357" type="line" smooth="yes"/>
      <point x="942.125" y="272"/>
      <point x="977.125" y="214"/>
      <point x="1006.12" y="184" type="curve" smooth="yes"/>
      <point x="1022.12" y="168"/>
      <point x="1038.12" y="161"/>
      <point x="1057.12" y="162" type="curve" smooth="yes"/>
      <point x="1076.12" y="163"/>
      <point x="1092.12" y="169"/>
      <point x="1108.12" y="184" type="curve"/>
      <point x="1139.12" y="207"/>
      <point x="1171.12" y="245"/>
      <point x="1205.12" y="298" type="curve"/>
      <point x="1254.12" y="264" type="line"/>
      <point x="1242.12" y="219"/>
      <point x="1227.12" y="181"/>
      <point x="1208.12" y="151" type="curve" smooth="yes"/>
      <point x="1160.12" y="75"/>
      <point x="1102.12" y="24"/>
      <point x="1033.12" y="-2" type="curve"/>
      <point x="1007.12" y="-11"/>
      <point x="983.125" y="-15"/>
      <point x="962.125" y="-14" type="curve" smooth="yes"/>
      <point x="913.125" y="-14"/>
      <point x="871.125" y="4"/>
      <point x="836.125" y="39" type="curve" smooth="yes"/>
      <point x="818.125" y="57"/>
      <point x="805.125" y="73"/>
      <point x="796.125" y="88" type="curve" smooth="yes"/>
      <point x="787.125" y="103"/>
      <point x="765.125" y="147"/>
      <point x="732.125" y="220" type="curve"/>
      <point x="594.125" y="529" type="line"/>
      <point x="559.125" y="435"/>
      <point x="508.125" y="329"/>
      <point x="441.125" y="211" type="curve"/>
      <point x="391.125" y="126"/>
      <point x="345.125" y="68"/>
      <point x="302.125" y="35" type="curve"/>
      <point x="263.125" y="4"/>
      <point x="221.125" y="-11"/>
      <point x="178.125" y="-10" type="curve"/>
      <point x="153.125" y="-8" type="line"/>
      <point x="118.125" y="-2"/>
      <point x="89.125" y="13"/>
      <point x="66.125" y="39" type="curve" smooth="yes"/>
      <point x="35.125" y="73"/>
      <point x="21.125" y="107"/>
      <point x="20.125" y="142" type="curve" smooth="yes"/>
      <point x="19.125" y="177"/>
      <point x="24.125" y="205"/>
      <point x="35.125" y="228" type="curve"/>
      <point x="55.125" y="226"/>
      <point x="76.125" y="225"/>
      <point x="99.125" y="225" type="curve"/>
      <point x="161.125" y="228" type="line"/>
      <point x="293.125" y="242"/>
      <point x="394.125" y="314"/>
      <point x="467.125" y="446" type="curve" smooth="yes"/>
      <point x="490.125" y="487"/>
      <point x="517.125" y="546"/>
      <point x="549.125" y="623" type="curve"/>
    </contour>
  </outline>
</glyph>
<glyph name="Y" format="1">
  <advance width="1105"/>
  <unicode hex="0059"/>
  <outline>
    <contour>
      <point x="620" y="680" type="curve"/>
      <point x="591" y="583"/>
      <point x="569" y="476"/>
      <point x="555" y="359" type="curve" smooth="yes"/>
      <point x="526" y="106" type="line"/>
      <point x="739" y="81" type="line"/>
      <point x="718" y="0" type="line"/>
      <point x="92" y="0" type="line"/>
      <point x="111" y="83" type="line"/>
      <point x="332" y="129" type="line"/>
      <point x="371" y="423" type="line" smooth="yes"/>
      <point x="378" y="470"/>
      <point x="381" y="519"/>
      <point x="381" y="569" type="curve" smooth="yes"/>
      <point x="381" y="688"/>
      <point x="359" y="796"/>
      <point x="314" y="893" type="curve"/>
      <point x="253" y="1019"/>
      <point x="156" y="1092"/>
      <point x="20" y="1111" type="curve"/>
      <point x="30" y="1160"/>
      <point x="51" y="1197"/>
      <point x="85" y="1221" type="curve" smooth="yes"/>
      <point x="119" y="1245"/>
      <point x="159" y="1259"/>
      <point x="203" y="1262" type="curve"/>
      <point x="214" y="1262" type="line" smooth="yes"/>
      <point x="322" y="1262"/>
      <point x="403" y="1203"/>
      <point x="458" y="1086" type="curve" smooth="yes"/>
      <point x="495" y="1006"/>
      <point x="516" y="915"/>
      <point x="524" y="812" type="curve"/>
      <point x="526" y="749"/>
      <point x="527" y="713"/>
      <point x="526" y="702" type="curve" smooth="yes"/>
      <point x="526" y="664" type="line"/>
      <point x="542" y="664" type="line"/>
      <point x="565" y="763"/>
      <point x="599" y="863"/>
      <point x="644" y="962" type="curve"/>
      <point x="727" y="1153"/>
      <point x="828" y="1249"/>
      <point x="945" y="1249" type="curve" smooth="yes"/>
      <point x="963" y="1249" type="line"/>
      <point x="1000" y="1245"/>
      <point x="1030" y="1231"/>
      <point x="1052" y="1204" type="curve" smooth="yes"/>
      <point x="1074" y="1177"/>
      <point x="1085" y="1149"/>
      <point x="1085" y="1118" type="curve" smooth="yes"/>
      <point x="1085" y="1105"/>
      <point x="1084" y="1095"/>
      <point x="1081" y="1087" type="curve"/>
      <point x="1042" y="1085"/>
      <point x="998" y="1078"/>
      <point x="948" y="1063" type="curve" smooth="yes"/>
      <point x="898" y="1048"/>
      <point x="852" y="1026"/>
      <point x="811" y="995" type="curve"/>
      <point x="764" y="957"/>
      <point x="727" y="915"/>
      <point x="700" y="869" type="curve" smooth="yes"/>
      <point x="673" y="823"/>
      <point x="647" y="760"/>
    </contour>
  </outline>
</glyph>
<glyph name="Z" format="1">
  <advance width="1117"/>
  <unicode hex="005A"/>
  <outline>
    <contour>
      <point x="174" y="1248" type="line"/>
      <point x="1097" y="1248" type="line"/>
      <point x="1088" y="1171" type="line"/>
      <point x="242" y="94" type="line"/>
      <point x="452" y="103" type="line"/>
      <point x="603" y="112"/>
      <point x="725" y="123"/>
      <point x="818" y="139" type="curve"/>
      <point x="868" y="257"/>
      <point x="902" y="362"/>
      <point x="920" y="453" type="curve"/>
      <point x="1011" y="440" type="line"/>
      <point x="1011" y="428"/>
      <point x="1011" y="418"/>
      <point x="1013" y="409" type="curve"/>
      <point x="1013" y="378" type="line"/>
      <point x="1011" y="241"/>
      <point x="1002" y="129"/>
      <point x="983" y="42" type="curve"/>
      <point x="973" y="0" type="line"/>
      <point x="20" y="0" type="line"/>
      <point x="25" y="103" type="line"/>
      <point x="860" y="1152" type="line"/>
      <point x="335" y="1135" type="line"/>
      <point x="260" y="874" type="line"/>
      <point x="158" y="900" type="line"/>
    </contour>
  </outline>
</glyph>
<glyph name="bracketleft" format="1">
  <advance width="592"/>
  <unicode hex="005B"/>
  <outline>
    <contour>
      <point x="378" y="-378" type="line"/>
      <point x="17" y="-380" type="line"/>
      <point x="220" y="1266" type="line"/>
      <point x="575" y="1266" type="line"/>
      <point x="575" y="1175" type="line"/>
      <point x="358" y="1154" type="line"/>
      <point x="183" y="-263" type="line"/>
      <point x="401" y="-282" type="line"/>
    </contour>
  </outline>
</glyph>
<glyph name="backslash" format="1">
  <advance width="430"/>
  <unicode hex="005C"/>
  <outline>
    <contour>
      <point x="150" y="1275" type="line"/>
      <point x="413" y="-380" type="line"/>
      <point x="284" y="-372" type="line"/>
      <point x="17" y="1283" type="line"/>
    </contour>
  </outline>
</glyph>
<glyph name="bracketright" format="1">
  <advance width="595"/>
  <unicode hex="005D"/>
  <outline>
    <contour>
      <point x="17" y="-378" type="line"/>
      <point x="19" y="-282" type="line"/>
      <point x="239" y="-263" type="line"/>
      <point x="413" y="1154" type="line"/>
      <point x="200" y="1175" type="line"/>
      <point x="223" y="1266" type="line"/>
      <point x="578" y="1266" type="line"/>
      <point x="378" y="-380" type="line"/>
    </contour>
  </outline>
</glyph>
<glyph name="asciicircum" format="1">
  <advance width="668"/>
  <unicode hex="005E"/>
  <outline>
    <contour>
      <point x="406" y="1224" type="line"/>
      <point x="648" y="808" type="line"/>
      <point x="586" y="771" type="line"/>
      <point x="353" y="1052" type="line"/>
      <point x="344" y="1052" type="line"/>
      <point x="66" y="776" type="line"/>
      <point x="20" y="809" type="line"/>
      <point x="353" y="1212" type="line"/>
    </contour>
  </outline>
</glyph>
<glyph name="underscore" format="1">
  <advance width="916"/>
  <unicode hex="005F"/>
  <outline>
    <contour>
      <point x="53" y="-28" type="line"/>
      <point x="887" y="-28" type="line"/>
      <point x="863" y="-134" type="line"/>
      <point x="28" y="-134" type="line"/>
    </contour>
  </outline>
</glyph>
<glyph name="grave" format="1">
  <advance width="322"/>
  <unicode hex="0060"/>
  <outline>
    <contour>
      <point x="40" y="1626" type="line"/>
      <point x="154" y="1663" type="line"/>
      <point x="282" y="1336" type="line"/>
      <point x="226" y="1303" type="line"/>
    </contour>
  </outline>
</glyph>
<glyph name="a" format="1">
  <advance width="872"/>
  <unicode hex="0061"/>
  <outline>
    <contour>
      <point x="769" y="900" type="curve"/>
      <point x="793" y="881" type="line"/>
      <point x="701" y="491" type="line"/>
      <point x="671" y="253" type="line" smooth="yes"/>
      <point x="662.858" y="189.491"/>
      <point x="663" y="116"/>
      <point x="708" y="116" type="curve" smooth="yes"/>
      <point x="760.835" y="116"/>
      <point x="835.578" y="231.893"/>
      <point x="861" y="275" type="curve"/>
      <point x="902" y="240" type="line"/>
      <point x="844.118" y="94.5117"/>
      <point x="782.392" y="-31"/>
      <point x="610" y="-31" type="curve" smooth="yes"/>
      <point x="470.95" y="-31"/>
      <point x="514.652" y="175.79"/>
      <point x="543" y="287" type="curve"/>
      <point x="530" y="287" type="line"/>
      <point x="495" y="203"/>
      <point x="449" y="131"/>
      <point x="392" y="70" type="curve" smooth="yes"/>
      <point x="335" y="9"/>
      <point x="279" y="-21"/>
      <point x="224" y="-21" type="curve" smooth="yes"/>
      <point x="83.9482" y="-21"/>
      <point x="58" y="86.3643"/>
      <point x="58" y="225" type="curve" smooth="yes"/>
      <point x="58" y="484"/>
      <point x="247.642" y="895"/>
      <point x="506" y="895" type="curve" smooth="yes"/>
      <point x="560.25" y="895"/>
      <point x="601.583" y="873.333"/>
      <point x="630" y="830" type="curve"/>
      <point x="639" y="830" type="line"/>
      <point x="670.2" y="876.667"/>
      <point x="710.067" y="900"/>
    </contour>
    <contour>
      <point x="229" y="288" type="curve" smooth="yes"/>
      <point x="229" y="202.213"/>
      <point x="244.113" y="132"/>
      <point x="294" y="132" type="curve" smooth="yes"/>
      <point x="343" y="132"/>
      <point x="398" y="183"/>
      <point x="461" y="285" type="curve" smooth="yes"/>
      <point x="501.463" y="350.512"/>
      <point x="534.089" y="425.512"/>
      <point x="559.141" y="510" type="curve"/>
      <point x="574" y="670" type="line"/>
      <point x="555.567" y="715.14"/>
      <point x="481.564" y="760"/>
      <point x="436" y="760" type="curve" smooth="yes"/>
      <point x="276.989" y="760"/>
      <point x="229" y="449.577"/>
    </contour>
  </outline>
</glyph>
<glyph name="b" format="1">
  <advance width="777"/>
  <unicode hex="0062"/>
  <outline>
    <contour>
      <point x="467" y="762" type="curve" smooth="yes"/>
      <point x="323.638" y="762"/>
      <point x="241.822" y="423.675"/>
      <point x="221" y="249" type="curve"/>
      <point x="208" y="153" type="line"/>
      <point x="239" y="108"/>
      <point x="294" y="86"/>
      <point x="371" y="88" type="curve"/>
      <point x="539.075" y="88"/>
      <point x="590" y="291.005"/>
      <point x="590" y="505" type="curve" smooth="yes"/>
      <point x="590" y="619.589"/>
      <point x="566.735" y="762"/>
    </contour>
    <contour>
      <point x="345" y="1278" type="line"/>
      <point x="294" y="845" type="line"/>
      <point x="244" y="592" type="line"/>
      <point x="253" y="592" type="line"/>
      <point x="284.969" y="727.867"/>
      <point x="383.729" y="893"/>
      <point x="536" y="893" type="curve" smooth="yes"/>
      <point x="688.672" y="893"/>
      <point x="757" y="703.961"/>
      <point x="757" y="535" type="curve" smooth="yes"/>
      <point x="757" y="223.642"/>
      <point x="577.237" y="-24"/>
      <point x="269" y="-24" type="curve" smooth="yes"/>
      <point x="172" y="-24"/>
      <point x="97" y="-1.78814e-07"/>
      <point x="42" y="49" type="curve"/>
      <point x="80" y="318" type="line"/>
      <point x="176" y="1175" type="line"/>
      <point x="40" y="1203" type="line"/>
      <point x="51" y="1276" type="line"/>
      <point x="330" y="1299" type="line"/>
    </contour>
  </outline>
</glyph>
<glyph name="c" format="1">
  <advance width="635"/>
  <unicode hex="0063"/>
  <outline>
    <contour>
      <point x="526" y="652" type="curve"/>
      <point x="503.94" y="719.133"/>
      <point x="431.428" y="771.219"/>
      <point x="367.952" y="771.219" type="curve" smooth="yes"/>
      <point x="241.974" y="771.219"/>
      <point x="208" y="541.031"/>
      <point x="208" y="392" type="curve" smooth="yes"/>
      <point x="208" y="230.669"/>
      <point x="229.238" y="98"/>
      <point x="335" y="98" type="curve" smooth="yes"/>
      <point x="440.622" y="98"/>
      <point x="542.979" y="210"/>
      <point x="580" y="267" type="curve"/>
      <point x="616" y="235" type="line"/>
      <point x="578.674" y="129"/>
      <point x="409.11" y="-31"/>
      <point x="295" y="-31" type="curve" smooth="yes"/>
      <point x="117.024" y="-31"/>
      <point x="48" y="135.991"/>
      <point x="48" y="332" type="curve" smooth="yes"/>
      <point x="48" y="596.939"/>
      <point x="255" y="893"/>
      <point x="462" y="893" type="curve" smooth="yes"/>
      <point x="555.274" y="893"/>
      <point x="625" y="839.258"/>
      <point x="625" y="759" type="curve" smooth="yes"/>
      <point x="625" y="708"/>
      <point x="569" y="660"/>
    </contour>
  </outline>
</glyph>
<glyph name="d" format="1">
  <advance width="832"/>
  <unicode hex="0064"/>
  <outline>
    <contour>
      <point x="763" y="1275" type="line"/>
      <point x="640" y="284" type="line" smooth="yes"/>
      <point x="632" y="220"/>
      <point x="628.666" y="123"/>
      <point x="675" y="123" type="curve" smooth="yes"/>
      <point x="723.709" y="123"/>
      <point x="800.204" y="230.768"/>
      <point x="822" y="270" type="curve"/>
      <point x="862" y="242" type="line"/>
      <point x="810" y="64"/>
      <point x="712" y="-24"/>
      <point x="566" y="-24" type="curve" smooth="yes"/>
      <point x="451.4" y="-24"/>
      <point x="478.133" y="161.103"/>
      <point x="508" y="259" type="curve"/>
      <point x="495" y="263" type="line"/>
      <point x="447.105" y="130.926"/>
      <point x="358.374" y="-26"/>
      <point x="208" y="-26" type="curve" smooth="yes"/>
      <point x="78.9785" y="-26"/>
      <point x="40" y="86.5264"/>
      <point x="40" y="225" type="curve" smooth="yes"/>
      <point x="40" y="476.188"/>
      <point x="215.262" y="882"/>
      <point x="466" y="882" type="curve" smooth="yes"/>
      <point x="518" y="882"/>
      <point x="549" y="872"/>
      <point x="559" y="851" type="curve"/>
      <point x="573" y="855" type="line"/>
      <point x="593" y="1172" type="line"/>
      <point x="459" y="1200" type="line"/>
      <point x="469" y="1273" type="line"/>
      <point x="744" y="1299" type="line"/>
    </contour>
    <contour>
      <point x="255" y="109" type="curve" smooth="yes"/>
      <point x="370.676" y="109"/>
      <point x="447.888" y="286.972"/>
      <point x="487" y="398" type="curve" smooth="yes"/>
      <point x="518" y="486"/>
      <point x="539" y="579"/>
      <point x="549" y="678" type="curve"/>
      <point x="518" y="743"/>
      <point x="471" y="775"/>
      <point x="417" y="775" type="curve" smooth="yes"/>
      <point x="250.652" y="775"/>
      <point x="200" y="478"/>
      <point x="200" y="305" type="curve" smooth="yes"/>
      <point x="200" y="193"/>
      <point x="201" y="109"/>
    </contour>
  </outline>
</glyph>
<glyph name="e" format="1">
  <advance width="636"/>
  <unicode hex="0065"/>
  <outline>
    <contour>
      <point x="208.26" y="350" type="curve"/>
      <point x="212.26" y="184.987"/>
      <point x="265.26" y="103"/>
      <point x="370.26" y="103" type="curve" smooth="yes"/>
      <point x="447.26" y="103"/>
      <point x="516.26" y="157.713"/>
      <point x="576.26" y="266" type="curve"/>
      <point x="613.26" y="234" type="line"/>
      <point x="571.142" y="101.292"/>
      <point x="449.528" y="-31"/>
      <point x="289.26" y="-31" type="curve" smooth="yes"/>
      <point x="122.071" y="-31"/>
      <point x="48.2598" y="115.553"/>
      <point x="48.2598" y="293" type="curve" smooth="yes"/>
      <point x="48.2598" y="560.583"/>
      <point x="225.339" y="897"/>
      <point x="445.26" y="897" type="curve" smooth="yes"/>
      <point x="543.101" y="897"/>
      <point x="616" y="803.649"/>
      <point x="616" y="700.432" type="curve" smooth="yes"/>
      <point x="616" y="486"/>
      <point x="429.26" y="399"/>
    </contour>
    <contour>
      <point x="369.26" y="760" type="curve" smooth="yes"/>
      <point x="288.76" y="760"/>
      <point x="221.677" y="644.053"/>
      <point x="208.26" y="414" type="curve"/>
      <point x="327.26" y="453"/>
      <point x="452.181" y="516"/>
      <point x="452.181" y="644.957" type="curve" smooth="yes"/>
      <point x="452.181" y="707.597"/>
      <point x="425.927" y="760"/>
    </contour>
  </outline>
</glyph>
<glyph name="f" format="1">
  <advance width="521"/>
  <unicode hex="0066"/>
  <outline>
    <contour>
      <point x="-211" y="-132" type="curve"/>
      <point x="-145" y="-196"/>
      <point x="-78" y="-228"/>
      <point x="-10" y="-228" type="curve" smooth="yes"/>
      <point x="72.4355" y="-228"/>
      <point x="106.861" y="-194.812"/>
      <point x="120" y="-127" type="curve"/>
      <point x="136.574" y="38.7646"/>
      <point x="139.297" y="509.419"/>
      <point x="144" y="742" type="curve"/>
      <point x="29" y="753" type="line"/>
      <point x="41" y="845" type="line"/>
      <point x="149" y="849" type="line"/>
      <point x="161.192" y="987.676"/>
      <point x="208.75" y="1110.08"/>
      <point x="297.468" y="1194" type="curve" smooth="yes"/>
      <point x="365.395" y="1265.85"/>
      <point x="460.783" y="1309"/>
      <point x="587" y="1309" type="curve" smooth="yes"/>
      <point x="693.624" y="1304.72"/>
      <point x="771" y="1241.2"/>
      <point x="771" y="1165" type="curve" smooth="yes"/>
      <point x="771" y="1106.34"/>
      <point x="736.837" y="1066.35"/>
      <point x="697" y="1041" type="curve"/>
      <point x="640.628" y="1113.02"/>
      <point x="552" y="1160.39"/>
      <point x="465.389" y="1160.39" type="curve" smooth="yes"/>
      <point x="391.971" y="1160.39"/>
      <point x="358.977" y="1145.48"/>
      <point x="341.642" y="1089" type="curve" smooth="yes"/>
      <point x="318.773" y="1021.7"/>
      <point x="311.83" y="930.815"/>
      <point x="308" y="844" type="curve"/>
      <point x="542" y="845" type="line"/>
      <point x="523" y="747" type="line"/>
      <point x="306" y="738" type="line"/>
      <point x="296.053" y="260.547"/>
      <point x="374.656" y="-377.701"/>
      <point x="-115" y="-381" type="curve" smooth="yes"/>
      <point x="-210.013" y="-381.659"/>
      <point x="-270" y="-331.574"/>
      <point x="-270" y="-242" type="curve" smooth="yes"/>
      <point x="-264.851" y="-200.811"/>
      <point x="-237.543" y="-156.982"/>
    </contour>
  </outline>
</glyph>
<glyph name="g" format="1">
  <advance width="769"/>
  <unicode hex="0067"/>
  <outline>
    <contour>
      <point x="518" y="377" type="curve"/>
      <point x="536" y="685" type="line"/>
      <point x="513.086" y="733.219"/>
      <point x="477.445" y="772"/>
      <point x="413" y="772" type="curve" smooth="yes"/>
      <point x="241.241" y="772"/>
      <point x="210.595" y="470.453"/>
      <point x="209" y="305" type="curve" smooth="yes"/>
      <point x="209" y="226.947"/>
      <point x="219.853" y="129"/>
      <point x="263" y="129" type="curve" smooth="yes"/>
      <point x="344.223" y="129"/>
      <point x="434.472" y="241.307"/>
      <point x="536" y="494" type="curve"/>
      <point x="554.339" y="470.656"/>
      <point x="563.157" y="463.976"/>
      <point x="571" y="459" type="curve"/>
      <point x="508.396" y="219.952"/>
      <point x="361.069" y="-26"/>
      <point x="221" y="-26" type="curve" smooth="yes"/>
      <point x="91.4258" y="-26"/>
      <point x="57" y="111.118"/>
      <point x="57" y="244" type="curve" smooth="yes"/>
      <point x="57" y="485.736"/>
      <point x="232.782" y="897"/>
      <point x="442" y="897" type="curve" smooth="yes"/>
      <point x="495.945" y="897"/>
      <point x="535.578" y="862.521"/>
      <point x="562" y="792" type="curve"/>
      <point x="572" y="792" type="line"/>
      <point x="605.773" y="864.706"/>
      <point x="679.28" y="908.329"/>
      <point x="721" y="895" type="curve"/>
      <point x="739" y="880" type="line"/>
      <point x="670" y="412" type="line"/>
      <point x="818" y="-137"/>
      <point x="454.694" y="-378.023"/>
      <point x="248" y="-378.023" type="curve" smooth="yes"/>
      <point x="89.8467" y="-378.023"/>
      <point x="-10" y="-341.39"/>
      <point x="-10" y="-275" type="curve" smooth="yes"/>
      <point x="-10" y="-203.359"/>
      <point x="52" y="-155.121"/>
      <point x="112" y="-148" type="curve"/>
      <point x="137.096" y="-213"/>
      <point x="234.968" y="-247"/>
      <point x="309" y="-247" type="curve" smooth="yes"/>
      <point x="495.735" y="-247"/>
      <point x="554.451" y="-83.709"/>
      <point x="554.451" y="99.8926" type="curve" smooth="yes"/>
      <point x="554.451" y="193.278"/>
      <point x="539.261" y="291.919"/>
    </contour>
  </outline>
</glyph>
<glyph name="h" format="1">
  <advance width="839"/>
  <unicode hex="0068"/>
  <outline>
    <contour>
      <point x="228" y="1180" type="line"/>
      <point x="92" y="1208" type="line"/>
      <point x="102" y="1281" type="line"/>
      <point x="389" y="1304" type="line"/>
      <point x="405" y="1283" type="line"/>
      <point x="335" y="825" type="line"/>
      <point x="272" y="564" type="line"/>
      <point x="284" y="561" type="line"/>
      <point x="357.14" y="731.036"/>
      <point x="490.7" y="898"/>
      <point x="602" y="898" type="curve" smooth="yes"/>
      <point x="718.819" y="898"/>
      <point x="751.696" y="818.184"/>
      <point x="751.696" y="707.854" type="curve" smooth="yes"/>
      <point x="751.696" y="520.505"/>
      <point x="636.542" y="265"/>
      <point x="636.542" y="168.56" type="curve" smooth="yes"/>
      <point x="636.542" y="144.324"/>
      <point x="643.426" y="123"/>
      <point x="669" y="123" type="curve" smooth="yes"/>
      <point x="733.568" y="123"/>
      <point x="800.924" y="195.91"/>
      <point x="828" y="246" type="curve"/>
      <point x="869" y="217" type="line"/>
      <point x="816.209" y="80.7646"/>
      <point x="739.815" y="-23"/>
      <point x="568" y="-23" type="curve" smooth="yes"/>
      <point x="491.116" y="-23"/>
      <point x="470.788" y="18.5566"/>
      <point x="470.788" y="74.8428" type="curve" smooth="yes"/>
      <point x="470.788" y="186.991"/>
      <point x="581.819" y="455.082"/>
      <point x="581.819" y="636.39" type="curve" smooth="yes"/>
      <point x="581.819" y="695.325"/>
      <point x="566.442" y="716"/>
      <point x="535" y="716" type="curve" smooth="yes"/>
      <point x="413" y="716"/>
      <point x="319.746" y="541.983"/>
      <point x="279" y="386" type="curve"/>
      <point x="271.917" y="141.599"/>
      <point x="258.009" y="-42.1592"/>
      <point x="45" y="-19" type="curve"/>
      <point x="30" y="8" type="line"/>
      <point x="130" y="434" type="line"/>
    </contour>
  </outline>
</glyph>
<glyph name="i" format="1">
  <advance width="541"/>
  <unicode hex="0069"/>
  <outline>
    <contour>
      <point x="469" y="1163" type="curve" smooth="yes"/>
      <point x="469" y="1104.39"/>
      <point x="417.939" y="1041"/>
      <point x="360" y="1041" type="curve" smooth="yes"/>
      <point x="303.332" y="1041"/>
      <point x="269" y="1083.24"/>
      <point x="269" y="1140" type="curve" smooth="yes"/>
      <point x="269" y="1203.43"/>
      <point x="317.23" y="1268"/>
      <point x="377" y="1268" type="curve" smooth="yes"/>
      <point x="433.661" y="1268"/>
      <point x="469" y="1220.91"/>
    </contour>
    <contour>
      <point x="317.717" y="187.354" type="curve" smooth="yes"/>
      <point x="317.717" y="152.77"/>
      <point x="324.137" y="123"/>
      <point x="351" y="123" type="curve" smooth="yes"/>
      <point x="415.468" y="123"/>
      <point x="482.02" y="189.565"/>
      <point x="509" y="236" type="curve"/>
      <point x="551" y="207" type="line"/>
      <point x="491" y="53.6667"/>
      <point x="395" y="-23"/>
      <point x="263" y="-23" type="curve" smooth="yes"/>
      <point x="170.765" y="-23"/>
      <point x="148.159" y="44.8193"/>
      <point x="148.159" y="129.938" type="curve" smooth="yes"/>
      <point x="148.159" y="253"/>
      <point x="243.33" y="490.497"/>
      <point x="243.33" y="676.479" type="curve" smooth="yes"/>
      <point x="243.33" y="728.158"/>
      <point x="231.93" y="749.552"/>
      <point x="213.188" y="749.552" type="curve" smooth="yes"/>
      <point x="175.63" y="749.552"/>
      <point x="112.154" y="683.172"/>
      <point x="48" y="599" type="curve"/>
      <point x="0" y="631" type="line"/>
      <point x="47.4166" y="743.759"/>
      <point x="172.225" y="906"/>
      <point x="324" y="906" type="curve" smooth="yes"/>
      <point x="393.314" y="906"/>
      <point x="411.493" y="853.326"/>
      <point x="411.493" y="775.301" type="curve" smooth="yes"/>
      <point x="411.493" y="588.647"/>
      <point x="317.717" y="379.456"/>
    </contour>
  </outline>
</glyph>
<glyph name="j" format="1">
  <advance width="458"/>
  <unicode hex="006A"/>
  <outline>
    <contour>
      <point x="430" y="1163" type="curve" smooth="yes"/>
      <point x="430" y="1104.39"/>
      <point x="378.939" y="1041"/>
      <point x="321" y="1041" type="curve" smooth="yes"/>
      <point x="264.332" y="1041"/>
      <point x="230" y="1083.24"/>
      <point x="230" y="1140" type="curve" smooth="yes"/>
      <point x="230" y="1203.43"/>
      <point x="278.23" y="1268"/>
      <point x="338" y="1268" type="curve" smooth="yes"/>
      <point x="394.661" y="1268"/>
      <point x="430" y="1220.91"/>
    </contour>
    <contour>
      <point x="-170" y="-132" type="curve"/>
      <point x="-107.317" y="-196"/>
      <point x="-44.6332" y="-228"/>
      <point x="19" y="-228" type="curve" smooth="yes"/>
      <point x="144" y="-228"/>
      <point x="128" y="-94"/>
      <point x="162.831" y="182" type="curve" smooth="yes"/>
      <point x="179.497" y="314.064"/>
      <point x="240.111" y="609.483"/>
      <point x="240.111" y="681.359" type="curve" smooth="yes"/>
      <point x="240.111" y="720.079"/>
      <point x="229.99" y="752"/>
      <point x="200" y="752" type="curve" smooth="yes"/>
      <point x="153.068" y="752"/>
      <point x="76.8557" y="620.711"/>
      <point x="64" y="595" type="curve"/>
      <point x="13" y="631" type="line"/>
      <point x="54.7352" y="743.685"/>
      <point x="167.683" y="909"/>
      <point x="310" y="909" type="curve" smooth="yes"/>
      <point x="394.198" y="909"/>
      <point x="416.891" y="844.498"/>
      <point x="416.891" y="764.942" type="curve" smooth="yes"/>
      <point x="416.891" y="705.503"/>
      <point x="364.415" y="457.78"/>
      <point x="324" y="210" type="curve" smooth="yes"/>
      <point x="312.274" y="129.919"/>
      <point x="306.724" y="64.161"/>
      <point x="297.658" y="-14" type="curve" smooth="yes"/>
      <point x="284.008" y="-116.081"/>
      <point x="238.252" y="-192.748"/>
      <point x="209" y="-230" type="curve" smooth="yes"/>
      <point x="152.016" y="-317.345"/>
      <point x="33.2278" y="-381"/>
      <point x="-84" y="-381" type="curve"/>
      <point x="-171.902" y="-373.572"/>
      <point x="-229" y="-331.374"/>
      <point x="-229" y="-242" type="curve"/>
      <point x="-223.851" y="-200.811"/>
      <point x="-196.543" y="-156.982"/>
    </contour>
  </outline>
</glyph>
<glyph name="k" format="1">
  <advance width="777"/>
  <unicode hex="006B"/>
  <outline>
    <contour>
      <point x="358" y="401" type="line"/>
      <point x="505.206" y="504.677"/>
      <point x="593.664" y="631.581"/>
      <point x="593.664" y="700.086" type="curve" smooth="yes"/>
      <point x="593.664" y="729.681"/>
      <point x="582.343" y="748"/>
      <point x="558" y="748" type="curve" smooth="yes"/>
      <point x="474" y="748"/>
      <point x="294" y="495"/>
      <point x="261" y="405" type="curve"/>
      <point x="255.292" y="153.973"/>
      <point x="239.119" y="-86.8315"/>
      <point x="46" y="-13" type="curve"/>
      <point x="40" y="0" type="line"/>
      <point x="123" y="440" type="line"/>
      <point x="210" y="1175" type="line"/>
      <point x="75" y="1203" type="line"/>
      <point x="85" y="1276" type="line"/>
      <point x="372" y="1299" type="line"/>
      <point x="388" y="1278" type="line"/>
      <point x="330" y="832" type="line"/>
      <point x="265" y="551" type="line"/>
      <point x="278" y="546" type="line"/>
      <point x="312.824" y="600.613"/>
      <point x="498" y="906"/>
      <point x="648" y="906" type="curve" smooth="yes"/>
      <point x="688.981" y="906"/>
      <point x="742.1" y="851.235"/>
      <point x="742.1" y="765.239" type="curve" smooth="yes"/>
      <point x="742.1" y="675.643"/>
      <point x="678.9" y="551.89"/>
      <point x="471" y="421" type="curve"/>
      <point x="499" y="317.072"/>
      <point x="581" y="123"/>
      <point x="631" y="123" type="curve" smooth="yes"/>
      <point x="659" y="123"/>
      <point x="733" y="164"/>
      <point x="780" y="246" type="curve"/>
      <point x="822" y="216" type="line"/>
      <point x="784" y="103"/>
      <point x="667" y="-13"/>
      <point x="564" y="-13" type="curve" smooth="yes"/>
      <point x="407" y="-13"/>
      <point x="370" y="260.738"/>
      <point x="347" y="383" type="curve"/>
    </contour>
  </outline>
</glyph>
<glyph name="l" format="1">
  <advance width="425"/>
  <unicode hex="006C"/>
  <outline>
    <contour>
      <point x="144" y="885" type="line"/>
      <point x="176" y="1175" type="line"/>
      <point x="40" y="1203" type="line"/>
      <point x="51" y="1276" type="line"/>
      <point x="338" y="1299" type="line"/>
      <point x="353" y="1278" type="line"/>
      <point x="268" y="623" type="line"/>
      <point x="231" y="253" type="line" smooth="yes"/>
      <point x="226.647" y="202.942"/>
      <point x="220.641" y="121"/>
      <point x="262" y="121" type="curve" smooth="yes"/>
      <point x="327.475" y="121"/>
      <point x="394.462" y="195.718"/>
      <point x="423" y="246" type="curve"/>
      <point x="465" y="216" type="line"/>
      <point x="405" y="56"/>
      <point x="304" y="-24"/>
      <point x="160" y="-24" type="curve" smooth="yes"/>
      <point x="28.0391" y="-24"/>
      <point x="56" y="154"/>
      <point x="73" y="295" type="curve" smooth="yes"/>
    </contour>
  </outline>
</glyph>
<glyph name="m" format="1">
  <advance width="1322"/>
  <unicode hex="006D"/>
  <outline>
    <contour>
      <point x="1070.97" y="644.743" type="curve" smooth="yes"/>
      <point x="1070.97" y="695.722"/>
      <point x="1052.33" y="721"/>
      <point x="1014" y="721" type="curve" smooth="yes"/>
      <point x="880.821" y="723.038"/>
      <point x="794.38" y="520.72"/>
      <point x="751" y="343" type="curve"/>
      <point x="743.939" y="122.471"/>
      <point x="736.366" y="-44.8965"/>
      <point x="524" y="-30" type="curve"/>
      <point x="508" y="-2" type="line"/>
      <point x="607" y="378" type="line"/>
      <point x="625.212" y="500.929"/>
      <point x="674.405" y="712"/>
      <point x="572" y="712" type="curve" smooth="yes"/>
      <point x="450" y="712"/>
      <point x="375.314" y="513.939"/>
      <point x="336" y="344" type="curve"/>
      <point x="328.931" y="122.744"/>
      <point x="318.275" y="-39.9785"/>
      <point x="104" y="-19" type="curve"/>
      <point x="90" y="8" type="line"/>
      <point x="192" y="378" type="line"/>
      <point x="197.812" y="441.204"/>
      <point x="246.47" y="761.319"/>
      <point x="180.941" y="761.319" type="curve" smooth="yes"/>
      <point x="140.705" y="761.319"/>
      <point x="77.7833" y="670.417"/>
      <point x="43" y="605" type="curve"/>
      <point x="-5" y="641" type="line"/>
      <point x="37.2021" y="759.297"/>
      <point x="152.797" y="923"/>
      <point x="295" y="923" type="curve" smooth="yes"/>
      <point x="399" y="923"/>
      <point x="357" y="665.878"/>
      <point x="331" y="562" type="curve"/>
      <point x="342" y="560" type="line"/>
      <point x="385.637" y="686.299"/>
      <point x="501.075" y="888"/>
      <point x="644" y="888" type="curve" smooth="yes"/>
      <point x="794.015" y="888"/>
      <point x="801" y="762"/>
      <point x="773" y="618" type="curve"/>
      <point x="783" y="613" type="line"/>
      <point x="863.433" y="802.675"/>
      <point x="964.8" y="897"/>
      <point x="1086" y="897" type="curve" smooth="yes"/>
      <point x="1198.82" y="897"/>
      <point x="1243.15" y="829.09"/>
      <point x="1243.15" y="713.126" type="curve" smooth="yes"/>
      <point x="1243.15" y="571"/>
      <point x="1126.72" y="286"/>
      <point x="1126.72" y="156.993" type="curve" smooth="yes"/>
      <point x="1126.72" y="133.391"/>
      <point x="1133.04" y="121"/>
      <point x="1150" y="121" type="curve" smooth="yes"/>
      <point x="1226.75" y="121"/>
      <point x="1281.84" y="195.437"/>
      <point x="1309" y="246" type="curve"/>
      <point x="1352" y="216" type="line"/>
      <point x="1293.38" y="56"/>
      <point x="1194.71" y="-24"/>
      <point x="1055" y="-24" type="curve" smooth="yes"/>
      <point x="966.155" y="-24"/>
      <point x="949" y="11.9867"/>
      <point x="949" y="61" type="curve" smooth="yes"/>
      <point x="949" y="223"/>
      <point x="1070.97" y="427"/>
    </contour>
  </outline>
</glyph>
<glyph name="n" format="1">
  <advance width="902"/>
  <unicode hex="006E"/>
  <outline>
    <contour>
      <point x="336" y="364" type="curve"/>
      <point x="329.003" y="133.088"/>
      <point x="318.069" y="-47.7976"/>
      <point x="104" y="-24" type="curve"/>
      <point x="90" y="3" type="line"/>
      <point x="192" y="388" type="line"/>
      <point x="211" y="567"/>
      <point x="232" y="768"/>
      <point x="180" y="768" type="curve" smooth="yes"/>
      <point x="138.314" y="768"/>
      <point x="63.4918" y="649.105"/>
      <point x="43" y="613" type="curve"/>
      <point x="-5" y="651" type="line"/>
      <point x="36.9156" y="764.327"/>
      <point x="154.106" y="923"/>
      <point x="295" y="923" type="curve" smooth="yes"/>
      <point x="415" y="923"/>
      <point x="358" y="651.314"/>
      <point x="331" y="553" type="curve"/>
      <point x="342" y="547" type="line"/>
      <point x="384.914" y="659.424"/>
      <point x="537.205" y="897"/>
      <point x="666" y="897" type="curve" smooth="yes"/>
      <point x="778.823" y="897"/>
      <point x="823.146" y="829.09"/>
      <point x="823.146" y="713.126" type="curve" smooth="yes"/>
      <point x="823.146" y="571"/>
      <point x="706.721" y="286"/>
      <point x="706.721" y="156.993" type="curve" smooth="yes"/>
      <point x="706.721" y="133.391"/>
      <point x="713.037" y="121"/>
      <point x="730" y="121" type="curve" smooth="yes"/>
      <point x="806.745" y="121"/>
      <point x="861.84" y="195.437"/>
      <point x="889" y="246" type="curve"/>
      <point x="932" y="216" type="line"/>
      <point x="873.382" y="56"/>
      <point x="774.707" y="-24"/>
      <point x="635" y="-24" type="curve" smooth="yes"/>
      <point x="557.051" y="-24"/>
      <point x="532.279" y="3.25322"/>
      <point x="532.279" y="74.6055" type="curve" smooth="yes"/>
      <point x="532.279" y="202"/>
      <point x="650.969" y="442"/>
      <point x="650.969" y="644.743" type="curve" smooth="yes"/>
      <point x="650.969" y="695.722"/>
      <point x="632.334" y="721"/>
      <point x="594" y="721" type="curve" smooth="yes"/>
      <point x="503.297" y="721"/>
      <point x="397.878" y="601.684"/>
    </contour>
  </outline>
</glyph>
<glyph name="o" format="1">
  <advance width="742"/>
  <unicode hex="006F"/>
  <outline>
    <contour>
      <point x="48" y="360" type="curve" smooth="yes"/>
      <point x="48" y="621.322"/>
      <point x="181.454" y="895"/>
      <point x="437" y="895" type="curve" smooth="yes"/>
      <point x="613.977" y="895"/>
      <point x="722" y="716"/>
      <point x="722" y="526" type="curve" smooth="yes"/>
      <point x="722" y="264.391"/>
      <point x="588.426" y="-26"/>
      <point x="317" y="-26" type="curve" smooth="yes"/>
      <point x="136.702" y="-26"/>
      <point x="48" y="146"/>
    </contour>
    <contour>
      <point x="212" y="460" type="curve" smooth="yes"/>
      <point x="212" y="272"/>
      <point x="267.811" y="90"/>
      <point x="387" y="90" type="curve" smooth="yes"/>
      <point x="516.371" y="90"/>
      <point x="560" y="230"/>
      <point x="560" y="424" type="curve" smooth="yes"/>
      <point x="560" y="581.558"/>
      <point x="495.667" y="784"/>
      <point x="367" y="784" type="curve" smooth="yes"/>
      <point x="253.747" y="784"/>
      <point x="212" y="642"/>
    </contour>
  </outline>
</glyph>
<glyph name="p" format="1">
  <advance width="829"/>
  <unicode hex="0070"/>
  <outline>
    <contour>
      <point x="262" y="112" type="curve"/>
      <point x="288.632" y="306.35"/>
      <point x="333.789" y="459.3"/>
      <point x="394" y="572" type="curve" smooth="yes"/>
      <point x="446" y="670"/>
      <point x="498" y="719"/>
      <point x="550" y="719" type="curve" smooth="yes"/>
      <point x="628.272" y="719"/>
      <point x="635" y="622.581"/>
      <point x="635" y="524" type="curve" smooth="yes"/>
      <point x="635" y="243.536"/>
      <point x="566.367" y="91.6222"/>
      <point x="333" y="62" type="curve"/>
      <point x="340" y="-12" type="line"/>
      <point x="637.766" y="-12"/>
      <point x="809" y="218.779"/>
      <point x="809" y="540" type="curve" smooth="yes"/>
      <point x="809" y="697.034"/>
      <point x="752.227" y="877"/>
      <point x="614" y="877" type="curve" smooth="yes"/>
      <point x="466.069" y="877"/>
      <point x="371.709" y="681.829"/>
      <point x="321" y="553" type="curve"/>
      <point x="311" y="555" type="line"/>
      <point x="311" y="557"/>
      <point x="312" y="561"/>
      <point x="314" y="570" type="curve" smooth="yes"/>
      <point x="333.597" y="658.185"/>
      <point x="411.059" y="915"/>
      <point x="272" y="915" type="curve" smooth="yes"/>
      <point x="129.068" y="915"/>
      <point x="17.5575" y="748.977"/>
      <point x="-24" y="632" type="curve"/>
      <point x="22" y="595" type="line"/>
      <point x="42.5065" y="632.107"/>
      <point x="117.021" y="754"/>
      <point x="159" y="754" type="curve" smooth="yes"/>
      <point x="208.189" y="754"/>
      <point x="200.677" y="664.902"/>
      <point x="191" y="602" type="curve" smooth="yes"/>
      <point x="124" y="131" type="line"/>
      <point x="3" y="-347" type="line"/>
      <point x="17" y="-374" type="line"/>
      <point x="219.787" y="-402.78"/>
      <point x="262" y="-258.205"/>
    </contour>
  </outline>
</glyph>
<glyph name="q" format="1">
  <advance width="789"/>
  <unicode hex="0071"/>
  <outline>
    <contour>
      <point x="609" y="-108" type="line" smooth="yes"/>
      <point x="600" y="-214"/>
      <point x="606" y="-239"/>
      <point x="647" y="-239" type="curve" smooth="yes"/>
      <point x="712" y="-239"/>
      <point x="780" y="-178"/>
      <point x="807" y="-136" type="curve"/>
      <point x="839" y="-185" type="line"/>
      <point x="775" y="-318"/>
      <point x="672" y="-385"/>
      <point x="531" y="-385" type="curve" smooth="yes"/>
      <point x="460" y="-385"/>
      <point x="418" y="-320"/>
      <point x="418" y="-254" type="curve" smooth="yes"/>
      <point x="418" y="-122.223"/>
      <point x="468.617" y="95.362"/>
      <point x="518" y="268" type="curve"/>
      <point x="505" y="268" type="line"/>
      <point x="390" y="54"/>
      <point x="314" y="-26"/>
      <point x="212" y="-26" type="curve" smooth="yes"/>
      <point x="89.9268" y="-26"/>
      <point x="58" y="111"/>
      <point x="58" y="244" type="curve" smooth="yes"/>
      <point x="58" y="486"/>
      <point x="234" y="897"/>
      <point x="443" y="897" type="curve" smooth="yes"/>
      <point x="501" y="897"/>
      <point x="543" y="863"/>
      <point x="571" y="792" type="curve"/>
      <point x="581" y="792" type="line"/>
      <point x="617" y="865"/>
      <point x="697" y="908"/>
      <point x="742" y="895" type="curve"/>
      <point x="760" y="880" type="line"/>
      <point x="626" y="103" type="line"/>
    </contour>
    <contour>
      <point x="549" y="505" type="curve"/>
      <point x="545" y="685" type="line"/>
      <point x="521" y="733"/>
      <point x="483" y="772"/>
      <point x="414" y="772" type="curve" smooth="yes"/>
      <point x="242" y="772"/>
      <point x="212" y="470"/>
      <point x="210" y="305" type="curve" smooth="yes"/>
      <point x="210" y="227"/>
      <point x="221" y="129"/>
      <point x="264" y="129" type="curve" smooth="yes"/>
      <point x="330" y="129"/>
      <point x="443.604" y="245.277"/>
    </contour>
  </outline>
</glyph>
<glyph name="r" format="1">
  <advance width="687"/>
  <unicode hex="0072"/>
  <outline>
    <contour>
      <point x="352" y="345" type="curve"/>
      <point x="364" y="154"/>
      <point x="370.253" y="-42"/>
      <point x="143" y="-14" type="curve"/>
      <point x="129" y="13" type="line"/>
      <point x="202" y="388" type="line"/>
      <point x="203.136" y="431.034"/>
      <point x="208.611" y="551.448"/>
      <point x="208.611" y="640.982" type="curve" smooth="yes"/>
      <point x="208.611" y="700.778"/>
      <point x="198.782" y="746.801"/>
      <point x="167.356" y="746.801" type="curve" smooth="yes"/>
      <point x="129.958" y="746.801"/>
      <point x="53.8399" y="642.712"/>
      <point x="43" y="619" type="curve"/>
      <point x="-5" y="655" type="line"/>
      <point x="35.764" y="757.682"/>
      <point x="130.946" y="899"/>
      <point x="264" y="899" type="curve" smooth="yes"/>
      <point x="368.144" y="899"/>
      <point x="367" y="793"/>
      <point x="355" y="693" type="curve" smooth="yes"/>
      <point x="322" y="430" type="line"/>
      <point x="336" y="427" type="line"/>
      <point x="394.649" y="607"/>
      <point x="438.162" y="866"/>
      <point x="581" y="866" type="curve" smooth="yes"/>
      <point x="651.879" y="866"/>
      <point x="701" y="820.178"/>
      <point x="701" y="755" type="curve" smooth="yes"/>
      <point x="701" y="695.247"/>
      <point x="676.049" y="649.978"/>
      <point x="655" y="641" type="curve"/>
      <point x="655" y="641"/>
      <point x="628.525" y="669"/>
      <point x="538" y="669" type="curve" smooth="yes"/>
      <point x="482.959" y="669"/>
      <point x="424.122" y="557.694"/>
    </contour>
  </outline>
</glyph>
<glyph name="s" format="1">
  <advance width="617"/>
  <unicode hex="0073"/>
  <outline>
    <contour>
      <point x="62" y="610" type="curve" smooth="yes"/>
      <point x="62" y="768.838"/>
      <point x="229.039" y="897"/>
      <point x="410" y="897" type="curve" smooth="yes"/>
      <point x="501.649" y="897"/>
      <point x="597" y="858.933"/>
      <point x="597" y="775" type="curve" smooth="yes"/>
      <point x="597" y="717"/>
      <point x="565" y="675"/>
      <point x="501" y="648" type="curve"/>
      <point x="466.252" y="717.919"/>
      <point x="418.98" y="798"/>
      <point x="337" y="798" type="curve" smooth="yes"/>
      <point x="253.72" y="798"/>
      <point x="189" y="749.205"/>
      <point x="189" y="686" type="curve" smooth="yes"/>
      <point x="189" y="514"/>
      <point x="584.261" y="425.857"/>
      <point x="580" y="239" type="curve" smooth="yes"/>
      <point x="576.301" y="66.6192"/>
      <point x="409.439" y="-35"/>
      <point x="232" y="-35" type="curve" smooth="yes"/>
      <point x="137.204" y="-35"/>
      <point x="20" y="13.8529"/>
      <point x="20" y="99" type="curve" smooth="yes"/>
      <point x="20" y="169.578"/>
      <point x="71.4909" y="225.302"/>
      <point x="135" y="233" type="curve"/>
      <point x="160.981" y="149.491"/>
      <point x="219.45" y="67"/>
      <point x="325" y="67" type="curve" smooth="yes"/>
      <point x="388.708" y="67"/>
      <point x="433" y="99"/>
      <point x="433" y="171" type="curve"/>
      <point x="425.041" y="334.406"/>
      <point x="62" y="358"/>
    </contour>
  </outline>
</glyph>
<glyph name="t" format="1">
  <advance width="591"/>
  <unicode hex="0074"/>
  <outline>
    <contour>
      <point x="295" y="151" type="curve" smooth="yes"/>
      <point x="376" y="151"/>
      <point x="433.721" y="272.015"/>
      <point x="502" y="393" type="curve"/>
      <point x="551" y="355" type="line"/>
      <point x="504.432" y="179.243"/>
      <point x="407.119" y="-23"/>
      <point x="217" y="-23" type="curve" smooth="yes"/>
      <point x="46.5335" y="-23"/>
      <point x="96" y="168"/>
      <point x="123" y="354" type="curve" smooth="yes"/>
      <point x="179" y="745" type="line"/>
      <point x="67" y="758" type="line"/>
      <point x="92" y="843" type="line"/>
      <point x="189" y="854" type="line"/>
      <point x="227" y="1032" type="line"/>
      <point x="364" y="1051" type="line"/>
      <point x="375" y="1038" type="line"/>
      <point x="354" y="854" type="line"/>
      <point x="571" y="850" type="line"/>
      <point x="545" y="753" type="line"/>
      <point x="338" y="745" type="line"/>
      <point x="287" y="392" type="line" smooth="yes"/>
      <point x="270" y="274"/>
      <point x="246.144" y="151"/>
    </contour>
  </outline>
</glyph>
<glyph name="u" format="1">
  <advance width="926"/>
  <unicode hex="0075"/>
  <outline>
    <contour>
      <point x="607" y="507" type="curve"/>
      <point x="610.372" y="724.675"/>
      <point x="640" y="923.467"/>
      <point x="835" y="895" type="curve"/>
      <point x="851" y="867" type="line"/>
      <point x="751" y="484" type="line"/>
      <point x="734" y="284" type="line" smooth="yes"/>
      <point x="726.963" y="212.225"/>
      <point x="705.128" y="123"/>
      <point x="769" y="123" type="curve" smooth="yes"/>
      <point x="817.767" y="123"/>
      <point x="892.961" y="230.329"/>
      <point x="915" y="270" type="curve"/>
      <point x="956" y="242" type="line"/>
      <point x="904" y="64"/>
      <point x="793" y="-24"/>
      <point x="661" y="-24" type="curve" smooth="yes"/>
      <point x="538.691" y="-24"/>
      <point x="569.723" y="165.384"/>
      <point x="600" y="283" type="curve"/>
      <point x="589" y="285" type="line"/>
      <point x="530.57" y="147.44"/>
      <point x="379.981" y="-26"/>
      <point x="241" y="-26" type="curve" smooth="yes"/>
      <point x="142.746" y="-26"/>
      <point x="111.719" y="35.1223"/>
      <point x="111.719" y="116.13" type="curve" smooth="yes"/>
      <point x="111.719" y="247"/>
      <point x="220.456" y="508"/>
      <point x="220.456" y="672.951" type="curve" smooth="yes"/>
      <point x="220.456" y="707.846"/>
      <point x="212.942" y="736.828"/>
      <point x="186" y="738" type="curve" smooth="yes"/>
      <point x="155" y="738"/>
      <point x="107" y="689"/>
      <point x="43" y="592" type="curve"/>
      <point x="-5" y="623" type="line"/>
      <point x="37.8895" y="735.4"/>
      <point x="151.993" y="899"/>
      <point x="289" y="899" type="curve" smooth="yes"/>
      <point x="378.539" y="899"/>
      <point x="404.093" y="844.69"/>
      <point x="404.093" y="770.309" type="curve" smooth="yes"/>
      <point x="404.093" y="646"/>
      <point x="292.979" y="364"/>
      <point x="292.979" y="216.477" type="curve" smooth="yes"/>
      <point x="292.979" y="180.227"/>
      <point x="305.95" y="150"/>
      <point x="352" y="150" type="curve" smooth="yes"/>
      <point x="460" y="150"/>
      <point x="564.929" y="347.114"/>
    </contour>
  </outline>
</glyph>
<glyph name="v" format="1">
  <advance width="828"/>
  <unicode hex="0076"/>
  <outline>
    <contour>
      <point x="336" y="400" type="line" smooth="yes"/>
      <point x="314.265" y="239.952"/>
      <point x="326.132" y="91"/>
      <point x="447" y="91" type="curve" smooth="yes"/>
      <point x="601.117" y="91"/>
      <point x="656" y="378.888"/>
      <point x="656" y="545" type="curve" smooth="yes"/>
      <point x="656" y="667"/>
      <point x="614" y="768"/>
      <point x="530" y="845" type="curve"/>
      <point x="561" y="879"/>
      <point x="597.988" y="896"/>
      <point x="641" y="896" type="curve" smooth="yes"/>
      <point x="724" y="896"/>
      <point x="778" y="790.931"/>
      <point x="778" y="688" type="curve" smooth="yes"/>
      <point x="778" y="389.45"/>
      <point x="649.118" y="-21"/>
      <point x="360" y="-21" type="curve" smooth="yes"/>
      <point x="199.932" y="-21"/>
      <point x="147.358" y="123.904"/>
      <point x="177" y="349" type="curve" smooth="yes"/>
      <point x="209" y="592" type="line" smooth="yes"/>
      <point x="221.147" y="684.244"/>
      <point x="224.819" y="735"/>
      <point x="182" y="735" type="curve" smooth="yes"/>
      <point x="173.137" y="735"/>
      <point x="124" y="705"/>
      <point x="38" y="579" type="curve"/>
      <point x="-10" y="611" type="line"/>
      <point x="35.957" y="722.188"/>
      <point x="153.26" y="887"/>
      <point x="292" y="887" type="curve"/>
      <point x="347" y="887"/>
      <point x="374" y="840"/>
      <point x="374" y="744" type="curve" smooth="yes"/>
      <point x="374" y="719"/>
      <point x="365" y="631"/>
      <point x="347" y="481" type="curve" smooth="yes"/>
    </contour>
  </outline>
</glyph>
<glyph name="w" format="1">
  <advance width="1174"/>
  <unicode hex="0077"/>
  <outline>
    <contour>
      <point x="208" y="618" type="line" smooth="yes"/>
      <point x="221" y="675"/>
      <point x="245.424" y="760"/>
      <point x="204" y="760" type="curve" smooth="yes"/>
      <point x="181" y="760"/>
      <point x="125" y="709"/>
      <point x="36" y="607" type="curve"/>
      <point x="-5" y="637" type="line"/>
      <point x="51.0205" y="744.686"/>
      <point x="180.616" y="913"/>
      <point x="316" y="913" type="curve" smooth="yes"/>
      <point x="378.558" y="913"/>
      <point x="398.64" y="876.628"/>
      <point x="398.64" y="822.849" type="curve" smooth="yes"/>
      <point x="398.64" y="678"/>
      <point x="287" y="442"/>
      <point x="287" y="249" type="curve" smooth="yes"/>
      <point x="287" y="161"/>
      <point x="321" y="117"/>
      <point x="388" y="116" type="curve"/>
      <point x="517" y="116"/>
      <point x="565.921" y="296.592"/>
      <point x="586" y="484" type="curve"/>
      <point x="576.629" y="676.097"/>
      <point x="569.806" y="859.024"/>
      <point x="762" y="835" type="curve"/>
      <point x="773" y="817" type="line"/>
      <point x="714" y="456" type="line"/>
      <point x="707" y="300"/>
      <point x="700.482" y="106"/>
      <point x="819" y="106" type="curve" smooth="yes"/>
      <point x="962.105" y="106"/>
      <point x="1007" y="370.832"/>
      <point x="1007" y="534" type="curve" smooth="yes"/>
      <point x="1007" y="654.286"/>
      <point x="955.216" y="781.213"/>
      <point x="907" y="858" type="curve"/>
      <point x="944" y="886"/>
      <point x="979" y="900"/>
      <point x="1014" y="900" type="curve" smooth="yes"/>
      <point x="1099.3" y="900"/>
      <point x="1129" y="774.214"/>
      <point x="1129" y="676" type="curve" smooth="yes"/>
      <point x="1129" y="384.688"/>
      <point x="989" y="-24"/>
      <point x="718" y="-24" type="curve" smooth="yes"/>
      <point x="609.033" y="-24"/>
      <point x="579" y="56.9082"/>
      <point x="579" y="193" type="curve"/>
      <point x="566" y="195" type="line"/>
      <point x="526.322" y="75.9668"/>
      <point x="432.335" y="-26"/>
      <point x="285" y="-26" type="curve" smooth="yes"/>
      <point x="177" y="-26"/>
      <point x="123" y="42"/>
      <point x="123" y="178" type="curve" smooth="yes"/>
      <point x="123" y="225"/>
      <point x="128.085" y="268.209"/>
      <point x="147" y="351" type="curve" smooth="yes"/>
    </contour>
  </outline>
</glyph>
<glyph name="x" format="1">
  <advance width="896"/>
  <unicode hex="0078"/>
  <outline>
    <contour>
      <point x="412" y="312" type="curve"/>
      <point x="311" y="83.3929"/>
      <point x="214" y="-31.9405"/>
      <point x="121" y="-34" type="curve" smooth="yes"/>
      <point x="88" y="-34"/>
      <point x="63" y="-24"/>
      <point x="46" y="-4" type="curve" smooth="yes"/>
      <point x="29" y="16"/>
      <point x="20" y="41"/>
      <point x="20" y="70" type="curve" smooth="yes"/>
      <point x="20" y="127"/>
      <point x="36" y="170"/>
      <point x="68" y="197" type="curve"/>
      <point x="97" y="171"/>
      <point x="131" y="158"/>
      <point x="170" y="158" type="curve" smooth="yes"/>
      <point x="243" y="158"/>
      <point x="312" y="239"/>
      <point x="377" y="401" type="curve"/>
      <point x="352.286" y="502"/>
      <point x="283.801" y="731"/>
      <point x="204" y="731" type="curve" smooth="yes"/>
      <point x="182" y="731"/>
      <point x="146" y="685"/>
      <point x="97" y="592" type="curve"/>
      <point x="50" y="629" type="line"/>
      <point x="112" y="798"/>
      <point x="195" y="882"/>
      <point x="300" y="882" type="curve" smooth="yes"/>
      <point x="424.39" y="882"/>
      <point x="479.122" y="674"/>
      <point x="504" y="542" type="curve"/>
      <point x="548" y="641.161"/>
      <point x="594" y="721.798"/>
      <point x="643" y="785" type="curve" smooth="yes"/>
      <point x="692" y="843"/>
      <point x="733" y="871"/>
      <point x="768" y="871" type="curve" smooth="yes"/>
      <point x="803" y="871"/>
      <point x="829" y="863"/>
      <point x="848" y="846" type="curve" smooth="yes"/>
      <point x="867" y="829"/>
      <point x="876" y="810"/>
      <point x="876" y="786" type="curve" smooth="yes"/>
      <point x="876" y="733"/>
      <point x="861" y="690"/>
      <point x="830" y="657" type="curve"/>
      <point x="810" y="675"/>
      <point x="778" y="683"/>
      <point x="731" y="683" type="curve" smooth="yes"/>
      <point x="660" y="683"/>
      <point x="593" y="614"/>
      <point x="532" y="474" type="curve"/>
      <point x="546" y="394"/>
      <point x="616.445" y="113"/>
      <point x="673" y="113" type="curve" smooth="yes"/>
      <point x="691" y="113"/>
      <point x="711" y="124"/>
      <point x="735" y="146" type="curve" smooth="yes"/>
      <point x="759" y="168"/>
      <point x="782" y="198"/>
      <point x="804" y="237" type="curve"/>
      <point x="847" y="207" type="line"/>
      <point x="790" y="54"/>
      <point x="703" y="-23"/>
      <point x="586" y="-23" type="curve" smooth="yes"/>
      <point x="475.921" y="-23"/>
      <point x="432" y="190"/>
    </contour>
  </outline>
</glyph>
<glyph name="y" format="1">
  <advance width="852"/>
  <unicode hex="0079"/>
  <outline>
    <contour>
      <point x="49" y="662" type="curve"/>
      <point x="0" y="699" type="line"/>
      <point x="35.5059" y="779.862"/>
      <point x="134.636" y="902"/>
      <point x="255" y="902" type="curve" smooth="yes"/>
      <point x="461.952" y="902"/>
      <point x="453" y="318"/>
      <point x="435" y="154" type="curve"/>
      <point x="444" y="154" type="line"/>
      <point x="575.27" y="278.186"/>
      <point x="638" y="419.07"/>
      <point x="638" y="585" type="curve" smooth="yes"/>
      <point x="638" y="714"/>
      <point x="558" y="813"/>
      <point x="503" y="848" type="curve"/>
      <point x="525.986" y="876.29"/>
      <point x="579.283" y="906"/>
      <point x="629" y="906" type="curve" smooth="yes"/>
      <point x="723.412" y="906"/>
      <point x="794" y="822"/>
      <point x="794" y="677" type="curve" smooth="yes"/>
      <point x="794" y="435"/>
      <point x="637.027" y="231.521"/>
      <point x="431" y="56" type="curve"/>
      <point x="409.395" y="-138.09"/>
      <point x="296.003" y="-381"/>
      <point x="98" y="-381" type="curve" smooth="yes"/>
      <point x="8.2675" y="-381"/>
      <point x="-68" y="-339.494"/>
      <point x="-68" y="-254" type="curve" smooth="yes"/>
      <point x="-60.0814" y="-193.545"/>
      <point x="-42.7372" y="-173.45"/>
      <point x="7" y="-141" type="curve"/>
      <point x="54.6225" y="-189"/>
      <point x="102.236" y="-212"/>
      <point x="148" y="-212" type="curve" smooth="yes"/>
      <point x="266.389" y="-212"/>
      <point x="295.569" y="-168.925"/>
      <point x="295.569" y="-42.8711" type="curve" smooth="yes"/>
      <point x="295.569" y="171"/>
      <point x="259.881" y="748"/>
      <point x="175" y="748" type="curve" smooth="yes"/>
      <point x="123.776" y="748"/>
      <point x="72.4083" y="689.956"/>
    </contour>
  </outline>
</glyph>
<glyph name="z" format="1">
  <advance width="778"/>
  <unicode hex="007A"/>
  <outline>
    <contour>
      <point x="594" y="858" type="curve" smooth="yes"/>
      <point x="666.92" y="858"/>
      <point x="728.216" y="866"/>
      <point x="780" y="883" type="curve"/>
      <point x="798" y="855" type="line"/>
      <point x="454" y="414" type="line"/>
      <point x="250" y="113" type="line"/>
      <point x="344.399" y="143.251"/>
      <point x="431.205" y="56"/>
      <point x="509" y="56" type="curve" smooth="yes"/>
      <point x="554.819" y="56"/>
      <point x="576.738" y="86.0223"/>
      <point x="579" y="129" type="curve" smooth="yes"/>
      <point x="581.253" y="171.803"/>
      <point x="557.609" y="269.623"/>
      <point x="546" y="303" type="curve"/>
      <point x="578" y="319"/>
      <point x="607" y="327"/>
      <point x="633" y="327" type="curve" smooth="yes"/>
      <point x="693.706" y="327"/>
      <point x="734" y="289.897"/>
      <point x="734" y="227" type="curve" smooth="yes"/>
      <point x="734" y="102.251"/>
      <point x="612.667" y="-13"/>
      <point x="474" y="-13" type="curve" smooth="yes"/>
      <point x="403.741" y="-13"/>
      <point x="285.953" y="16"/>
      <point x="163" y="16" type="curve" smooth="yes"/>
      <point x="120" y="16"/>
      <point x="75" y="10"/>
      <point x="29" y="-2" type="curve"/>
      <point x="10" y="26" type="line"/>
      <point x="294" y="395" type="line"/>
      <point x="558" y="765" type="line"/>
      <point x="458.285" y="749.048"/>
      <point x="387.127" y="815"/>
      <point x="300" y="815" type="curve" smooth="yes"/>
      <point x="257" y="815"/>
      <point x="234" y="776"/>
      <point x="230" y="699" type="curve" smooth="yes"/>
      <point x="230" y="657.05"/>
      <point x="231.776" y="621.528"/>
      <point x="239" y="583" type="curve"/>
      <point x="158.193" y="552.697"/>
      <point x="62" y="595.498"/>
      <point x="62" y="681" type="curve" smooth="yes"/>
      <point x="62" y="792.397"/>
      <point x="187" y="877"/>
      <point x="323" y="877" type="curve" smooth="yes"/>
      <point x="407.377" y="877"/>
      <point x="493.903" y="859.43"/>
    </contour>
  </outline>
</glyph>
<glyph name="braceleft" format="1">
  <advance width="667"/>
  <unicode hex="007B"/>
  <outline>
    <contour>
      <point x="457" y="-280" type="line"/>
      <point x="453" y="-381" type="line"/>
      <point x="348" y="-381" type="line" smooth="yes"/>
      <point x="277" y="-381"/>
      <point x="226" y="-361"/>
      <point x="196" y="-321" type="curve" smooth="yes"/>
      <point x="166" y="-281"/>
      <point x="151" y="-220"/>
      <point x="151" y="-139" type="curve" smooth="yes"/>
      <point x="151" y="-108"/>
      <point x="155" y="-53"/>
      <point x="164" y="25" type="curve" smooth="yes"/>
      <point x="173" y="103"/>
      <point x="176" y="160"/>
      <point x="176" y="199" type="curve" smooth="yes"/>
      <point x="176" y="311"/>
      <point x="140" y="373"/>
      <point x="69" y="385" type="curve" smooth="yes"/>
      <point x="17" y="393" type="line"/>
      <point x="30" y="492" type="line"/>
      <point x="81" y="500" type="line" smooth="yes"/>
      <point x="126" y="508"/>
      <point x="162" y="531"/>
      <point x="190" y="572" type="curve" smooth="yes"/>
      <point x="218" y="613"/>
      <point x="236" y="662"/>
      <point x="246" y="721" type="curve" smooth="yes"/>
      <point x="269" y="874"/>
      <point x="291" y="993"/>
      <point x="312" y="1080" type="curve" smooth="yes"/>
      <point x="327" y="1136"/>
      <point x="355" y="1181"/>
      <point x="395" y="1215" type="curve" smooth="yes"/>
      <point x="435" y="1249"/>
      <point x="486" y="1266"/>
      <point x="549" y="1266" type="curve" smooth="yes"/>
      <point x="650" y="1266" type="line"/>
      <point x="629" y="1164" type="line"/>
      <point x="547" y="1158" type="line" smooth="yes"/>
      <point x="494" y="1153"/>
      <point x="460" y="1076"/>
      <point x="446" y="925" type="curve" smooth="yes"/>
      <point x="441" y="880"/>
      <point x="439" y="853"/>
      <point x="437" y="843" type="curve" smooth="yes"/>
      <point x="435" y="833"/>
      <point x="434" y="818"/>
      <point x="431" y="797" type="curve" smooth="yes"/>
      <point x="428" y="776"/>
      <point x="426" y="762"/>
      <point x="424" y="752" type="curve" smooth="yes"/>
      <point x="422" y="742"/>
      <point x="420" y="729"/>
      <point x="416" y="711" type="curve" smooth="yes"/>
      <point x="412" y="693"/>
      <point x="409" y="680"/>
      <point x="405" y="669" type="curve" smooth="yes"/>
      <point x="401" y="658"/>
      <point x="396" y="646"/>
      <point x="390" y="630" type="curve" smooth="yes"/>
      <point x="355" y="532"/>
      <point x="297" y="471"/>
      <point x="216" y="448" type="curve"/>
      <point x="214" y="442" type="line"/>
      <point x="302" y="415"/>
      <point x="346" y="331"/>
      <point x="347" y="191" type="curve" smooth="yes"/>
      <point x="347" y="155"/>
      <point x="343" y="95"/>
      <point x="333" y="11" type="curve" smooth="yes"/>
      <point x="323" y="-73"/>
      <point x="319" y="-129"/>
      <point x="319" y="-158" type="curve" smooth="yes"/>
      <point x="319" y="-232"/>
      <point x="340" y="-271"/>
      <point x="383" y="-275" type="curve" smooth="yes"/>
    </contour>
  </outline>
</glyph>
<glyph name="bar" format="1">
  <advance width="338"/>
  <unicode hex="007C"/>
  <outline>
    <contour>
      <point x="130" y="-355" type="line"/>
      <point x="17" y="-343" type="line"/>
      <point x="209" y="1229" type="line"/>
      <point x="321" y="1218" type="line"/>
    </contour>
  </outline>
</glyph>
<glyph name="braceright" format="1">
  <advance width="673"/>
  <unicode hex="007D"/>
  <outline>
    <contour>
      <point x="326" y="686" type="curve" smooth="yes"/>
      <point x="326" y="706" type="line" smooth="yes"/>
      <point x="326" y="753"/>
      <point x="330" y="816"/>
      <point x="341" y="894" type="curve" smooth="yes"/>
      <point x="352" y="972"/>
      <point x="357" y="1024"/>
      <point x="357" y="1053" type="curve" smooth="yes"/>
      <point x="357" y="1120"/>
      <point x="339" y="1155"/>
      <point x="302" y="1158" type="curve" smooth="yes"/>
      <point x="220" y="1164" type="line"/>
      <point x="225" y="1266" type="line"/>
      <point x="326" y="1266" type="line" smooth="yes"/>
      <point x="396" y="1266"/>
      <point x="446" y="1246"/>
      <point x="477" y="1205" type="curve" smooth="yes"/>
      <point x="508" y="1164"/>
      <point x="523" y="1104"/>
      <point x="523" y="1026" type="curve" smooth="yes"/>
      <point x="523" y="985"/>
      <point x="519" y="926"/>
      <point x="510" y="850" type="curve" smooth="yes"/>
      <point x="501" y="774"/>
      <point x="498" y="722"/>
      <point x="498" y="693" type="curve" smooth="yes"/>
      <point x="498" y="578"/>
      <point x="535" y="514"/>
      <point x="608" y="500" type="curve" smooth="yes"/>
      <point x="655" y="492" type="line"/>
      <point x="643" y="393" type="line"/>
      <point x="590" y="385" type="line" smooth="yes"/>
      <point x="547" y="377"/>
      <point x="511" y="354"/>
      <point x="484" y="314" type="curve" smooth="yes"/>
      <point x="457" y="274"/>
      <point x="440" y="224"/>
      <point x="432" y="165" type="curve" smooth="yes"/>
      <point x="409" y="11"/>
      <point x="386" y="-109"/>
      <point x="363" y="-195" type="curve" smooth="yes"/>
      <point x="347" y="-252"/>
      <point x="320" y="-296"/>
      <point x="278" y="-330" type="curve" smooth="yes"/>
      <point x="236" y="-364"/>
      <point x="183" y="-381"/>
      <point x="120" y="-381" type="curve" smooth="yes"/>
      <point x="17" y="-381" type="line"/>
      <point x="39" y="-280" type="line"/>
      <point x="113" y="-275" type="line"/>
      <point x="172" y="-270"/>
      <point x="209" y="-192"/>
      <point x="227" y="-40" type="curve"/>
      <point x="245" y="107"/>
      <point x="260" y="200"/>
      <point x="276" y="239" type="curve" smooth="yes"/>
      <point x="292" y="278"/>
      <point x="306" y="311"/>
      <point x="322" y="336" type="curve" smooth="yes"/>
      <point x="357" y="390"/>
      <point x="402" y="425"/>
      <point x="459" y="442" type="curve"/>
      <point x="459" y="448" type="line"/>
      <point x="370" y="473"/>
      <point x="326" y="552"/>
    </contour>
  </outline>
</glyph>
<glyph name="asciitilde" format="1">
  <advance width="860"/>
  <unicode hex="007E"/>
  <outline>
    <contour>
      <point x="21" y="416" type="line"/>
      <point x="23" y="423"/>
      <point x="26" y="430"/>
      <point x="31" y="440" type="curve" smooth="yes"/>
      <point x="63" y="514"/>
      <point x="104" y="566"/>
      <point x="154" y="595" type="curve" smooth="yes"/>
      <point x="177" y="609"/>
      <point x="200" y="616"/>
      <point x="224" y="616" type="curve" smooth="yes"/>
      <point x="230" y="616" type="line"/>
      <point x="232" y="614"/>
      <point x="234" y="614"/>
      <point x="238" y="615" type="curve" smooth="yes"/>
      <point x="680" y="571" type="line"/>
      <point x="685" y="571" type="line" smooth="yes"/>
      <point x="706" y="571"/>
      <point x="731" y="586"/>
      <point x="760" y="616" type="curve" smooth="yes"/>
      <point x="775" y="631" type="line"/>
      <point x="840" y="631" type="line"/>
      <point x="833" y="611"/>
      <point x="822" y="589"/>
      <point x="806" y="562" type="curve" smooth="yes"/>
      <point x="790" y="535"/>
      <point x="774" y="513"/>
      <point x="758" y="495" type="curve" smooth="yes"/>
      <point x="742" y="477"/>
      <point x="724" y="462"/>
      <point x="701" y="448" type="curve" smooth="yes"/>
      <point x="678" y="434"/>
      <point x="654" y="427"/>
      <point x="631" y="427" type="curve" smooth="yes"/>
      <point x="615" y="427" type="line"/>
      <point x="171" y="472" type="line"/>
      <point x="166" y="472" type="line" smooth="yes"/>
      <point x="142" y="472"/>
      <point x="116" y="455"/>
      <point x="88" y="421" type="curve"/>
      <point x="74" y="402" type="line"/>
    </contour>
  </outline>
</glyph>
